<svg xmlns="http://www.w3.org/2000/svg" width="9.656" height="15" viewBox="0 0 9.656 15">
  <path id="Path_651" data-name="Path 651" d="M-10.5-9.8a1.085,1.085,0,0,0-.328.8,1.085,1.085,0,0,0,.328.8l6.375,6.375a1.085,1.085,0,0,0,.8.328,1.085,1.085,0,0,0,.8-.328L-1.5-2.906a1.085,1.085,0,0,0,.328-.8A1.085,1.085,0,0,0-1.5-4.5L-6-9l4.5-4.547a.938.938,0,0,0,.328-.75,1.085,1.085,0,0,0-.328-.8l-1.031-1.078a1.085,1.085,0,0,0-.8-.328,1.085,1.085,0,0,0-.8.328Z" transform="translate(10.828 16.5)" fill="#ccc"/>
</svg>