<svg xmlns="http://www.w3.org/2000/svg" width="9.656" height="15" viewBox="0 0 9.656 15">
  <path id="Path_654" data-name="Path 654" d="M-1.5-8.2A1.085,1.085,0,0,0-1.172-9,1.085,1.085,0,0,0-1.5-9.8l-6.375-6.375a1.085,1.085,0,0,0-.8-.328,1.085,1.085,0,0,0-.8.328L-10.5-15.094a1.085,1.085,0,0,0-.328.8,1.085,1.085,0,0,0,.328.8L-6-9l-4.5,4.5a1.085,1.085,0,0,0-.328.8,1.085,1.085,0,0,0,.328.8l1.031,1.078a1.085,1.085,0,0,0,.8.328,1.085,1.085,0,0,0,.8-.328Z" transform="translate(10.828 16.5)" fill="#ccc"/>
</svg>