<svg xmlns="http://www.w3.org/2000/svg" width="60" height="60" viewBox="0 0 60 60">
  <g id="Group_912" data-name="Group 912" transform="translate(4484 15560.961)">
    <circle id="Ellipse_4" data-name="Ellipse 4" cx="30" cy="30" r="30" transform="translate(-4484 -15560.961)" fill="#2473c3"/>
    <g id="Group_58" data-name="Group 58" transform="translate(-4954.772 -15591.729)">
      <path id="Path_266" data-name="Path 266" d="M514.5,50.663a2.617,2.617,0,0,0-5.219.4,31.267,31.267,0,0,1-.808,11.245,3.427,3.427,0,0,1-3.288,2.437h-8.442a4.423,4.423,0,0,0-4.423,4.423v5.363h18.206v-4.8c.208-.258.416-.534.62-.832C513.988,64.774,515.116,58.637,514.5,50.663Z" transform="translate(-0.627 -0.241)" fill="#fff"/>
      <circle id="Ellipse_50" data-name="Ellipse 50" cx="5.803" cy="5.803" r="5.803" transform="translate(495.109 51.761)" fill="#fff"/>
      <g id="Group_58-2" data-name="Group 58" transform="translate(484.842 45.373)">
        <path id="Path_267" data-name="Path 267" d="M488.215,56.134a3.516,3.516,0,0,1,.205-1.219,4.929,4.929,0,0,1,.525-1.038,7.7,7.7,0,0,1,.718-.878q.4-.421.809-.809a12.439,12.439,0,0,0,1.083-1.175,1.977,1.977,0,0,0,.467-1.265,1.738,1.738,0,0,0-.421-1.242,1.768,1.768,0,0,0-1.334-.444,2.035,2.035,0,0,0-1.55.627,2.856,2.856,0,0,0-.707,1.722h-3.168a5.5,5.5,0,0,1,.478-2.12,4.768,4.768,0,0,1,1.186-1.6,5.081,5.081,0,0,1,1.744-.98,6.913,6.913,0,0,1,2.223-.342,7.394,7.394,0,0,1,2.2.3,4.457,4.457,0,0,1,1.585.844,3.5,3.5,0,0,1,.957,1.3,4.226,4.226,0,0,1,.319,1.665,3.532,3.532,0,0,1-.57,2.028,9.8,9.8,0,0,1-1.3,1.551q-.411.388-.821.763a7.525,7.525,0,0,0-.729.764,4.535,4.535,0,0,0-.571.8,2.231,2.231,0,0,0-.273.866v.57h-3.056Zm1.505,5.974a2.273,2.273,0,0,1-.821-.148,1.854,1.854,0,0,1-.661-.422,1.918,1.918,0,0,1-.455-.627,1.821,1.821,0,0,1-.16-.763,1.906,1.906,0,0,1,.616-1.414,1.867,1.867,0,0,1,.661-.422,2.293,2.293,0,0,1,.821-.148,2.064,2.064,0,0,1,1.471.57,1.867,1.867,0,0,1,.6,1.414,1.834,1.834,0,0,1-.159.763,2.1,2.1,0,0,1-.433.627,2.128,2.128,0,0,1-.673.422A2.185,2.185,0,0,1,489.721,62.108Z" transform="translate(-484.842 -45.373)" fill="#fff"/>
      </g>
    </g>
  </g>
</svg>