<svg xmlns="http://www.w3.org/2000/svg" width="19.375" height="19.375" viewBox="0 0 19.375 19.375">
  <path id="Path_647" data-name="Path 647" d="M-.313-7.5a9.391,9.391,0,0,0-1.309-4.844,9.789,9.789,0,0,0-3.535-3.535A9.391,9.391,0,0,0-10-17.187a9.391,9.391,0,0,0-4.844,1.309,9.789,9.789,0,0,0-3.535,3.535A9.391,9.391,0,0,0-19.687-7.5a9.391,9.391,0,0,0,1.309,4.844A9.789,9.789,0,0,0-14.844.879,9.391,9.391,0,0,0-10,2.187,9.391,9.391,0,0,0-5.156.879,9.789,9.789,0,0,0-1.621-2.656,9.391,9.391,0,0,0-.313-7.5Zm-10.82,5.117a.52.52,0,0,1-.43.2.52.52,0,0,1-.43-.2l-4.062-4.062a.52.52,0,0,1-.2-.43.52.52,0,0,1,.2-.43l.859-.9a.617.617,0,0,1,.449-.2.617.617,0,0,1,.449.2l2.734,2.734L-5.7-11.328a.617.617,0,0,1,.449-.2.617.617,0,0,1,.449.2l.859.9a.52.52,0,0,1,.2.43.52.52,0,0,1-.2.43Z" transform="translate(19.688 17.188)" fill="#669d34"/>
</svg>