<svg xmlns="http://www.w3.org/2000/svg" width="19.375" height="19.375" viewBox="0 0 19.375 19.375">
  <path id="Path_646" data-name="Path 646" d="M19.687-7.5a9.391,9.391,0,0,0-1.309-4.844,9.789,9.789,0,0,0-3.535-3.535A9.391,9.391,0,0,0,10-17.187a9.391,9.391,0,0,0-4.844,1.309,9.789,9.789,0,0,0-3.535,3.535A9.391,9.391,0,0,0,.312-7.5,9.391,9.391,0,0,0,1.621-2.656,9.789,9.789,0,0,0,5.156.879,9.391,9.391,0,0,0,10,2.187,9.391,9.391,0,0,0,14.844.879a9.789,9.789,0,0,0,3.535-3.535A9.391,9.391,0,0,0,19.687-7.5ZM8.867-2.383a.52.52,0,0,1-.43.2.52.52,0,0,1-.43-.2L3.945-6.445a.52.52,0,0,1-.2-.43.52.52,0,0,1,.2-.43L4.8-8.2a.617.617,0,0,1,.449-.2.617.617,0,0,1,.449.2L8.437-5.469,14.3-11.328a.617.617,0,0,1,.449-.2.617.617,0,0,1,.449.2l.859.9a.52.52,0,0,1,.2.43.52.52,0,0,1-.2.43Z" transform="translate(-0.313 17.188)" fill="#e62623"/>
</svg>