<svg xmlns="http://www.w3.org/2000/svg" width="21.313" height="21.313" viewBox="0 0 21.313 21.313">
  <path id="Path_645" data-name="Path 645" d="M11-18.906a10.33,10.33,0,0,1,5.328,1.439,10.768,10.768,0,0,1,3.889,3.889A10.33,10.33,0,0,1,21.656-8.25a10.33,10.33,0,0,1-1.439,5.328A10.768,10.768,0,0,1,16.328.967,10.33,10.33,0,0,1,11,2.406,10.33,10.33,0,0,1,5.672.967,10.768,10.768,0,0,1,1.783-2.922,10.33,10.33,0,0,1,.344-8.25a10.33,10.33,0,0,1,1.439-5.328,10.768,10.768,0,0,1,3.889-3.889A10.33,10.33,0,0,1,11-18.906Zm0,4.727a1.734,1.734,0,0,0-1.268.537A1.734,1.734,0,0,0,9.2-12.375a1.734,1.734,0,0,0,.537,1.268A1.734,1.734,0,0,0,11-10.57a1.734,1.734,0,0,0,1.268-.537,1.734,1.734,0,0,0,.537-1.268,1.734,1.734,0,0,0-.537-1.268A1.734,1.734,0,0,0,11-14.18ZM13.406-3.266V-4.3a.5.5,0,0,0-.15-.365.5.5,0,0,0-.365-.15h-.516v-4.3a.5.5,0,0,0-.15-.365.5.5,0,0,0-.365-.15H9.109a.5.5,0,0,0-.365.15.5.5,0,0,0-.15.365v1.031a.5.5,0,0,0,.15.365.5.5,0,0,0,.365.15h.516v2.75H9.109a.5.5,0,0,0-.365.15.5.5,0,0,0-.15.365v1.031a.5.5,0,0,0,.15.365.5.5,0,0,0,.365.15h3.781a.5.5,0,0,0,.365-.15A.5.5,0,0,0,13.406-3.266Z" transform="translate(-0.344 18.906)" fill="#1e5d95"/>
</svg>