<svg xmlns="http://www.w3.org/2000/svg" width="24" height="23.801" viewBox="0 0 24 23.801">
  <g id="Group_993" data-name="Group 993" transform="translate(-34.801 -33)">
    <g id="Group_991" data-name="Group 991" transform="translate(35 33)">
      <rect id="Rectangle_604" data-name="Rectangle 604" width="23.8" height="23.8" fill="none"/>
    </g>
    <path id="Path_679" data-name="Path 679" d="M47.4,364.286h7.933v2.648H47.4Zm0,5.3h7.933v2.638H47.4Zm0,5.286h7.933v2.648H47.4Zm-5.286-10.582h2.638v2.648H42.115Zm0,5.3h2.638v2.638H42.115Zm0,5.286h2.638v2.648H42.115ZM59.43,359H37.99a1.19,1.19,0,0,0-1.19,1.19v21.422a1.289,1.289,0,0,0,1.19,1.19H59.41a1.4,1.4,0,0,0,1.19-1.19V360.19A1.269,1.269,0,0,0,59.43,359Zm-1.448,21.154H39.468V361.648H57.982Z" transform="translate(-2 -326)" fill="#2473C3"/>
  </g>
</svg>
