<svg xmlns="http://www.w3.org/2000/svg" width="24" height="24" viewBox="0 0 24 24">
  <g id="Group_996" data-name="Group 996" transform="translate(-34.801 -380)">
    <path id="Path_240" data-name="Path 240" d="M61.422,470.8H45.4a4,4,0,0,1-4-4v-16a4,4,0,0,1,4-4h16a4,4,0,0,1,4,4v16a4,4,0,0,1-3.978,4ZM45.4,449.467a1.333,1.333,0,0,0-1.333,1.333v16a1.333,1.333,0,0,0,1.333,1.333h16a1.333,1.333,0,0,0,1.333-1.333v-16a1.333,1.333,0,0,0-1.333-1.333Z" transform="translate(-6.6 -66.8)" fill="#65758b"/>
    <path id="Path_413" data-name="Path 413" d="M51.968,463.385l-5.778-4.067,1.556-2.178,3.8,2.667,5.767-6.878,2.022,1.744Z" transform="translate(-6.067 -66.111)" fill="#65758b"/>
  </g>
</svg>
