<svg xmlns="http://www.w3.org/2000/svg" width="24" height="24" viewBox="0 0 24 24">
  <g id="Group_992" data-name="Group 992" transform="translate(-35 -33)">
    <path id="Path_410" data-name="Path 410" d="M50.474,273.758v-2.374H45.716v2.374Zm-11.9,2.384V289.23H57.616V276.142Zm19.042-2.384A2.384,2.384,0,0,1,60,276.142V289.23a2.374,2.374,0,0,1-2.384,2.384H38.574a2.374,2.374,0,0,1-2.384-2.384V276.142a2.365,2.365,0,0,1,2.365-2.384h4.758v-2.374a2.374,2.374,0,0,1,2.4-2.384h4.758a2.374,2.374,0,0,1,2.384,2.384v2.374Z" transform="translate(-1 -236)" fill="#65758b" fill-rule="evenodd"/>
    <g id="Group_991" data-name="Group 991">
      <rect id="Rectangle_604" data-name="Rectangle 604" width="24" height="24" transform="translate(35 33)" fill="none"/>
    </g>
  </g>
</svg>
