<svg xmlns="http://www.w3.org/2000/svg" width="24" height="24" viewBox="0 0 24 24">
  <g id="Group_998" data-name="Group 998" transform="translate(-35 -33)">
    <g id="Group_991" data-name="Group 991">
      <rect id="Rectangle_604" data-name="Rectangle 604" width="24" height="24" transform="translate(35 33)" fill="none"/>
    </g>
    <path id="Path_681" data-name="Path 681" d="M56.82,629h-16a2.29,2.29,0,0,0-2.28,2.29v16a2.29,2.29,0,0,0,2.28,2.28H45.4L48.82,653l3.43-3.43h4.57a2.29,2.29,0,0,0,2.29-2.28v-16A2.3,2.3,0,0,0,56.82,629Zm0,18.29H51.3l-.67.67-1.81,1.81L47,648l-.67-.66H40.82v-16h16Zm-9.14-3.43H50v2.28H47.68Zm1.14-9.15A2.3,2.3,0,0,1,51.11,637c0,2.29-3.43,2-3.43,5.71H50c0-2.57,3.43-2.85,3.43-5.71a4.58,4.58,0,0,0-9.15,0h2.29a2.29,2.29,0,0,1,2.25-2.29Z" transform="translate(-1.539 -596)" fill="#2473C3"/>
  </g>
</svg>
