<svg xmlns="http://www.w3.org/2000/svg" width="24" height="24" viewBox="0 0 24 24">
  <g id="Group_997" data-name="Group 997" transform="translate(-35 -33)">
    <g id="Group_991" data-name="Group 991">
      <rect id="Rectangle_604" data-name="Rectangle 604" width="24" height="24" transform="translate(35 33)" fill="none"/>
    </g>
    <path id="Path_680" data-name="Path 680" d="M52.1,545.55v14.14l-4.6-2-.86-.37-.86.37-4.59,2V545.55H52.1M56.46,539H45.54a2.18,2.18,0,0,0-2.17,2.18H54.28a2.19,2.19,0,0,1,2.18,2.18v14.19l2.18,1.09V541.18A2.19,2.19,0,0,0,56.46,539Zm-4.36,4.36H41.19A2.19,2.19,0,0,0,39,545.55V563l7.63-3.27L54.28,563V545.55a2.19,2.19,0,0,0-2.18-2.19Z" transform="translate(-2 -506)" fill="#65758b"/>
  </g>
</svg>
