<svg id="Layer_1" data-name="Layer 1" xmlns="http://www.w3.org/2000/svg" viewBox="0 0 1863.76 1544.13"><defs><style>.cls-1{fill:#b4cbd3;}.cls-19,.cls-2{fill:#849ba0;}.cls-3{fill:#d1e7f2;}.cls-4{fill:#dbb79e;}.cls-5{fill:#f9cfb3;}.cls-6{fill:#3d3b36;}.cls-7{fill:#bad1dd;}.cls-8{fill:#3d5872;}.cls-9{fill:#39f;}.cls-10{fill:#e4f4ff;}.cls-11{fill:#358ac4;}.cls-12{fill:#455256;}.cls-13{fill:#53666d;}.cls-14{fill:#a7c0c6;}.cls-15{fill:#cee5ef;}.cls-16{fill:#c7dde5;}.cls-17{fill:#fff;}.cls-18{fill:#eb4747;}.cls-19{font-size:78.21px;font-family:GothamBlack, Gotham Black;}.cls-20{fill:#594a42;}.cls-21{fill:#624026;}.cls-22{fill:#c3dced;}.cls-23{fill:#60aeef;}.cls-24{fill:#43aaff;}</style></defs><title>RRS</title><g id="_16" data-name="16"><g id="_11" data-name="11"><rect class="cls-1" x="360.52" y="206.96" width="1042.77" height="661.25"/><rect class="cls-2" x="373.72" y="226.56" width="1016.37" height="622.04"/><rect class="cls-1" x="387.55" y="238.87" width="988.7" height="597.43"/><polygon class="cls-3" points="1093.84 265.12 413.46 265.12 413.46 810.05 1093.84 810.05 1350.34 810.05 1350.34 265.12 1093.84 265.12"/><polygon class="cls-4" points="833.59 520.25 833.59 524.76 833.59 562.09 882.85 607.3 898.56 589.54 924.02 560.74 924.02 514.85 833.59 520.25"/><path class="cls-5" d="M958,442c-.16-3.16-1.85-8.47-6-5.42-1.87,1.37-1,4.77-2.69,5.91-4.18,2.75-4.59-3.46-4.87-6.2-1.05-10.43,3.64-20.46,2.39-30.71-1.74-14.28-15.09-24-27.65-28.82s-23.07-29.11-35.87-24.65c-12.8-4.46-40.93-1.12-53.39,3.69s-20.14,35.5-21.88,49.78c-1.25,10.25,3.45,20.28,2.38,30.71-.27,2.74-.68,8.95-4.87,6.2-1.73-1.14-.82-4.54-2.67-5.91-4.12-3.05-5.82,2.26-6,5.42-.57,11.25,1.05,23.55,6,33.74,2.9,5.92,6.93,7.6,11,11.88,4.47,4.74,3.73,14,5.4,20a34,34,0,0,0,5.17,10.89c5,6.83,13.57,10,19.25,16.24,5.31,5.82,10.22,11.62,17.53,15.38,4.4,2.27,10.55,2.31,16.19,2,5.66.28,11.8.24,16.2-2,7.3-3.76,12.22-9.56,17.54-15.38,5.67-6.22,14.28-9.41,19.24-16.24a34.21,34.21,0,0,0,5.17-10.89c1.67-5.91.92-15.21,5.4-20,4-4.28,8.06-6,11-11.88C957,465.52,958.56,453.22,958,442Z"/><path class="cls-6" d="M802.36,427.84a46.8,46.8,0,0,1,1.74,16.23c0,.79-.09,2-.06,3.29h7.51c.08-1.57,0-3.06,0-4a105.48,105.48,0,0,1,.15-12.06c.3-5.76-.41-11.69.16-17.43,1.28-12.68,11.95-24.83,17.63-35.9,3.61-7.05,10.24-14.08,18.08-12.92,4.62.68,8.29,4.08,12,7A74.21,74.21,0,0,0,893,387c14,2.38,44.23-2.19,48.32,16.07,2.21,9.92,1.76,20.05,1.49,30.11,0,1.43-1.25,9.11-.95,14.16h5.86c1.89-6.08,4.39-14.34,5-17.54,2.47-12.8,1.89-18.43,2.49-23.87,2.12-19.3,3.18-37.79-8.71-54-14.69-20-37.36-32.4-62.33-32.41-20.95,0-51,7.37-62.83,26.05-22.41,5.24-23.35,43-21.6,60.35C800.44,413.11,800.38,421,802.36,427.84Z"/><path class="cls-7" d="M833.59,641.27c-.31-3.32,43.33-49.18,43.33-49.18h5.6L924,638.41l-43.35,116Z"/><path class="cls-8" d="M901.46,689.89l-14.76-67a9.18,9.18,0,0,1,.86-6.28l5.61-10.54a1.75,1.75,0,0,0-.39-1.84l-6.47-6.43c-1.47-1.46-3.24-2.82-4.09-4.73-.6-1.37-2.28-4.44-4.23-3.14-1.7,1.14-2.27,2.93-3.37,4.44a38.35,38.35,0,0,1-4.14,4.12l-5.78,5.74a1.69,1.69,0,0,0-.38,1.84l5.6,10.54a9.13,9.13,0,0,1,.86,6.28l-14.76,67a1.66,1.66,0,0,0,.07,1l20.44,52.53a3.13,3.13,0,0,0,4.41,0l20.45-52.53A1.66,1.66,0,0,0,901.46,689.89Z"/><path class="cls-9" d="M876.14,730.77,842.31,618.48,828.1,571.24l-1.52.47c-3.56,1-13.06,3.91-25.1,7.53-32.33,9.8-82.74,25.1-84.09,26s-18.2,35.29-28.59,56.67v84.9c2.17,8.47,5,15.23,8.46,18.71,43.37,43.61,158,41.69,179.7,44.37Z"/><path class="cls-9" d="M1067.53,659.53c-10.43-21.45-26.11-53.39-27.43-54.28S988.31,589,956,579.24c-12-3.62-21.51-6.46-25.07-7.53l-1.55-.47-19.84,63.94-31.4,101.19v1l-2-6.58L877,809.9l1.16.15c9.7-.72,155.21-.15,182.19-44.52,2.72-4.45,5.18-12.2,7.22-21.54Z"/><path class="cls-10" d="M924.71,547.94l-44.77,40.38a1.8,1.8,0,0,1-2.4,0l-44.76-40.38-10,29.3,19.34,64,35.17-49.46a1.8,1.8,0,0,1,2.93,0l35.16,49.46,19.34-64Z"/><path class="cls-11" d="M936.71,612.57l23.5,9.9L878.12,777.91,797.29,622.47l23.47-9.9-27-13.29a196.92,196.92,0,0,1,7.72-20c12-3.62,21.54-6.49,25.1-7.53l15.73,46.77,12.52,37.13,22.58,74.21,25.23-74.21,6.88-20.43,21.39-63.47c3.56,1.08,13.09,3.91,25.07,7.53a192.72,192.72,0,0,1,7.73,20Z"/><path class="cls-12" d="M973.12,424.07c2.2-26.32,0-60.79-20.06-86.61-14.63-18.85-45.12-34-75.78-34-30,0-61.16,15.11-75.79,34-20,25.82-22.25,60.29-20,86.61C770,430,767,444.91,769.17,461.17c2.61,19.13,11.46,24.21,28.77,22.82l-9.65-62.23-.08,0c-1.84-25,.52-57,18.72-80.39,13.32-17.17,42.58-30.3,70.35-31.26,31,1,57,14.09,70.35,31.26,18.2,23.43,20.55,55.38,18.72,80.39l-.08,0L956.62,484l.39,0-30,34.94a4.65,4.65,0,0,0-6.21,0l-15.35,14.37a4.28,4.28,0,0,0-.1,6.18l3.15,3.13a4.66,4.66,0,0,0,6.39.1l15.35-14.38a4.26,4.26,0,0,0,1.19-4.33L965.83,484c11.32-1.15,17.46-7.45,19.55-22.82C987.6,444.91,984.57,430,973.12,424.07Z"/><path class="cls-13" d="M621.16,764.41a18.49,18.49,0,0,0-18.5,18.49v27.15h526.83V782.9a18.49,18.49,0,0,0-18.5-18.49Z"/><path class="cls-14" d="M910.54,698.56a.91.91,0,0,1,1,1l-1.78,15.85a501.71,501.71,0,0,1,91.18,78.28c2.1,0,4-1.34,4.13-3l16.34-145.57c.24-2.11-1.53-3.83-3.93-3.83H740.15a4,4,0,0,0-3.42,1.69c23.09,4.17,80.52,17.6,146.06,55.6Z"/><path class="cls-1" d="M909.74,715.36l-2.27,20.26a1,1,0,0,1-1,.75H845.86a1,1,0,0,1-1-.75l-4.05-36.11a.9.9,0,0,1,1-1h41c-65.54-38-123-51.43-146.06-55.6a3.14,3.14,0,0,0-.51,2.14l16.34,145.57c.18,1.64,2.06,3,4.17,3h244.19A501.71,501.71,0,0,0,909.74,715.36Z"/><path class="cls-15" d="M841.75,698.56a.9.9,0,0,0-1,1l4.05,36.11a1,1,0,0,0,1,.75h60.57a1,1,0,0,0,1-.75l2.27-20.26q-13.63-9.12-27-16.8Z"/><path class="cls-16" d="M910.54,698.56H882.79q13.29,7.7,27,16.8l1.78-15.85A.91.91,0,0,0,910.54,698.56Z"/><path class="cls-17" d="M709.31,350.43a46.18,46.18,0,1,1-46.18-46.18A46.17,46.17,0,0,1,709.31,350.43Z"/><path class="cls-18" d="M686.2,350.43a23.09,23.09,0,1,1-23.07-23.09A23.08,23.08,0,0,1,686.2,350.43Z"/><text class="cls-19" transform="translate(438.49 380)">REC</text></g><path class="cls-5" d="M588.55,898.87c-.16-3.1-1.83-8.32-5.87-5.33-1.82,1.36-.93,4.69-2.63,5.81-4.11,2.7-4.51-3.39-4.77-6.09-1.06-10.25,3.56-20.09,2.33-30.15-1.7-14-18.6-31.61-30.94-36.35s-28.44-4.67-41-.28c-12.57-4.39-28.75-4.45-41,.28S443,849.08,441.33,863.11c-1.25,10.06,3.37,19.9,2.34,30.15-.29,2.7-.67,8.79-4.78,6.09-1.7-1.12-.81-4.45-2.65-5.81-7.07-5.23-5.35,9.61-4.65,12.14,2.83,10.3,6.56,22.67,15.83,29.1,2.65,1.84,8.58,2.9,10.2,4.65,4.11,4.43,10.58,30,10.34,36.22l-1.56,41.18,48.37,44.4,15.41-17.45,26.37-28.28c0-23.61-9.66-52.68,9.14-71.81C580.54,928.6,589.71,921.57,588.55,898.87Z"/><path class="cls-6" d="M431.94,884.06c1.14,5.26,2.28,10.76,3.07,16.67,2.27,16.88,17,27,24.26,42,3.37,7.07,11.08,15,12.62,22.5,10.92-3.8,4.44-6,13.32,1.89,5.53,4.91,24.51,4.39,31.28,2.22,4.32-1.39,6-6.24,10.9-6.94s9.78,3.37,14.85,3.17c-1.1,0,10.13-2.16,8.13-1.28,14.29-6.24,25.77-31.16,30.7-44.63,3.32-9,9.34-16.37,12.65-25.26s3-19.56,4.29-28.87c2.7-21.61,4.39-46.62-7.66-66-13.28-21.39-47.84-44.29-73.63-44s-65.37,23.91-78.78,45.7C422.71,826.14,426,856.92,431.94,884.06Z"/><path class="cls-10" d="M555.86,1002.93l-31,5.71a82.48,82.48,0,0,1-30.77-.16l-28.51-5.55-9.83,28.78,19,62.88H546.7l19-62.88Z"/><path class="cls-9" d="M689,1169.45c-21.7,22-61.67,36.84-98.58,46.38A583.58,583.58,0,0,1,528,1228.22a118.16,118.16,0,0,1-34-.11c-38.18-5.71-125.25-22.19-161.51-58.66a47.17,47.17,0,0,1-8.65-53.91c10.16-20.92,27.06-55.41,28.41-56.33s50.84-15.91,82.59-25.54c11.81-3.55,21.13-6.37,24.64-7.4l1.5-.46h99.44l1.51.46c3.51,1,12.86,3.85,24.62,7.4,31.75,9.63,81.25,24.64,82.61,25.54s18.27,35.47,28.43,56.4A47.29,47.29,0,0,1,689,1169.45Z"/><path class="cls-5" d="M1129.2,878.73c-.16-3.11-1.81-8.32-5.87-5.33-1.82,1.35-.93,4.69-2.63,5.8-4.11,2.71-4.51-3.38-4.78-6.08-1-10.25,3.57-20.09,2.34-30.15-1.7-14-18.61-31.6-30.93-36.36s-28.44-4.66-41-.28c-12.57-4.38-28.77-4.43-41,.28S983.68,828.94,982,843c-1.23,10.06,3.37,19.9,2.33,30.15-.26,2.7-.66,8.79-4.77,6.08-1.7-1.11-.81-4.45-2.65-5.81-7.08-5.22-5.36,9.62-4.65,12.16,2.84,10.29,6.56,22.67,15.83,29.08,2.65,1.85,8.6,2.91,10.22,4.65,4.08,4.44,10.56,30,10.33,36.23L1007,996.69l48.38,44.4,15.41-17.44,26.37-28.29c0-23.61-9.64-52.69,9.14-71.8C1121.19,908.46,1130.35,901.43,1129.2,878.73Z"/><path class="cls-20" d="M972.59,863.92c1.16,5.26,2.28,10.75,3.07,16.67,2.26,16.88,17,27,24.26,42,3.39,7.06,11.07,15,12.64,22.5,10.89-3.8,4.42-6,13.3,1.89,5.53,4.91,24.5,4.39,31.28,2.22,4.32-1.39,6-6.24,10.92-6.94s9.77,3.38,14.85,3.17c-1.13,0,10.11-2.15,8.11-1.29,14.29-6.23,25.78-31.15,30.7-44.62,3.31-9,9.34-16.36,12.65-25.26s3-19.56,4.3-28.87c5.74-42.37,1-84.23-53.39-93.27-24.93-4.14-53.91-5.44-77.67,4-20.14,8-32.69,28.59-39.59,48.16S968.83,846.78,972.59,863.92Z"/><path class="cls-10" d="M1096.53,982.79l-31,5.72a83,83,0,0,1-30.75-.16l-28.52-5.56-9.82,28.78,19,62.88h71.93l19-62.88Z"/><path class="cls-9" d="M1229.69,1149.31c-21.7,22-61.65,36.84-98.58,46.38a583.19,583.19,0,0,1-62.42,12.38,118.23,118.23,0,0,1-34-.09c-38.18-5.72-125.24-22.21-161.5-58.67a47.19,47.19,0,0,1-8.64-53.9c10.17-20.93,27.05-55.42,28.4-56.34s50.84-15.91,82.59-25.53c11.81-3.56,21.15-6.38,24.64-7.41l1.5-.46h99.43l1.53.46c3.49,1,12.85,3.85,24.61,7.41,31.75,9.62,81.25,24.64,82.62,25.53s18.26,35.46,28.44,56.39A47.33,47.33,0,0,1,1229.69,1149.31Z"/><path class="cls-5" d="M1354.82,949.63c-.16-3-1.77-8.09-5.71-5.17-1.77,1.3-.91,4.54-2.56,5.63-4,2.63-4.37-3.29-4.63-5.91-1-9.95,3.46-19.5,2.26-29.28-1.65-13.62-18.06-30.69-30-35.3s-27.61-4.53-39.81-.27c-12.2-4.26-27.92-4.31-39.81.27s-21,21.68-22.68,35.3c-1.19,9.78,3.29,19.33,2.29,29.28-.27,2.62-.65,8.54-4.66,5.91-1.65-1.09-.77-4.33-2.56-5.64-6.88-5.08-5.2,9.34-4.53,11.79,2.78,10,6.39,22,15.38,28.26,2.58,1.79,8.35,2.82,9.92,4.51,4,4.31,10.28,29.11,10,35.17l-1.53,40,47,43.11,15-16.93,25.59-27.47c0-22.93-9.37-51.16,8.88-69.73C1347,978.5,1355.94,971.67,1354.82,949.63Z"/><path class="cls-21" d="M1201.32,935.72c5.53,15.82,13.66,31,24.89,43.27,11.09,12.11,19.83,22.41,20.87,40l60.65,2c13.41.42,26.52-34.44,31.06-43.65,11.36-23,22.86-35.58,25.46-61.92,4.16-42-4.38-80.71-52.08-88.64-24.23-4-52.36-5.29-75.45,3.87-19.55,7.78-31.73,27.77-38.44,46.78C1192.14,894.77,1194.32,915.75,1201.32,935.72Z"/><path class="cls-10" d="M1323.07,1050.68l-30.11,5.54a80,80,0,0,1-29.87-.14l-27.68-5.4-9.55,28,18.45,61.06h69.86l18.44-61.06Z"/><path class="cls-22" d="M1452.4,1212.38c-21.07,21.33-59.88,35.79-95.74,45a566.36,566.36,0,0,1-60.61,12,114.6,114.6,0,0,1-33-.1c-37.07-5.56-121.63-21.55-156.84-57a45.82,45.82,0,0,1-8.41-52.34c9.89-20.32,26.28-53.81,27.6-54.7s49.37-15.46,80.2-24.81c11.48-3.44,20.53-6.18,23.92-7.18l1.46-.45h96.57l1.48.45c3.39,1,12.48,3.74,23.91,7.18,30.82,9.35,78.9,23.94,80.21,24.81s17.75,34.44,27.61,54.76A45.9,45.9,0,0,1,1452.4,1212.38Z"/><path class="cls-5" d="M900.08,927.24c-.16-3-1.79-8.17-5.76-5.23-1.79,1.33-.91,4.6-2.58,5.7-4,2.65-4.43-3.33-4.69-6-1-10.05,3.49-19.72,2.28-29.6-1.66-13.77-18.25-31-30.36-35.68s-27.91-4.58-40.25-.28c-12.34-4.3-28.24-4.36-40.25.28s-21.24,21.91-22.92,35.68c-1.2,9.88,3.31,19.55,2.29,29.6-.26,2.65-.64,8.63-4.68,6-1.67-1.1-.79-4.37-2.6-5.7-6.95-5.14-5.25,9.44-4.56,11.92,2.77,10.11,6.44,22.25,15.53,28.55,2.62,1.82,8.44,2.86,10,4.58,4,4.35,10.39,29.41,10.15,35.55L780.15,1043l47.5,43.59,15.13-17.12,25.88-27.77c0-23.17-9.46-51.71,9-70.49C892.21,956.42,901.22,949.52,900.08,927.24Z"/><path class="cls-21" d="M746.33,912.69c1.14,5.18,2.25,10.57,3,16.38,2.23,16.56,16.73,26.47,23.82,41.27,3.32,6.93,10.86,14.72,12.39,22.08,10.73-3.73,4.35-5.88,13.08,1.86,5.42,4.82,24.05,4.31,30.7,2.18,4.25-1.36,5.91-6.13,10.7-6.81s9.61,3.31,14.59,3.11c-1.1,0,9.94-2.12,8-1.26,14-6.12,25.3-30.59,30.14-43.81,3.25-8.88,9.16-16.06,12.43-24.8s3-19.2,4.19-28.34C915,853,910.36,811.87,857,803c-24.47-4.07-52.93-5.35-76.25,3.91C761,814.77,748.63,835,741.86,854.19S742.66,895.88,746.33,912.69Z"/><path class="cls-10" d="M868,1029.39,837.55,1035a80.87,80.87,0,0,1-30.19-.16l-28-5.45-9.65,28.26,18.64,61.72H859l18.64-61.72Z"/><path class="cls-23" d="M998.72,1192.86C977.43,1214.42,938.2,1229,902,1238.4a570.72,570.72,0,0,1-61.27,12.15,116.37,116.37,0,0,1-33.39-.09c-37.49-5.62-123-21.8-158.55-57.6a46.32,46.32,0,0,1-8.5-52.91c10-20.54,26.57-54.4,27.89-55.31s49.92-15.62,81.08-25.07c11.6-3.49,20.76-6.25,24.19-7.26l1.47-.46h97.61l1.49.46c3.44,1,12.63,3.77,24.18,7.26,31.17,9.45,79.76,24.19,81.09,25.07s17.94,34.82,27.93,55.36A46.48,46.48,0,0,1,998.72,1192.86Z"/><path class="cls-5" d="M710.91,1014.38c-.18-3.49-2-9.35-6.58-6-2.06,1.52-1.06,5.27-3,6.52-4.62,3-5.08-3.81-5.37-6.83-1.18-11.51,4-22.56,2.63-33.86-1.93-15.76-20.91-35.49-34.76-40.83s-31.92-5.22-46-.31c-14.11-4.91-32.29-5-46,.31s-24.29,25.07-26.22,40.83c-1.37,11.3,3.81,22.35,2.63,33.86-.3,3-.75,9.87-5.37,6.83-1.91-1.25-.9-5-3-6.53-8-5.86-6,10.81-5.23,13.65,3.2,11.56,7.39,25.45,17.78,32.67,3,2.07,9.66,3.26,11.47,5.22,4.59,5,11.88,33.66,11.62,40.67l-1.78,46.24,54.33,49.86,17.32-19.58,29.6-31.76c0-26.51-10.83-59.16,10.27-80.64C701.92,1047.76,712.21,1039.87,710.91,1014.38Z"/><path class="cls-21" d="M535,997.77c5.77,21,20.48,35.5,31.19,53.67,7,11.9,8.69,29.06,19.8,38.14,7.18,5.83,16.73,7.57,25.85,9.11,11.41,1.92,23.28,3.82,34.41.6,26.33-7.63,39.37-43.71,49.85-66.09,12.9-27.61,25.92-93.71,9.78-120.56-19-31.58-59.21-38.11-92.82-38.58-14.85-.21-36.09,2.35-49.64,8.65-3.76,1.75-29.56,21-29.88,20.47,8.55,16,1.62,26.79-3.16,41.73-4.25,13.32.33,28.34,2.51,42.77A83.48,83.48,0,0,0,535,997.77Z"/><path class="cls-10" d="M674.21,1131.23l-34.81,6.41a92.71,92.71,0,0,1-34.55-.17l-32-6.24-11,32.32,21.34,70.61h80.78l21.33-70.61Z"/><path class="cls-22" d="M823.86,1318.11c-53.18,54-135.12,54.05-205,55.88-67.88,1.78-147.72-5-197.15-57.52-14.78-15.72-17.49-39.28-8.06-58.69,11.41-23.5,30.42-62.31,32-63.35s57.08-17.87,92.73-28.68c13.29-4,23.75-7.15,27.68-8.31l1.67-.51H679.35l1.7.51c3.93,1.19,14.45,4.32,27.65,8.31,35.65,10.81,91.25,27.68,92.76,28.68s20.52,39.82,31.93,63.32A53,53,0,0,1,823.86,1318.11Z"/><path class="cls-5" d="M1118.82,1018.35c-.19-3.49-2.18-9.33-7-6-2.18,1.52-1.11,5.26-3.14,6.51-4.92,3-5.39-3.81-5.71-6.83-1.25-11.49,4.27-22.53,2.79-33.81-2-15.74-22.22-35.45-37-40.78s-34-5.22-48.95-.31c-15-4.91-34.35-5-49,.31s-25.83,25-27.87,40.78c-1.46,11.28,4,22.32,2.79,33.81-.31,3-.79,9.86-5.7,6.83-2-1.25-1-5-3.16-6.52-8.45-5.85-6.39,10.79-5.55,13.63,3.39,11.55,7.83,25.42,18.89,32.62,3.17,2.07,10.27,3.27,12.2,5.22,4.89,5,12.64,33.62,12.35,40.62L973,1150.64l57.76,49.8,18.42-19.56,31.47-31.73c0-26.48-11.52-59.08,10.92-80.53C1109.27,1051.69,1120.21,1043.81,1118.82,1018.35Z"/><path class="cls-6" d="M931.79,1001.74c8.53,36.61,29,67.36,67.07,81,24.79,8.9,44,15.82,66,1.25,43.27-28.58,55.57-77.35,60.57-125.51,2.6-25.14,3.9-38.2-7.67-60.71-13.25-25.78-17.57-24.55-43.74-25.84-14.5-.71-27.26-7.72-41.77-8.68-42.91-2.84-78.59,21.05-98.93,57.3C917.86,948.17,925,972.63,931.79,1001.74Z"/><path class="cls-10" d="M1079.8,1135.05l-37,6.41a104.72,104.72,0,0,1-36.74-.17l-34-6.24-11.73,32.28,22.68,70.52h85.91l22.68-70.52Z"/><path class="cls-24" d="M1238.81,1321.82c-56,53.21-146.88,59.57-219.9,59.07-69.4-.46-152.8-9.08-205.83-59.07a50.55,50.55,0,0,1-10.34-60.45c12.15-23.48,32.32-62.16,33.93-63.19s60.72-17.85,98.63-28.64c14.12-4,25.25-7.15,29.42-8.3l1.79-.52h118.75l1.83.52c4.15,1.18,15.34,4.31,29.38,8.3,37.91,10.79,97,27.63,98.65,28.64s21.83,39.77,34,63.25A50.65,50.65,0,0,1,1238.81,1321.82Z"/></g></svg>