<svg xmlns="http://www.w3.org/2000/svg" viewBox="0 0 1863.76 1544.13"><defs><style>.cls-1{isolation:isolate;}.cls-2{fill:#e4eff4;}.cls-3{fill:#ccdee5;}.cls-4{fill:#39f;}.cls-5{fill:#b4cbd3;}.cls-6{fill:#8dbacc;}.cls-7{fill:#a6d2e0;}.cls-8{fill:#ddd;opacity:0.4;mix-blend-mode:multiply;}.cls-9{fill:#61a200;}.cls-10{fill:#fff;}.cls-11{fill:#43a7f9;}</style></defs><title>RRS</title><g class="cls-1"><g id="Layer_1" data-name="Layer 1"><rect class="cls-2" x="652.38" y="305.85" width="656.26" height="909.2"/><rect class="cls-3" x="621.38" y="275.85" width="656.26" height="909.2"/><rect class="cls-2" x="587.75" y="241.78" width="656.26" height="909.2"/><rect class="cls-4" x="659.45" y="627.81" width="31.62" height="31.62"/><rect class="cls-5" x="720.78" y="627.81" width="451.53" height="31.62"/><rect class="cls-4" x="659.45" y="714.81" width="31.62" height="31.62"/><rect class="cls-5" x="720.78" y="714.81" width="451.53" height="31.62"/><rect class="cls-4" x="659.45" y="801.81" width="31.62" height="31.62"/><rect class="cls-5" x="720.78" y="801.81" width="451.53" height="31.62"/><rect class="cls-4" x="659.45" y="888.81" width="31.62" height="31.62"/><rect class="cls-5" x="720.78" y="888.81" width="451.53" height="31.62"/><rect class="cls-4" x="659.45" y="975.81" width="31.62" height="31.62"/><rect class="cls-5" x="720.78" y="975.81" width="451.53" height="31.62"/><rect class="cls-6" x="659.45" y="320.24" width="512.86" height="217.15"/><rect class="cls-7" x="699.88" y="445.25" width="302.08" height="20.62"/><rect class="cls-7" x="699.88" y="390.6" width="426.25" height="36"/><circle class="cls-8" cx="1210.49" cy="1119.45" r="154.7"/><circle class="cls-9" cx="1216.23" cy="1095.68" r="154.7"/><path class="cls-10" d="M1190.28,1152.12a14.14,14.14,0,0,1-10.64-4.81L1134.53,1096a14.17,14.17,0,0,1,21.28-18.71L1191.6,1118l86.38-75.29a14.16,14.16,0,0,1,18.61,21.36l-97,84.55A14.14,14.14,0,0,1,1190.28,1152.12Z"/><path class="cls-8" d="M899,303.13C803.87,240.5,676,266.84,613.36,362a206.61,206.61,0,0,0-19.71,37.94V550.76a205.12,205.12,0,0,0,49.48,73.72l-3.19-2.1-52.19,70.29V838.79L708.06,667.23l-3.19-2.1c90,38.38,197.23,8.2,252.92-76.38C1020.42,493.64,994.09,365.77,899,303.13Zm17.69,258.54A157,157,0,1,1,871.9,344.26,157,157,0,0,1,916.67,561.67Z"/><path class="cls-11" d="M613.13,614.48l-3.19-2.1-153.45,233a40.78,40.78,0,0,0,11.63,56.49h0a40.78,40.78,0,0,0,56.48-11.63l153.46-233-3.19-2.1c90,38.38,197.23,8.2,252.92-76.38,62.63-95.11,36.3-223-58.81-285.62S646,256.84,583.36,352C527.67,436.52,542.33,547,613.13,614.48ZM624.49,379a157,157,0,1,1,44.77,217.41A157,157,0,0,1,624.49,379Z"/></g></g></svg>