<svg id="Layer_1" data-name="Layer 1" xmlns="http://www.w3.org/2000/svg" viewBox="0 0 1863.76 1544.13"><defs><style>.cls-1{fill:#dbb79e;}.cls-2{fill:#f9cfb3;}.cls-3{fill:#ededed;}.cls-4{fill:#43a7f9;}.cls-5{fill:#53666d;}</style></defs><title>RRS</title><path class="cls-1" d="M943.91,895.36l-33.73-4.23-49-13.61L783,804.43a36.17,36.17,0,0,0-39.47-6.57l-25.4-23.73a36.16,36.16,0,0,0-51.1,1.74l-.5.54a36,36,0,0,0-7.37,11.89,39.2,39.2,0,0,0-32.71,16.91l-.45.65a39.26,39.26,0,0,0,9.95,54.62L762.43,948c.39.26.82.41,1.21.66a37.7,37.7,0,0,0,3.69,2c1.12.56,2.24,1.11,3.39,1.56s2.28.75,3.45,1.08a37,37,0,0,0,4.23,1c.44.07.84.25,1.29.3l152.56,19.86a39.24,39.24,0,0,0,44-33.85l.1-.79C979.14,918.38,965.41,898.16,943.91,895.36Z"/><path class="cls-2" d="M1265.85,781.41l-67.6-14.85a203.76,203.76,0,0,0-73.23,2.57L1062,783a72.71,72.71,0,0,1-23.72,1.22L892.77,767.73a41,41,0,0,0-45.52,35.93l-.1.82A41,41,0,0,0,883.09,850l97.74,11.5-95,33.84-108.56,6.18-134.77-67a41,41,0,0,0-55,18.47l-.37.75a41,41,0,0,0,18.48,55S768,984.57,768.48,984.57c0,0,78.94,15.77,117,18.87,7.16.59,17.14-.28,27.35-.51,42.21-.92,160.12-6.63,254.68-39.37l102.39-22.45Z"/><path class="cls-3" d="M1378.69,766.2l1.25,287.85h-115l.71-287.85Z"/><polygon class="cls-4" points="1688.91 755.89 1688.91 1095.52 1332.38 1075.52 1332.38 755.89 1688.91 755.89"/><path class="cls-3" d="M1447.36,822.6a23.06,23.06,0,1,1,29.19,14.57A23.05,23.05,0,0,1,1447.36,822.6Z"/><path class="cls-3" d="M1373.21,822.61a23.07,23.07,0,1,1,29.19,14.56A23.06,23.06,0,0,1,1373.21,822.61Z"/><path class="cls-1" d="M919.86,558.77,953.58,563l49,13.61,78.24,73.09a36.15,36.15,0,0,0,39.47,6.57l25.4,23.73a36.16,36.16,0,0,0,51.1-1.74l.5-.54a36,36,0,0,0,7.37-11.89,39.19,39.19,0,0,0,32.71-16.91l.45-.65a39.26,39.26,0,0,0-9.94-54.61l-126.52-87.55c-.39-.26-.81-.41-1.2-.66a39.06,39.06,0,0,0-3.7-2c-1.12-.56-2.23-1.11-3.39-1.56s-2.28-.75-3.45-1.08a37,37,0,0,0-4.23-1c-.44-.07-.84-.24-1.29-.3L931.51,479.62a39.24,39.24,0,0,0-44,33.85l-.1.79C884.62,535.75,898.36,556,919.86,558.77Z"/><path class="cls-2" d="M597.91,672.72l67.6,14.85A203.53,203.53,0,0,0,738.74,685l63.07-13.83A72.72,72.72,0,0,1,825.53,670L971,686.4a41,41,0,0,0,45.53-35.93l.09-.82a41,41,0,0,0-35.93-45.53l-97.75-11.5,95-33.84,108.56-6.18,134.78,67a41,41,0,0,0,55-18.48l.37-.74a41,41,0,0,0-18.48-55s-162.32-75.81-162.79-75.8c0,0-78.94-15.77-117-18.88-7.16-.58-17.13.28-27.35.51-42.21.92-160.12,6.63-254.67,39.37L593.89,513Z"/><path class="cls-3" d="M485.08,777.93l-1.26-287.85h115l-.7,287.85Z"/><polygon class="cls-5" points="174.85 788.24 174.85 448.62 531.38 468.62 531.38 788.24 174.85 788.24"/><path class="cls-3" d="M416.4,721.53A23.06,23.06,0,1,1,387.21,707,23.06,23.06,0,0,1,416.4,721.53Z"/><path class="cls-3" d="M490.56,721.52A23.07,23.07,0,1,1,461.37,707,23.08,23.08,0,0,1,490.56,721.52Z"/></svg>