<?xml version="1.0" encoding="utf-8"?>
<!-- Generator: Adobe Illustrator 23.0.3, SVG Export Plug-In . SVG Version: 6.00 Build 0)  -->
<svg version="1.1" id="Layer_1" xmlns="http://www.w3.org/2000/svg" xmlns:xlink="http://www.w3.org/1999/xlink" x="0px" y="0px"
	 viewBox="0 0 1863.8 1544.1" style="enable-background:new 0 0 1863.8 1544.1;" xml:space="preserve">
<style type="text/css">
	.st0{fill:#53666D;}
	.st1{fill:#E4EFF4;}
	.st2{fill:#FFBB00;}
	.st3{fill:#3399FF;}
	.st4{fill:#EF7575;}
	.st5{fill:#3073AA;}
	.st6{fill:#B4CBD3;}
	.st7{fill:#7C8E93;}
	.st8{opacity:5.000000e-02;}
	.st9{fill:#F7CC77;}
	.st10{fill:#8EAAB2;}
	.st11{opacity:0.28;}
	.st12{fill:#231F20;}
	.st13{fill:#F9CFB3;}
	.st14{fill:#3C3C3B;}
</style>
<title>RRS</title>
<g>
	<g>
		<path class="st0" d="M915.4,362.1l568.8,45.5c14.1,1.1,24.6,13.5,23.5,27.5l-61.4,768.1c-1.1,14.1-13.5,24.6-27.5,23.5
			l-568.8-45.5c-14.1-1.1-24.6-13.5-23.5-27.5l61.4-768.1C889,371.5,901.3,361,915.4,362.1z"/>
		<path class="st1" d="M946,400.3l498.6,37.5c10.7,0.8,18.7,10.1,17.9,20.8l-50.5,671.4c-0.8,10.7-10.1,18.7-20.8,17.9l-498.6-37.5
			c-10.7-0.8-18.7-10.1-17.9-20.8l50.5-671.4C926,407.5,935.4,399.5,946,400.3z"/>
		<path class="st2" d="M1105.4,733.2c-25.3,23-60.2,30.2-91.5,18.7s-54.3-39.8-60.3-74.3s5.8-70,31.1-93s60.2-30.2,91.5-18.7
			s54.3,39.8,60.3,74.3S1130.7,710.1,1105.4,733.2z"/>
		<path class="st3" d="M1105.4,733.2c-25.3,23-60.2,30.2-91.5,18.7s-54.3-39.8-60.3-74.3s5.8-70,31.1-93
			c19.8-18,45.4-26.3,70.6-23.5l-10.3,97.9L1105.4,733.2z"/>
		<path class="st4" d="M1105.4,733.2c-25.3,23-60.2,30.2-91.5,18.7s-54.3-39.8-60.3-74.3c-0.6-3.4-1-6.8-1.3-10.2l92.7-8.5
			L1105.4,733.2z"/>
		<polygon class="st5" points="1286,588.3 1274.6,737.9 1241.2,735.4 1252.6,585.8 		"/>
		
			<rect x="1201.6" y="619.1" transform="matrix(7.584888e-02 -0.9971 0.9971 7.584888e-02 572.617 1889.6072)" class="st3" width="208.1" height="33.5"/>
		
			<rect x="1234.8" y="614.8" transform="matrix(7.584888e-02 -0.9971 0.9971 7.584888e-02 614.3855 1926.067)" class="st4" width="222.9" height="33.5"/>
		
			<rect x="1293.6" y="638.2" transform="matrix(7.602295e-02 -0.9971 0.9971 7.602295e-02 626.3401 1985.8151)" class="st2" width="182" height="33.5"/>
		<path class="st6" d="M1191.8,972.7l-65.3-4.9c-2.7-0.5-4.6-3-4.1-5.8c0.4-2.4,2.4-4.1,4.9-4.2l65.3,4.9c2.7,0.5,4.6,3,4.1,5.8
			C1196.2,970.9,1194.2,972.6,1191.8,972.7z"/>
		<path class="st6" d="M1218.2,997.8l-93.4-7c-2.7-0.5-4.6-3-4.1-5.8c0.4-2.4,2.4-4.1,4.9-4.2l93.4,7c2.7,0.5,4.6,3,4.1,5.8
			C1222.6,996,1220.6,997.7,1218.2,997.8L1218.2,997.8z"/>
		<path class="st6" d="M1242.4,476.3l-269.1-20.2c-2.7-0.5-4.6-3-4.1-5.8c0.4-2.4,2.4-4.1,4.9-4.2l269.1,20.2c2.7,0.4,4.6,3,4.2,5.7
			C1247,474.5,1244.9,476.3,1242.4,476.3z"/>
		<path class="st6" d="M1190.7,504.3L971,487.7c-2.7-0.5-4.6-3-4.1-5.8c0.4-2.4,2.4-4.1,4.9-4.2l219.7,16.5c2.7,0.5,4.6,3,4.1,5.8
			C1195.2,502.5,1193.1,504.2,1190.7,504.3L1190.7,504.3z"/>
		<path class="st6" d="M1160.5,533.8l-191.9-14.4c-2.7-0.5-4.6-3-4.1-5.8c0.4-2.4,2.4-4.1,4.9-4.2l191.9,14.4c2.7,0.4,4.6,3,4.2,5.7
			C1165.1,532,1163,533.8,1160.5,533.8z"/>
		<path class="st6" d="M1253.4,1023.5l-130.4-9.8c-2.7-0.5-4.6-3-4.1-5.8c0.4-2.4,2.4-4.1,4.9-4.2l130.4,9.8c2.7,0.4,4.6,3,4.2,5.7
			C1257.9,1021.7,1255.8,1023.5,1253.4,1023.5L1253.4,1023.5z"/>
		<path class="st6" d="M1251.7,1046.5l-130.4-9.8c-2.7-0.5-4.6-3-4.1-5.8c0.4-2.4,2.4-4.1,4.8-4.2l130.4,9.8c2.7,0.5,4.6,3,4.1,5.8
			C1256.1,1044.7,1254.1,1046.4,1251.7,1046.5z"/>
		<polygon class="st3" points="998.4,1052.3 992.3,1050.8 991.9,1042.6 1035.5,966.8 1091.6,954.8 1122.8,905 1176.2,903.1 
			1249.8,857.9 1255.7,868.7 1179.5,915.5 1129.2,917.3 1098.7,966 1042.8,978 		"/>
		<polygon class="st5" points="1274.2,1074.3 989.2,1052.8 1005,842.7 1008.9,843 993.4,1048.9 1274.5,1070.1 		"/>
		<polygon class="st5" points="998.6,844.2 1009.2,812.3 1015,845.4 		"/>
		<polygon class="st5" points="1272.6,1080.4 1302.5,1074.3 1273.8,1063.8 		"/>
		<circle class="st7" cx="1196.9" cy="398.6" r="6.8"/>
		<path class="st7" d="M1085.4,1139.4l104.3,7.8c8.7,0.7,15.3,8.3,14.6,17l0,0c-0.7,8.7-8.3,15.3-17,14.6L1083,1171
			c-8.7-0.7-15.3-8.3-14.6-17l0,0C1069.1,1145.3,1076.7,1138.8,1085.4,1139.4z"/>
		<path class="st8" d="M915.4,362.1c-14.1-1.1-26.4,9.4-27.5,23.5l-49.8,622.6L1030,1041c3.9,0.7,7.5-1.5,8.1-4.9l112.2-655.2
			L915.4,362.1z"/>
		<path class="st1" d="M1015.1,1022.1c3.9,0.7,7.5-1.5,8.1-4.9L1140.5,332c0.6-3.4-2.1-6.6-6-7.3l-457.8-78.4
			c-3.9-0.7-7.5,1.5-8.1,4.9L551.3,936.5c-0.6,3.4,2.1,6.6,6,7.3L1015.1,1022.1z"/>
		<path class="st9" d="M881.1,506.7l79.9-56.6l16.5-96.5c-54.4-7.5-104.5,30.5-111.9,84.9C862.3,462.4,867.8,486.6,881.1,506.7
			L881.1,506.7z"/>
		<path class="st6" d="M984,354.8l-16.2,94.6l94.6,16.2C1069.6,413.7,1035.3,365.3,984,354.8z"/>
		<path class="st4" d="M971.2,456.6l37.2,52.5l15.6,22.1c19.2-14.5,32.5-35.6,37.3-59.2L971.2,456.6z"/>
		<path class="st3" d="M963.2,456.6l-78.4,55.5c31.6,41.7,90.1,51.7,133.8,22.9L963.2,456.6z"/>
		
			<rect x="900.9" y="664.4" transform="matrix(0.1692 -0.9856 0.9856 0.1692 150.1954 1569.167)" class="st3" width="209.9" height="62.2"/>
		
			<rect x="833.7" y="672.8" transform="matrix(0.1687 -0.9857 0.9857 0.1687 70.6465 1491.39)" class="st3" width="171.6" height="61.9"/>
		
			<rect x="783.2" y="693.1" transform="matrix(0.1687 -0.9857 0.9857 0.1687 -19.7067 1424.7472)" class="st3" width="103.1" height="61.9"/>
		
			<rect x="688.6" y="661" transform="matrix(0.1687 -0.9857 0.9857 0.1687 -50.994 1323.4037)" class="st3" width="140.9" height="61.9"/>
		
			<rect x="592.6" y="627.2" transform="matrix(0.1687 -0.9857 0.9857 0.1687 -80.4063 1220.9376)" class="st3" width="182" height="61.9"/>
		<polygon class="st4" points="724.8,391 793.3,308.5 830.5,409.1 806.1,405 784.8,529 726.9,519.1 748.1,395 		"/>
		
			<rect x="810.9" y="629.6" transform="matrix(0.1687 -0.9857 0.9857 0.1687 -128.6819 1488.7777)" class="st6" width="14.7" height="382.2"/>
		
			<rect x="805.3" y="662.5" transform="matrix(0.1687 -0.9857 0.9857 0.1687 -165.8369 1510.5985)" class="st6" width="14.7" height="382.2"/>
		
			<rect x="799.6" y="695.5" transform="matrix(0.1687 -0.9857 0.9857 0.1687 -203.029 1532.4613)" class="st6" width="14.7" height="382.2"/>
		
			<rect x="794" y="728.4" transform="matrix(0.1687 -0.9857 0.9857 0.1687 -240.1952 1554.2887)" class="st6" width="14.7" height="382.2"/>
		<path class="st8" d="M1023.2,371.9l-364.6-62.3L551.3,936.5c-0.6,3.4,2.1,6.6,6,7.3l357.8,61.2L1023.2,371.9z"/>
		
			<rect x="360.3" y="453.9" transform="matrix(0.1683 -0.9857 0.9857 0.1683 -86.9968 1275.1135)" class="st1" width="703.6" height="470.5"/>
		
			<rect x="719.9" y="311.9" transform="matrix(0.1683 -0.9857 0.9857 0.1683 189.0453 1074.8649)" class="st6" width="23.3" height="227"/>
		
			<rect x="705.8" y="394.5" transform="matrix(0.1683 -0.9857 0.9857 0.1683 95.9305 1129.6401)" class="st6" width="23.3" height="227"/>
		
			<rect x="691.7" y="477.1" transform="matrix(0.1683 -0.9857 0.9857 0.1683 2.8158 1184.4154)" class="st6" width="23.3" height="227"/>
		
			<rect x="677.6" y="559.6" transform="matrix(0.1683 -0.9857 0.9857 0.1683 -90.3073 1239.1808)" class="st6" width="23.3" height="227"/>
		
			<rect x="663.5" y="642.2" transform="matrix(0.1683 -0.9857 0.9857 0.1683 -183.422 1293.9561)" class="st6" width="23.3" height="227"/>
		<circle class="st3" cx="575.3" cy="881.2" r="86.7"/>
		
			<rect x="569.1" y="387.9" transform="matrix(0.1683 -0.9857 0.9857 0.1683 89.0661 904.9068)" class="st3" width="23.3" height="23.6"/>
		
			<rect x="555.1" y="470.4" transform="matrix(0.1683 -0.9857 0.9857 0.1683 -4.0486 959.6821)" class="st3" width="23.3" height="23.6"/>
		
			<rect x="541" y="553" transform="matrix(0.1683 -0.9857 0.9857 0.1683 -97.1568 1014.4684)" class="st3" width="23.3" height="23.6"/>
		
			<rect x="526.9" y="635.6" transform="matrix(0.1683 -0.9857 0.9857 0.1683 -190.2798 1069.2339)" class="st3" width="23.3" height="23.6"/>
		
			<rect x="512.8" y="718.1" transform="matrix(0.1683 -0.9857 0.9857 0.1683 -283.3946 1124.0092)" class="st3" width="23.3" height="23.6"/>
		
			<rect x="910.2" y="428.7" transform="matrix(0.1683 -0.9857 0.9857 0.1683 315.3405 1289.5511)" class="st10" width="23.3" height="58.4"/>
		
			<rect x="896.1" y="511.3" transform="matrix(0.1683 -0.9857 0.9857 0.1683 222.2146 1344.333)" class="st10" width="23.3" height="58.4"/>
		
			<rect x="882" y="593.8" transform="matrix(0.1683 -0.9857 0.9857 0.1683 129.0915 1399.0984)" class="st10" width="23.3" height="58.4"/>
		
			<rect x="870.5" y="680.8" transform="matrix(0.1692 -0.9856 0.9856 0.1692 32.9888 1459.3546)" class="st10" width="23.4" height="58.7"/>
		
			<rect x="853.8" y="759" transform="matrix(0.1683 -0.9857 0.9857 0.1683 -57.1313 1508.66)" class="st10" width="23.3" height="58.4"/>
		<g class="st11">
			<path class="st12" d="M570,922.2c-4.1-0.9-7.9-2.4-11.5-4.5c-2.9-1.7-5.3-4-7.3-6.8c-1.8-2.5-3.1-5.4-3.7-8.4
				c-0.7-3.2-0.8-6.5-0.4-9.7l15.8,2.7c-0.1,1.5,0,3,0.2,4.5c0.1,1.4,0.6,2.7,1.2,3.9c0.7,1.3,1.7,2.5,2.9,3.5c1.5,1.1,3.2,2,5,2.5
				l3.5-20.6c-3.7-1.2-7.2-2.7-10.6-4.6c-2.7-1.5-5.1-3.5-7-5.9c-1.8-2.1-3-4.6-3.5-7.3c-0.6-3.1-0.6-6.3,0-9.4
				c0.9-5.9,4.4-11.1,9.5-14.3c2.7-1.6,5.6-2.7,8.7-3.3c3.5-0.7,7.1-0.9,10.7-0.5l1.6-9.5l7.6,1.3l-1.6,9.6c7.2,1.9,12.6,5,16.2,9.4
				s5.1,10.1,4.5,17.1l-15.2-2.6c0.1-2.5-0.5-5-1.7-7.2c-1.4-2.1-3.4-3.7-5.8-4.5l-3.2,19.1c3.6,1.2,7,2.6,10.3,4.3
				c2.8,1.4,5.3,3.3,7.5,5.5c1.9,2.1,3.2,4.7,3.9,7.4c0.7,3.2,0.8,6.5,0.2,9.7c-0.5,3.1-1.6,6-3.2,8.7c-1.6,2.6-3.6,4.8-6.1,6.6
				c-2.7,1.9-5.8,3.2-9.1,3.9c-3.8,0.8-7.7,1-11.5,0.5l-2.3,13.3l-7.6-1.3L570,922.2z M570.1,863.4c-0.2,1.1-0.2,2.2-0.1,3.3
				c0.1,1,0.5,1.9,1.1,2.8c0.7,1,1.6,1.8,2.6,2.5c1.5,0.9,3,1.7,4.6,2.3l3.1-18c-3.3-0.1-5.9,0.5-7.8,1.8
				C571.7,859.2,570.5,861.2,570.1,863.4z M591.5,902.9c0.5-2.2,0.1-4.4-1.1-6.3c-1.1-1.7-3.6-3.2-7.4-4.8l-3.3,19.4
				c2.8,0.1,5.6-0.7,7.9-2.2C589.7,907.6,591.1,905.3,591.5,902.9z"/>
		</g>
		<path class="st1" d="M565.9,917.9c-4.1-0.9-7.9-2.4-11.5-4.5c-2.9-1.7-5.3-4-7.3-6.8c-1.8-2.5-3.1-5.4-3.7-8.4
			c-0.6-3.2-0.8-6.5-0.4-9.7l15.8,2.7c-0.1,1.5,0,3,0.2,4.5c0.1,1.4,0.6,2.7,1.2,3.9c0.7,1.3,1.7,2.5,2.9,3.4c1.5,1.1,3.2,2,5,2.5
			l3.5-20.6c-3.7-1.2-7.3-2.7-10.6-4.6c-2.7-1.5-5.1-3.5-7-5.9c-1.8-2.1-3-4.6-3.5-7.3c-0.6-3.1-0.6-6.3,0-9.4
			c0.9-5.9,4.4-11.1,9.5-14.3c2.7-1.6,5.6-2.7,8.7-3.3c3.5-0.7,7.1-0.9,10.7-0.5l1.6-9.5l7.6,1.3l-1.6,9.6c7.2,1.9,12.6,5,16.2,9.4
			s5.1,10.1,4.5,17.1l-15.2-2.6c0.1-2.5-0.5-5-1.7-7.2c-1.4-2.1-3.4-3.7-5.8-4.4l-3.3,19.1c3.6,1.2,7,2.6,10.3,4.3
			c2.8,1.4,5.3,3.3,7.5,5.5c1.9,2.1,3.3,4.7,4,7.4c0.7,3.2,0.8,6.5,0.1,9.7c-0.5,3.1-1.6,6-3.2,8.7c-1.6,2.6-3.6,4.8-6.1,6.6
			c-2.8,1.9-5.9,3.3-9.1,4c-3.8,0.8-7.7,1-11.6,0.5l-2.3,13.3l-7.6-1.3L565.9,917.9z M566,859c-0.2,1.1-0.2,2.2-0.1,3.3
			c0.1,1,0.5,1.9,1.1,2.8c0.7,1,1.6,1.9,2.6,2.5c1.5,0.9,3,1.7,4.6,2.3l3.1-18c-3.3-0.1-5.9,0.5-7.8,1.8
			C567.6,854.9,566.3,856.8,566,859z M587.3,898.5c0.5-2.2,0.1-4.4-1.1-6.3c-1.1-1.7-3.6-3.2-7.4-4.8l-3.3,19.4
			c2.8,0.1,5.6-0.7,8-2.2C585.6,903.2,587,901,587.3,898.5L587.3,898.5z"/>
		
			<rect x="772" y="793.8" transform="matrix(0.1683 -0.9857 0.9857 0.1683 -222.6115 1510.2278)" class="st10" width="23.3" height="186.4"/>
		
			<rect x="785.9" y="865.4" transform="matrix(0.1683 -0.9857 0.9857 0.1683 -259.8684 1565.1425)" class="st6" width="23.3" height="142.3"/>
		<path class="st13" d="M584.7,1159l-43.6-49.5c7.9-11.2,19.3-16.9,34.1-17.5l14.9,64.2L584.7,1159z"/>
		<path class="st3" d="M540.3,1107.9L307.7,658l11.4-5.9l232.6,449.9C557.3,1113,545.9,1118.8,540.3,1107.9z"/>
		<path class="st3" d="M551.7,1102.1L319.1,652.1l11.4-5.8l232.6,449.9C568.5,1106.8,557.2,1112.7,551.7,1102.1z"/>
		<path class="st3" d="M563.1,1096.2L330.5,646.3l11.4-5.9l232.6,449.9C579.7,1100.4,568.3,1106.3,563.1,1096.2z"/>
		
			<rect x="589.4" y="1156.4" transform="matrix(0.8894 -0.4571 0.4571 0.8894 -467.7776 399.701)" class="st14" width="5.7" height="20.4"/>
	</g>
</g>
</svg>
