<svg id="Layer_1" data-name="Layer 1" xmlns="http://www.w3.org/2000/svg" viewBox="0 0 1863.76 1544.13"><defs><style>.cls-1{fill:#dbb79e;}.cls-2{fill:#f9cfb3;}.cls-3{fill:#3d3b36;}.cls-4{fill:#bad1dd;}.cls-5{fill:#3d5872;}.cls-6{fill:#39f;}.cls-7{fill:#e4f4ff;}.cls-8{fill:#358ac4;}.cls-9{fill:#53666d;}.cls-10{fill:#455256;}.cls-11{fill:#a7c0c6;}.cls-12{fill:#b4cbd3;}.cls-13{fill:#cee5ef;}.cls-14{fill:#c7dde5;}.cls-15{fill:#d0e4ef;}.cls-16{fill:#f7ca4d;}.cls-17{fill:#ffd851;}.cls-18{fill:#d1e7f2;}.cls-19{fill:#e4eff4;}.cls-20{fill:#f4b638;}.cls-21{fill:#edce8a;}.cls-22{fill:none;stroke:#ef7575;stroke-miterlimit:10;stroke-width:21px;}</style></defs><title>RRS</title><g id="_1" data-name="1"><polygon class="cls-1" points="500.25 372.41 500.25 376.35 500.24 408.85 543.13 448.25 556.81 432.79 579 407.71 579.01 367.74 500.25 372.41"/><path class="cls-2" d="M608.61,304.28c-.13-2.75-1.6-7.38-5.19-4.73-1.62,1.2-.83,4.16-2.34,5.15-3.64,2.39-4-3-4.24-5.4-.91-9.09,3.18-17.81,2.09-26.74-1.51-12.44-13.13-20.89-24.07-25.11S554.77,222.09,543.63,226c-11.15-3.89-35.65-1-46.5,3.19s-17.56,30.91-19.08,43.35c-1.09,8.93,3,17.66,2.07,26.75-.24,2.39-.59,7.79-4.24,5.39-1.51-1-.72-3.94-2.33-5.15-3.59-2.65-5.07,2-5.21,4.73-.5,9.8.9,20.5,5.24,29.39,2.52,5.15,6,6.62,9.54,10.35,3.9,4.12,3.25,12.22,4.7,17.37a29.42,29.42,0,0,0,4.5,9.48c4.31,6,11.82,8.74,16.76,14.16,4.62,5.07,8.9,10.12,15.26,13.4,3.83,2,9.18,2,14.1,1.77,4.93.24,10.28.21,14.11-1.76,6.36-3.27,10.65-8.32,15.28-13.39,4.94-5.42,12.44-8.19,16.76-14.14a29.54,29.54,0,0,0,4.51-9.48c1.45-5.15.81-13.25,4.71-17.37,3.51-3.73,7-5.19,9.54-10.34C607.71,324.79,609.11,314.08,608.61,304.28Z"/><path class="cls-3" d="M473.08,291.92a40.59,40.59,0,0,1,1.51,14.14c0,.69-.07,1.73,0,2.87h6.54a34,34,0,0,0,0-3.47,91.8,91.8,0,0,1,.15-10.49c.26-5-.36-10.19.14-15.18,1.11-11.05,10.41-21.63,15.36-31.26,3.15-6.14,8.92-12.27,15.75-11.25,4,.6,7.22,3.55,10.41,6.09a64.51,64.51,0,0,0,29.16,13c12.23,2.08,38.53-1.89,42.08,14,1.92,8.63,1.52,17.45,1.29,26.22,0,1.24-1.1,7.93-.84,12.33h5.11c1.64-5.29,3.83-12.49,4.37-15.27,2.16-11.15,1.65-16.05,2.17-20.79,1.86-16.81,2.79-32.91-7.57-47-12.78-17.41-32.52-28.23-54.27-28.24-18.25,0-44.4,6.4-54.72,22.66-19.52,4.56-20.35,37.42-18.84,52.55C471.42,279.09,471.36,286,473.08,291.92Z"/><path class="cls-4" d="M500.21,477.82C499.94,474.92,538,435,538,435h4.87L579,475.35l-37.79,101Z"/><path class="cls-5" d="M559.31,520.18l-12.84-58.35a7.91,7.91,0,0,1,.76-5.46l4.88-9.18a1.47,1.47,0,0,0-.34-1.6L546.14,440c-1.28-1.27-2.82-2.46-3.56-4.12-.53-1.19-2-3.86-3.68-2.73-1.48,1-2,2.54-2.93,3.86a34.09,34.09,0,0,1-3.62,3.59l-5,5a1.45,1.45,0,0,0-.33,1.6l4.87,9.18a7.92,7.92,0,0,1,.75,5.47l-12.88,58.34a1.47,1.47,0,0,0,.06.88l17.79,45.75a2.7,2.7,0,0,0,3.84,0l17.83-45.73A1.51,1.51,0,0,0,559.31,520.18Z"/><path class="cls-6" d="M537.24,555.78,507.82,458l-12.36-41.15-1.33.41c-3.1.91-11.38,3.41-21.86,6.55-28.16,8.53-72.07,21.83-73.25,22.63s-15.86,30.72-24.92,49.34l.52,111.63c1.89,7.38,3.12,16.88,7.36,16.3,61.77-8.42,137.07-1.33,155.95,1Z"/><path class="cls-6" d="M704,493.8c-9.09-18.69-22.73-46.51-23.88-47.29s-45.1-14.13-73.25-22.68c-10.44-3.15-18.73-5.63-21.83-6.56l-1.35-.41-17.31,55.68L539,560.65v.86l-1.73-5.73.69,68.92,1,.12c8.45-.62,122.3,8.4,159.24-1,4.4-1.12,4.51-10.62,6.29-18.76Z"/><path class="cls-7" d="M579.6,396.56l-39,35.15a1.55,1.55,0,0,1-2.09,0l-39-35.18-8.73,25.52,16.82,55.77,30.65-43.07a1.56,1.56,0,0,1,2.55,0l30.6,43.09,16.87-55.75Z"/><path class="cls-8" d="M590,452.85l20.46,8.64L539,596.84,468.6,461.43l20.45-8.62-23.51-11.57a170.52,170.52,0,0,1,6.73-17.46c10.48-3.14,18.76-5.64,21.86-6.55L507.82,458l10.88,32.34L538.34,555l22-64.63,6-17.78L585,417.27c3.1.94,11.39,3.41,21.83,6.56a165.42,165.42,0,0,1,6.72,17.46Z"/><polygon class="cls-9" points="306.88 597.3 306.88 620.22 306.88 633.22 771.7 633.22 771.7 620.22 771.7 597.3 306.88 597.3"/></g><g id="_1-2" data-name="1"><polygon class="cls-1" points="656.32 1001.86 656.32 1004.7 656.31 1028.19 687.31 1056.66 697.2 1045.49 713.23 1027.37 713.24 998.48 656.32 1001.86"/><path class="cls-2" d="M734.64,952.62c-.1-2-1.16-5.34-3.75-3.42-1.18.87-.61,3-1.7,3.72-2.63,1.73-2.88-2.18-3.06-3.9-.66-6.57,2.3-12.88,1.51-19.33-1.09-9-9.49-15.1-17.39-18.15S695.73,893.21,687.67,896c-8-2.82-25.76-.72-33.61,2.3s-12.68,22.34-13.78,31.33c-.79,6.46,2.16,12.77,1.49,19.34-.17,1.72-.43,5.63-3.06,3.89-1.09-.71-.52-2.85-1.69-3.72-2.59-1.92-3.66,1.43-3.76,3.42-.36,7.08.65,14.82,3.79,21.24,1.82,3.72,4.36,4.78,6.89,7.48,2.82,3,2.35,8.83,3.4,12.55a21.6,21.6,0,0,0,3.25,6.86c3.12,4.3,8.54,6.31,12.11,10.23,3.34,3.66,6.43,7.31,11,9.68,2.77,1.43,6.64,1.46,10.19,1.28,3.56.18,7.43.16,10.2-1.27,4.6-2.36,7.7-6,11-9.68,3.58-3.91,9-5.92,12.12-10.22a21.46,21.46,0,0,0,3.26-6.85c1.05-3.72.58-9.57,3.4-12.55,2.54-2.7,5.08-3.76,6.9-7.48C734,967.43,735,959.7,734.64,952.62Z"/><path class="cls-3" d="M636.69,943.68a29.44,29.44,0,0,1,1.09,10.22c0,.5-.06,1.25,0,2.07h4.73a24.19,24.19,0,0,0,0-2.5,68.68,68.68,0,0,1,.1-7.59c.19-3.62-.26-7.36.11-11,.8-8,7.52-15.63,11.1-22.59,2.27-4.44,6.45-8.87,11.38-8.13,2.91.43,5.22,2.57,7.53,4.4A46.64,46.64,0,0,0,693.73,918c8.84,1.5,27.85-1.37,30.41,10.13,1.39,6.24,1.1,12.62.93,19,0,.9-.79,5.73-.6,8.91h3.69c1.19-3.83,2.77-9,3.16-11,1.56-8.05,1.19-11.59,1.57-15,1.34-12.15,2-23.79-5.47-34-9.24-12.58-23.51-20.4-39.22-20.41-13.19,0-32.1,4.62-39.56,16.37-14.11,3.3-14.7,27.05-13.61,38C635.48,934.41,635.44,939.39,636.69,943.68Z"/><path class="cls-4" d="M656.29,1078c-.19-2.09,27.29-30.94,27.29-30.94h3.52l26.11,29.16-27.31,73Z"/><path class="cls-5" d="M699,1108.65l-9.28-42.17a5.76,5.76,0,0,1,.54-4l3.53-6.63a1.09,1.09,0,0,0-.24-1.16l-4.07-4a10.72,10.72,0,0,1-2.57-3c-.38-.86-1.44-2.79-2.67-2-1.06.71-1.43,1.84-2.12,2.79a23.65,23.65,0,0,1-2.61,2.59l-3.64,3.61a1.09,1.09,0,0,0-.24,1.16l3.53,6.64a5.82,5.82,0,0,1,.54,4l-9.31,42.16a1,1,0,0,0,.05.64l12.85,33.07a2,2,0,0,0,2.78,0L699,1109.29A1.07,1.07,0,0,0,699,1108.65Z"/><path class="cls-6" d="M683.06,1134.38l-21.27-70.69L652.86,1034l-1,.3c-2.24.65-8.22,2.46-15.8,4.73-20.35,6.16-52.09,15.78-52.94,16.35s-11.47,22.21-18,35.67l0,69.21c1.36,5.33,3.14,9.58,5.32,11.78,27.29,27.45,99.46,10.51,113.1,12.2Z"/><path class="cls-6" d="M803.55,1089.58c-6.57-13.5-16.43-33.61-17.26-34.17S753.7,1045.2,733.35,1039c-7.54-2.28-13.54-4.07-15.78-4.75l-1-.29-12.51,40.24L684.3,1137.9v.63l-1.24-4.15.49,49.81.74.09c6.1-.45,97.69,15.72,114.69-12.21,1.7-2.8,3.26-7.67,4.55-13.55Z"/><path class="cls-7" d="M713.67,1019.31l-28.19,25.4a1.12,1.12,0,0,1-1.51,0l-28.17-25.43-6.3,18.45L661.66,1078l22.14-31.13a1.14,1.14,0,0,1,1.85,0l22.12,31.14L720,1037.76Z"/><path class="cls-8" d="M721.21,1060l14.79,6.24-51.71,97.82-50.84-97.86,14.77-6.23-17-8.36A125.16,125.16,0,0,1,636.1,1039c7.58-2.27,13.56-4.08,15.8-4.73l9.89,29.44,7.87,23.37,14.19,46.72,15.9-46.71,4.34-12.85,13.48-40c2.24.68,8.24,2.47,15.78,4.75a122.26,122.26,0,0,1,4.86,12.62Z"/><path class="cls-10" d="M744.17,941.35c1.4-16.57,0-38.26-12.6-54.52-9.21-11.87-28.39-21.39-47.7-21.4-18.9,0-38.5,9.5-47.71,21.36-12.62,16.25-14,38-12.64,54.51-7.21,3.74-9.12,13.12-7.73,23.35,1.64,12.05,7.2,15.25,18.1,14.37l-6.06-39.17h-.05c-1.15-15.74.34-35.85,11.8-50.59,8.4-10.81,26.81-19.06,44.29-19.67,19.54.62,35.9,8.89,44.28,19.7,11.45,14.75,12.92,34.86,11.76,50.61l0,0-6.09,39.17.25,0-18.87,22a2.93,2.93,0,0,0-3.91,0l-9.67,9a2.7,2.7,0,0,0-.06,3.89l2,2a2.92,2.92,0,0,0,4,.07l9.67-9a2.69,2.69,0,0,0,.74-2.72l21.64-25.22c7.13-.73,11-4.69,12.31-14.37C753.28,954.47,751.38,945.09,744.17,941.35Z"/><path class="cls-11" d="M704.72,1114.11a.56.56,0,0,1,.61.6l-1.12,10a315.86,315.86,0,0,1,57.38,49.3,2.52,2.52,0,0,0,2.59-1.87l10.33-91.63a2.28,2.28,0,0,0-2.48-2.41L597.48,1078a2.56,2.56,0,0,0-2.16,1.06c14.54,2.64,50.68,11.1,91.93,35Z"/><path class="cls-12" d="M704.21,1124.69l-1.44,12.75a.62.62,0,0,1-.65.47H664a.64.64,0,0,1-.65-.47l-2.54-22.73a.56.56,0,0,1,.61-.6h25.84c-41.25-23.94-77.39-32.4-91.93-35a2.08,2.08,0,0,0-.32,1.35l10.25,91.64a2.53,2.53,0,0,0,2.63,1.87l153.68.06h0A315.86,315.86,0,0,0,704.21,1124.69Z"/><path class="cls-13" d="M661.41,1114.1a.56.56,0,0,0-.61.6l2.54,22.73a.64.64,0,0,0,.65.47h38.13a.62.62,0,0,0,.65-.47l1.44-12.75c-5.72-3.83-11.39-7.35-17-10.58Z"/><path class="cls-14" d="M704.72,1114.11H687.25c5.57,3.23,11.24,6.75,17,10.58l1.12-10A.56.56,0,0,0,704.72,1114.11Z"/><polygon class="cls-9" points="512.97 1154.7 512.97 1177.74 512.96 1190.82 838.29 1190.94 838.29 1177.87 838.3 1154.82 512.97 1154.7"/></g><g id="_1-3" data-name="1"><polygon class="cls-1" points="382.88 1004.08 382.88 1006.87 382.88 1029.91 413.3 1057.83 423 1046.87 438.72 1029.08 438.72 1000.74 382.88 1004.08"/><path class="cls-2" d="M459.69,955.74c-.09-2-1.14-5.23-3.68-3.35-1.15.85-.59,3-1.66,3.65-2.58,1.7-2.83-2.13-3-3.83-.65-6.44,2.24-12.63,1.47-19-1.08-8.82-9.32-14.81-17.07-17.8s-14.25-18-22.15-15.22c-7.91-2.76-25.28-.69-33,2.28s-12.44,21.92-13.52,30.74c-.77,6.33,2.13,12.52,1.48,19-.17,1.7-.42,5.53-3,3.83-1.07-.7-.51-2.8-1.65-3.65-2.55-1.88-3.59,1.4-3.69,3.35-.36,7,.64,14.54,3.72,20.84,1.79,3.65,4.28,4.69,6.77,7.33,2.76,2.93,2.3,8.67,3.33,12.32a21.16,21.16,0,0,0,3.19,6.72c3.07,4.22,8.39,6.19,11.89,10,3.28,3.6,6.31,7.18,10.83,9.5,2.72,1.4,6.51,1.42,10,1.25,3.49.17,7.28.15,10-1.25,4.51-2.32,7.55-5.9,10.83-9.5,3.5-3.84,8.82-5.81,11.88-10a21.18,21.18,0,0,0,3.2-6.72c1-3.65.56-9.39,3.33-12.32,2.49-2.64,5-3.68,6.76-7.33C459.06,970.28,460.05,962.69,459.69,955.74Z"/><path class="cls-3" d="M363.59,947a28.84,28.84,0,0,1,1.08,10c0,.48-.06,1.23,0,2h4.64a23.44,23.44,0,0,0,0-2.46,68.41,68.41,0,0,1,.1-7.44c.19-3.56-.26-7.22.1-10.76.78-7.84,7.38-15.34,10.88-22.17,2.23-4.36,6.33-8.7,11.17-8,2.85.42,5.12,2.51,7.38,4.31a45.69,45.69,0,0,0,20.68,9.23c8.67,1.48,27.31-1.35,29.84,9.93,1.36,6.12,1.08,12.38.92,18.59a66.83,66.83,0,0,0-.59,8.75h3.62c1.16-3.76,2.71-8.86,3.09-10.84,1.53-7.9,1.17-11.37,1.54-14.74,1.31-11.92,2-23.33-5.38-33.33-9.07-12.34-23.07-20-38.49-20-12.94,0-31.48,4.55-38.79,16.08-13.84,3.24-14.42,26.54-13.34,37.27C362.41,937.91,362.37,942.8,363.59,947Z"/><path class="cls-7" d="M510.41,1056.57c-.85-.57-32-10-52-16.06-7.4-2.24-13.28-4-15.48-4.65l-1-.29-10.41,33.54-18.52-20.67h-3.45s-11.88,12.49-19.81,21.48l-1.56-5.18-8.78-29.17s-.33.09-.94.29c-2.2.64-8.06,2.41-15.5,4.65-20,6-51.09,15.49-51.93,16.06s-11.24,21.79-17.65,35v70c1.34,5.23,3.08,9.41,5.22,11.56,26.78,26.92,97.58,8.22,111,9.88l.72.08c6-.44,95.85,17.44,112.51-10,1.67-2.75,3.2-7.53,4.46-13.3v-69.68C520.9,1076.84,511.22,1057.12,510.41,1056.57Z"/><path class="cls-6" d="M424.44,1178.52l-8.77-111a5.73,5.73,0,0,1,.54-3.88l3.46-6.51a1.06,1.06,0,0,0-.24-1.13l-4-4a10.8,10.8,0,0,1-2.52-2.92c-.37-.84-1.4-2.74-2.61-1.94-1.05.71-1.4,1.81-2.08,2.74a23.71,23.71,0,0,1-2.56,2.55l-3.57,3.55a1,1,0,0,0-.23,1.13l3.46,6.51a5.67,5.67,0,0,1,.53,3.88l-9.47,111a1,1,0,0,0,0,.63l12.62-1.69a1,1,0,0,0,1.37.56,1,1,0,0,0,1.36-.56l12.63,1.69A1.12,1.12,0,0,0,424.44,1178.52Z"/><path class="cls-15" d="M439.15,1021.17l-27.64,24.94a1.12,1.12,0,0,1-1.49,0l-27.64-24.94-6.18,18.1,11.94,39.54,21.72-30.54a1.1,1.1,0,0,1,1.81,0l21.71,30.54,11.95-39.54Z"/><polygon class="cls-9" points="240.28 1154.85 240.28 1177.9 240.28 1190.97 565.6 1190.97 565.6 1177.9 565.6 1154.85 240.28 1154.85"/></g><path class="cls-16" d="M409.91,863.87h0a58.34,58.34,0,0,1,58.34,58.34v12.36a0,0,0,0,1,0,0H351.57a0,0,0,0,1,0,0V922.22a58.34,58.34,0,0,1,58.34-58.34Z"/><polygon class="cls-17" points="471.87 945.92 409.91 952.74 347.95 945.92 347.95 928.57 409.91 924.48 471.87 928.57 471.87 945.92"/><polygon class="cls-17" points="419.66 921.34 400.16 921.34 398.79 860.54 421.02 860.54 419.66 921.34"/><rect class="cls-18" x="938.47" y="242.85" width="642.9" height="877.94"/><rect class="cls-19" x="980.58" y="295.49" width="642.9" height="890.69"/><rect class="cls-6" x="1050.83" y="507.13" width="30.98" height="30.98"/><rect class="cls-12" x="1110.91" y="507.13" width="442.34" height="30.98"/><rect class="cls-6" x="1050.83" y="592.36" width="30.98" height="30.98"/><rect class="cls-12" x="1110.91" y="592.36" width="442.34" height="30.98"/><rect class="cls-6" x="1050.83" y="677.58" width="30.98" height="30.98"/><rect class="cls-12" x="1110.91" y="677.58" width="442.34" height="30.98"/><rect class="cls-6" x="1050.83" y="762.81" width="30.98" height="30.98"/><rect class="cls-12" x="1110.91" y="762.81" width="442.34" height="30.98"/><rect class="cls-6" x="1050.83" y="848.04" width="30.98" height="30.98"/><rect class="cls-12" x="1110.91" y="848.04" width="442.34" height="30.98"/><polygon class="cls-6" points="1510.31 1298.86 1447.12 1249 1383.92 1298.86 1383.92 1052.89 1510.31 1052.89 1510.31 1298.86"/><path class="cls-20" d="M1569,1012.8a27.59,27.59,0,0,0-15.52-19,27.56,27.56,0,0,0-26.84-36.21,27.6,27.6,0,0,0-38.9-24.7,27.58,27.58,0,0,0-44.28-8.42,27.55,27.55,0,0,0-43,9.61,27.56,27.56,0,0,0-36.21,26.84,27.6,27.6,0,0,0-24.7,38.9,27.57,27.57,0,0,0-8.42,44.28,27.53,27.53,0,0,0,9.61,43,27.57,27.57,0,0,0,26.84,36.22,27.6,27.6,0,0,0,38.9,24.7,27.58,27.58,0,0,0,44.28,8.42,27.55,27.55,0,0,0,43-9.61A27.58,27.58,0,0,0,1530,1120a27.6,27.6,0,0,0,24.69-38.9,27.57,27.57,0,0,0,8.42-44.28A27.56,27.56,0,0,0,1569,1012.8Zm-62.89,64.82a27.48,27.48,0,0,0-4.24,15.35,27.51,27.51,0,0,0-24.61,16.19,27.38,27.38,0,0,0-27.76,6.35,27.48,27.48,0,0,0-29.16-4.16,27.56,27.56,0,0,0-25.76-16.17,27.48,27.48,0,0,0-16.18-24.61,27.44,27.44,0,0,0-6.35-27.77,27.53,27.53,0,0,0,4.16-29.16,27.56,27.56,0,0,0,16.17-25.75A27.51,27.51,0,0,0,1417,971.7a27.43,27.43,0,0,0,27.76-6.35,27.48,27.48,0,0,0,29.16,4.16,27.56,27.56,0,0,0,25.76,16.17,27.52,27.52,0,0,0,16.18,24.61,27.46,27.46,0,0,0,6.35,27.77,27.51,27.51,0,0,0-4.16,29.15A27.58,27.58,0,0,0,1506.1,1077.62Z"/><circle class="cls-21" cx="1447.12" cy="1040.43" r="92.09" transform="translate(50.07 2147.18) rotate(-74.1)"/><path class="cls-20" d="M1427.71,1092.62a10.57,10.57,0,0,1-8-3.6L1386,1050.63a10.59,10.59,0,1,1,15.91-14l26.78,30.47,64.61-56.32a10.59,10.59,0,1,1,13.92,16L1434.67,1090A10.57,10.57,0,0,1,1427.71,1092.62Z"/><rect class="cls-6" x="1050.83" y="372.36" width="502.42" height="82.15"/><rect class="cls-12" x="1050.83" y="974.39" width="225.89" height="33.8"/><rect class="cls-12" x="1050.83" y="1037.56" width="162.56" height="33.8"/><polyline class="cls-22" points="409.91 835.43 409.91 732.81 548.58 732.81 687.25 732.81 687.25 835.43"/><line class="cls-22" x1="548.58" y1="644.95" x2="548.58" y2="732.81"/></svg>