<svg xmlns="http://www.w3.org/2000/svg" viewBox="0 0 1863.76 1544.13"><defs><style>.cls-1{isolation:isolate;}.cls-2{fill:#ef7575;}.cls-3{fill:#dbb79e;}.cls-4{fill:#f9cfb3;}.cls-5{fill:#3d3b36;}.cls-6{fill:#bad1dd;}.cls-7{fill:#3d5872;}.cls-8{fill:#39f;}.cls-9{fill:#e4f4ff;}.cls-10{fill:#358ac4;}.cls-11{fill:#53666d;}.cls-12{fill:#a7c0c6;}.cls-13{fill:#b4cbd3;}.cls-14{fill:#cee5ef;}.cls-15{fill:#c7dde5;}.cls-16{fill:#7f796c;}.cls-17{fill:#60aeef;}.cls-18{fill:#c1d8e5;}.cls-19{fill:#378bd1;}.cls-20{fill:#57a6dd;}.cls-21{fill:#1d1d1b;opacity:0.05;}.cls-22{fill:#a7c4c9;}.cls-23{fill:#cbe8ef;}.cls-24{fill:#dff1f4;}.cls-25{fill:#81969b;}.cls-26{fill:#6d8086;}.cls-27{fill:#455256;}.cls-28{fill:#e5c2aa;}.cls-29{fill:#fdd4b8;}.cls-30{fill:#6d6a62;}.cls-31{fill:#d1e9f5;}.cls-32{fill:#587ea2;}.cls-33{fill:#e6f5ff;}.cls-34{fill:#e4eff4;}.cls-35{fill:#dadada;}.cls-36{fill:#575756;}.cls-37{fill:#f6f6f6;}.cls-38{fill:#fff;}.cls-39{fill:#435459;}.cls-40{fill:#ddd;opacity:0.4;mix-blend-mode:multiply;}.cls-41{fill:none;stroke:#39f;stroke-miterlimit:10;stroke-width:7px;}.cls-42{fill:#f4b638;}.cls-43{fill:#edce8a;}</style></defs><title>RRS</title><g class="cls-1"><g id="Layer_1" data-name="Layer 1"><path class="cls-2" d="M1377.93,570.63a511.91,511.91,0,0,0-453.6-312.58v79.06a433.34,433.34,0,0,1,0,865.93v79.06a512.63,512.63,0,0,0,453.6-711.47Z"/><g id="_1" data-name="1"><polygon class="cls-3" points="892.69 1061.59 892.69 1065.67 892.69 1099.44 937.26 1140.35 951.47 1124.29 974.51 1098.23 974.51 1056.7 892.69 1061.59"/><path class="cls-4" d="M1005.24,990.76c-.14-2.86-1.67-7.67-5.4-4.91-1.68,1.25-.86,4.32-2.43,5.35-3.78,2.49-4.15-3.13-4.4-5.61-1-9.44,3.29-18.51,2.16-27.79-1.58-12.92-13.66-21.69-25-26.07s-20.88-26.34-32.46-22.31c-11.58-4-37-1-48.31,3.34s-18.22,32.12-19.8,45c-1.12,9.28,3.12,18.35,2.16,27.79-.24,2.48-.61,8.1-4.4,5.61-1.57-1-.75-4.1-2.43-5.35-3.72-2.76-5.26,2-5.4,4.91-.52,10.18.94,21.3,5.45,30.53,2.63,5.35,6.27,6.88,9.92,10.75,4,4.28,3.37,12.7,4.88,18a31.21,31.21,0,0,0,4.68,9.85c4.49,6.18,12.29,9.07,17.42,14.7,4.81,5.27,9.25,10.51,15.86,13.91,4,2.06,9.55,2.09,14.66,1.84,5.11.25,10.67.22,14.65-1.84,6.61-3.4,11.06-8.64,15.87-13.91,5.13-5.63,12.92-8.52,17.41-14.7a31,31,0,0,0,4.68-9.85c1.51-5.35.83-13.77,4.88-18,3.66-3.87,7.3-5.4,9.92-10.75C1004.31,1012.06,1005.76,1000.94,1005.24,990.76Z"/><path class="cls-5" d="M864.43,978A42.3,42.3,0,0,1,866,992.66c0,.71-.08,1.8,0,3h6.79a33.61,33.61,0,0,0,0-3.6,96.88,96.88,0,0,1,.15-10.91c.27-5.21-.38-10.58.14-15.77,1.15-11.47,10.81-22.47,16-32.48,3.27-6.38,9.26-12.75,16.36-11.69,4.18.61,7.5,3.68,10.82,6.32A67.12,67.12,0,0,0,946.42,941c12.7,2.15,40-2,43.72,14.54,2,9,1.59,18.14,1.35,27.25,0,1.28-1.14,8.23-.87,12.81h5.31c1.71-5.51,4-13,4.53-15.88,2.24-11.58,1.71-16.67,2.25-21.6,1.92-17.46,2.88-34.19-7.88-48.84C981.54,891.24,961,880,938.44,880c-19,0-46.14,6.67-56.85,23.56-20.28,4.75-21.13,38.89-19.55,54.61C862.69,964.64,862.64,971.8,864.43,978Z"/><path class="cls-6" d="M892.69,1171.09c-.28-3,39.21-44.5,39.21-44.5H937l37.55,41.91-39.22,104.92Z"/><path class="cls-7" d="M954.1,1215.08l-13.36-60.61a8.34,8.34,0,0,1,.78-5.68l5.07-9.54a1.53,1.53,0,0,0-.35-1.66l-5.85-5.83c-1.33-1.31-2.93-2.55-3.7-4.27-.55-1.24-2.06-4-3.83-2.84-1.53,1-2.05,2.64-3,4a34.76,34.76,0,0,1-3.75,3.73l-5.23,5.2a1.53,1.53,0,0,0-.35,1.66l5.07,9.54a8.28,8.28,0,0,1,.78,5.68L913,1215.08a1.52,1.52,0,0,0,.07.92l18.49,47.53a1.5,1.5,0,0,0,2,.82,1.49,1.49,0,0,0,2-.82L954,1216A1.6,1.6,0,0,0,954.1,1215.08Z"/><path class="cls-8" d="M931.19,1252.08l-30.61-101.61-12.86-42.74-1.37.42c-3.23.94-11.82,3.54-22.71,6.81-29.26,8.87-74.87,22.71-76.09,23.54s-16.48,31.93-25.87,51.27v76.83c2,7.66,4.51,13.78,7.65,16.93,39.24,39.45,143,37.72,162.6,40.15Z"/><path class="cls-8" d="M1104.37,1187.61c-9.45-19.4-23.63-48.3-24.82-49.11s-46.86-14.67-76.12-23.54c-10.84-3.27-19.46-5.84-22.68-6.81l-1.4-.42-18,57.85L933,1257.14v.89l-1.79-6,.74,71.6,1.05.13c8.78-.65,140.44-.13,164.86-40.28,2.45-4,4.68-11,6.53-19.49Z"/><path class="cls-9" d="M975.13,1086.64l-40.5,36.54a1.61,1.61,0,0,1-2.17,0L892,1086.64l-9.05,26.52,17.5,57.93,31.82-44.76a1.63,1.63,0,0,1,2.65,0l31.81,44.76,17.51-57.93Z"/><path class="cls-10" d="M986,1145.12l21.27,9L933,1294.73l-73.14-140.65,21.24-9-24.43-12a178.07,178.07,0,0,1,7-18.14c10.89-3.27,19.48-5.87,22.71-6.81l14.23,42.32,11.32,33.59,20.43,67.15,22.84-67.15,6.22-18.48,19.36-57.43c3.22,1,11.84,3.54,22.68,6.81a173.4,173.4,0,0,1,7,18.14Z"/><polygon class="cls-11" points="683.73 1282.51 683.73 1316.28 683.73 1335.44 1160.42 1335.44 1160.42 1316.28 1160.42 1282.51 683.73 1282.51"/><path class="cls-12" d="M962.32,1222.93a.81.81,0,0,1,.88.86l-1.61,14.34A453.9,453.9,0,0,1,1044.1,1309c1.89,0,3.57-1.21,3.73-2.68l14.79-131.72c.21-1.91-1.39-3.47-3.56-3.47H808.14a3.66,3.66,0,0,0-3.1,1.53c20.9,3.77,72.86,15.92,132.16,50.31Z"/><path class="cls-13" d="M961.59,1238.13l-2.06,18.34a.9.9,0,0,1-.93.67H903.79a.91.91,0,0,1-.94-.67l-3.67-32.68a.82.82,0,0,1,.89-.86H937.2c-59.3-34.39-111.26-46.54-132.16-50.31a2.92,2.92,0,0,0-.46,1.94l14.79,131.72c.16,1.48,1.86,2.69,3.77,2.69h221A453.9,453.9,0,0,0,961.59,1238.13Z"/><path class="cls-14" d="M900.07,1222.93a.82.82,0,0,0-.89.86l3.67,32.68a.91.91,0,0,0,.94.67H958.6a.9.9,0,0,0,.93-.67l2.06-18.34q-12.33-8.25-24.39-15.2Z"/><path class="cls-15" d="M962.32,1222.93H937.2q12,7,24.39,15.2l1.61-14.34A.81.81,0,0,0,962.32,1222.93Z"/></g><g id="_1-2" data-name="1"><path class="cls-16" d="M827.27,184c-3.94-42.13-37.66-42.43-41-42.43s-37.11,1-40.4,43.16C741.12,219.41,737.1,238.61,760,243c4.18,1.23,10.87,1.72,13.18,2a2.52,2.52,0,0,1,.81.19l2.54,0,4-.05,19.53-.15a2.11,2.11,0,0,1,.78-.2c.45-.05,1-.15,1.77-.22a70,70,0,0,0,11.39-2C836.82,237.72,832.49,218.59,827.27,184Z"/><polygon class="cls-17" points="739.77 341.6 748.02 379.74 718.29 379.74 709.62 341.6 723.46 257.24 753.61 257.24 739.77 341.6"/><polygon class="cls-17" points="832.48 331.57 859.61 328.11 847.99 257.24 817.84 257.24 832.48 331.57"/><path class="cls-18" d="M723.46,257.25c4.51,16.79,7.35,21.55,10.3,32.84a1.7,1.7,0,0,1-.15.41.62.62,0,0,1-.07.29c-.07.3-.15.6-.19.89a16.09,16.09,0,0,0-.4,1.77.93.93,0,0,0,0,.33,33.72,33.72,0,0,0-.48,5.47,32,32,0,0,0,3.21,14.09,4.62,4.62,0,0,0,.45.89,28.6,28.6,0,0,0,5.68,7.49.7.7,0,0,1,.07.37c1,4.43,1.77,8.19,2.4,11.55.15.63.3,1.29.41,2s.18,1.33.29,2c.11.81.22,1.66.37,2.44.22,1.44.33,2.8.52,4.13a19.09,19.09,0,0,1,.15,2c0,.66.11,1.25.11,1.92a50.24,50.24,0,0,1,.22,5.2c.07,1.73.07,3.54.07,5.46v5.54c0,.77,0,1.58-.07,2.4,0,2,0,4.2,0,6.53-.07,1.25-.07,2.62,0,4,0,.48,0,.92,0,1.42-.26.38-.47.75-.72,1.13H826c-.26-.38-.46-.75-.72-1.15,0-.48,0-.92,0-1.4,0-1.4,0-2.77,0-4,0-2.33,0-4.5,0-6.53-.07-.82-.07-1.63-.07-2.4V358.7c0-1.92,0-3.73.07-5.46a50.24,50.24,0,0,1,.22-5.2c0-.67.07-1.26.11-1.92a19.09,19.09,0,0,1,.15-2c.18-1.33.29-2.69.52-4.13.14-.78.25-1.63.36-2.44.12-.66.19-1.33.3-2s.26-1.33.41-2c.62-3.36,1.4-7.12,2.39-11.55a.62.62,0,0,1,.08-.37,28.6,28.6,0,0,0,5.68-7.49,4.61,4.61,0,0,0,.44-.89A32,32,0,0,0,839,299.25a33.72,33.72,0,0,0-.48-5.47.93.93,0,0,0,0-.33,14.13,14.13,0,0,0-.41-1.77,7.39,7.39,0,0,0-.18-.89.62.62,0,0,1-.08-.29,1.44,1.44,0,0,1-.14-.48c2.95-11.22,5.79-16,10.29-32.77.19-.71-40.89-18.49-40.89-18.49l-20.74-7-22,7S723.4,257,723.46,257.25Z"/><polygon class="cls-19" points="781.18 272.07 777.98 256.87 785.72 256.66 793.47 256.87 790.27 272.07 781.18 272.07"/><polygon class="cls-19" points="781.18 272.07 773.65 351.16 785.72 361.84 797.8 351.16 790.27 272.07 781.18 272.07"/><path class="cls-17" d="M747.19,379.74l-.22-.22a3.26,3.26,0,0,1-.74-2.33c0-1.25.3-2.66.34-3.73,0-2.47,0-5-.08-7.49,0-1.11,0-2.18-.11-3.28v-4c0-1.92,0-3.73-.07-5.46a50.24,50.24,0,0,0-.22-5.2c0-.67-.08-1.26-.11-1.92a19.09,19.09,0,0,0-.15-2c-.19-1.33-.3-2.69-.52-4.13-.15-.78-.26-1.63-.37-2.44-.11-.66-.18-1.33-.29-2s-.26-1.33-.41-2c-.63-3.36-1.4-7.12-2.4-11.55a.7.7,0,0,0-.07-.37,28.6,28.6,0,0,1-5.68-7.49,4.62,4.62,0,0,1-.45-.89,32,32,0,0,1-3.21-14.09,33.72,33.72,0,0,1,.48-5.47.93.93,0,0,1,0-.33,16.09,16.09,0,0,1,.4-1.77c0-.29.12-.59.19-.89a.62.62,0,0,0,.07-.29,1.7,1.7,0,0,0,.15-.41V290c-3-11.22-5.79-16-10.3-32.77.63-.48,1.33-1,2.11-1.44.48-.3,1-.63,1.51-.92,2-1.22,4.28-2.44,6.75-3.66l2.51-1.22c.74-.36,1.52-.7,2.29-1.07,1.18-.51,2.36-1.07,3.58-1.58s2.62-1.11,4-1.7c1-.37,1.95-.78,2.91-1.18l6.87-2.66c1.47-.55,2.95-1.11,4.43-1.62s2.65-1,4-1.44c-1.25,29,11.07,58.77,21.36,97.13,10.3-38.36,22.62-68.12,21.37-97.13,1.29.44,2.62.92,3.95,1.44,1.48.51,3,1.07,4.43,1.62l6.86,2.66c1,.4,2,.81,2.92,1.18l4,1.7c1.21.51,2.39,1.07,3.58,1.58.77.37,1.55.71,2.28,1.07l2.51,1.22c2.48,1.22,4.76,2.44,6.76,3.66.55.29,1,.62,1.51.92a23.87,23.87,0,0,1,2.1,1.44c-4.5,16.79-7.34,21.55-10.29,32.77v.07a1.66,1.66,0,0,0,.14.41.62.62,0,0,0,.08.29,7.39,7.39,0,0,1,.18.89,14.13,14.13,0,0,1,.41,1.77.93.93,0,0,1,0,.33,33.72,33.72,0,0,1,.48,5.47,32,32,0,0,1-3.22,14.09,4.61,4.61,0,0,1-.44.89,28.6,28.6,0,0,1-5.68,7.49.62.62,0,0,0-.08.37c-1,4.43-1.77,8.19-2.39,11.55-.15.63-.3,1.29-.41,2s-.18,1.33-.3,2c-.11.81-.22,1.66-.36,2.44-.23,1.44-.34,2.8-.52,4.13a19.09,19.09,0,0,0-.15,2c0,.66-.11,1.25-.11,1.92a50.24,50.24,0,0,0-.22,5.2c-.07,1.73-.07,3.54-.07,5.46v4c-.08,1.1-.12,2.17-.12,3.28-.07,2.51-.07,5-.07,7.49,0,1.07.33,2.48.33,3.73a3.21,3.21,0,0,1-.74,2.33l-.22.22Z"/><path class="cls-20" d="M736.09,314.19a29.12,29.12,0,0,0,5.68,7.54l.06.06v.3c1,4.42,1.8,8.19,2.39,11.54.3,1.38.54,2.69.72,3.95.12.83.24,1.67.36,2.45.3,2.15.48,4.13.66,6.1.06.66.12,1.26.12,1.91a50.46,50.46,0,0,1,.24,5.21c.06,1.73.06,3.53.06,5.44,0,2.45,0,5-.06,7.95,0,2-.06,4.19-.06,6.52-.06,1.68-.06,3.53-.06,5.45-.26.38-.47.75-.72,1.13h8a4.12,4.12,0,0,0,.28-1.07c.84-5.69-3.7-22.49-3.23-26.14a54.14,54.14,0,0,1,2.64-11.9,25.5,25.5,0,0,1,5.86-9.81,20.05,20.05,0,0,1,4.66-3.47c1-.48,6.4-3.05,8-4.25a18.6,18.6,0,0,0,1.61-1.43c.42-.36.9-1.14,1.38-1.38a25.11,25.11,0,0,1-11.67,2.93c-9.27,0-17.36-5.19-22.72-13s-5.81-21.05-5.75-21.65a3.42,3.42,0,0,1,.06-.78c-.29.72-.53,1.5-.77,2.22a1.41,1.41,0,0,0-.12.48c0,.06-.06.12-.06.18a4.82,4.82,0,0,0-.24,1,8.14,8.14,0,0,0-.36,1.74.76.76,0,0,0-.06.36,32.45,32.45,0,0,0,2.69,19.55A3.83,3.83,0,0,0,736.09,314.19Z"/><path class="cls-20" d="M835.36,314.19a29.34,29.34,0,0,1-5.68,7.54l-.06.06v.3c-1,4.42-1.8,8.19-2.4,11.54-.3,1.38-.53,2.69-.71,3.95-.12.83-.24,1.67-.36,2.45-.3,2.15-.48,4.13-.66,6.1-.06.66-.12,1.26-.12,1.91a50.46,50.46,0,0,0-.24,5.21c-.06,1.73-.06,3.53-.06,5.44,0,2.45,0,5,.06,7.95,0,2,.06,4.19.06,6.52.06,1.68.06,3.53.06,5.45.26.38.46.75.72,1.13h-8a4.09,4.09,0,0,1-.29-1.07c-.83-5.69,3.71-22.49,3.23-26.14a53.56,53.56,0,0,0-2.63-11.9,25.5,25.5,0,0,0-5.86-9.81,20.05,20.05,0,0,0-4.66-3.47c-1-.48-6.4-3.05-8-4.25a16,16,0,0,1-1.61-1.43c-.42-.36-.9-1.14-1.38-1.38a25.1,25.1,0,0,0,11.66,2.93c9.27,0,17.37-5.19,22.73-13s5.8-21.05,5.74-21.65a3.42,3.42,0,0,0-.06-.78c.3.72.54,1.5.78,2.22a1.41,1.41,0,0,1,.12.48c0,.06.06.12.06.18a4.82,4.82,0,0,1,.24,1,8.14,8.14,0,0,1,.36,1.74.76.76,0,0,1,.06.36,32.45,32.45,0,0,1-2.69,19.55A3.83,3.83,0,0,1,835.36,314.19Z"/><path class="cls-3" d="M803.84,239.14c-1.57,26.7-32.53,26.46-36,0V216.33h36.08Z"/><path class="cls-4" d="M787,153.75h-.84c-16.13.44-28.82,13.09-28.35,28.25a77.42,77.42,0,0,0,.79,8.76,2.68,2.68,0,0,0-1.95-.4c-2.55.52-3.87,5.11-3,10.26.74,4.15,2.69,7.35,4.77,8.15a2.38,2.38,0,0,0,1.46.15,1.43,1.43,0,0,0,.46-.18c2,8,4.44,14.29,7,17.22,3.3,3.76,5.61,6.63,7.79,8.78,3.29,3.26,6.25,4.87,11.84,5.4,5.59-.53,8.55-2.14,11.84-5.4,2.18-2.15,4.49-5,7.79-8.78,2.56-2.93,5-9.2,7-17.22a1.52,1.52,0,0,0,.46.18,2.37,2.37,0,0,0,1.46-.15c2.08-.8,4-4,4.77-8.15.9-5.15-.42-9.74-3-10.26a2.68,2.68,0,0,0-1.95.4,77.42,77.42,0,0,0,.79-8.76c.47-15.16-12.22-27.81-28.35-28.25Z"/><path class="cls-16" d="M822.55,175.07a28.87,28.87,0,0,1-3.69,4c-17.84,15.9-38-13.95-56.41-8.34-3.62,1.09-7.15,3.56-10.59,8l1.61-14c21.4-21.34,38.71-26.21,64.87-3.59Z"/><path class="cls-21" d="M772.12,242.34h0s0,0,0,.06Z"/><path class="cls-16" d="M759.31,167.38c5.44-1.32,11.21.47,16,3.33s8.91,6.74,13.35,10.15,9.43,6.43,15,7.1c-4.19-1.28-7.37-4.66-10-8.15s-5-7.29-8.44-10a23.86,23.86,0,0,0-14-4.74,47.16,47.16,0,0,0-14.79,2.21Z"/><path class="cls-8" d="M818.57,367.25l13.48,8.32c17.42-18.09,24-32.18,27.56-47.46l-27.13,3.46Z"/><path class="cls-3" d="M801.56,360.29a27.14,27.14,0,0,0,5.37,1.4,69.12,69.12,0,0,0,9,.76c.59,0-3.29,3.65-4.62,3.83a14.39,14.39,0,0,1-5.15.09c-2.12-.34-5.52-.44-6.79-2.16-.88-1.2-.92-3.19-.08-3.78A3,3,0,0,1,801.56,360.29Z"/><path class="cls-4" d="M815.93,362.45l-14.35,4-14,8.4,25.72-.65c4.21,2.06,12,.17,17.09.34,3.43.12,4.17,2,1.67-4.14C829.86,365.07,822.37,363.8,815.93,362.45Z"/><path class="cls-22" d="M779.91,368.53l-14-64.12a7.39,7.39,0,0,0-6.86-5.63H673.57a4.39,4.39,0,0,0-4.4,5.63l14.05,64.12a7.39,7.39,0,0,0,6.86,5.63h85.43A4.39,4.39,0,0,0,779.91,368.53Z"/><path class="cls-23" d="M772.49,374.16H687.06a7.39,7.39,0,0,1-6.86-5.63l-14.05-64.12a4.39,4.39,0,0,1,4.4-5.63H756a7.39,7.39,0,0,1,6.86,5.63l14,64.12A4.39,4.39,0,0,1,772.49,374.16Z"/><path class="cls-24" d="M725.2,336.47a4.49,4.49,0,0,1-4.5,5.76,7.56,7.56,0,0,1-7-5.76,4.49,4.49,0,0,1,4.5-5.76A7.56,7.56,0,0,1,725.2,336.47Z"/><polygon class="cls-25" points="833.46 379.74 810.27 379.74 692.41 379.74 692.41 374.16 833.46 374.16 833.46 379.74"/><rect class="cls-26" x="692.41" y="374.16" width="87.26" height="5.58"/><path class="cls-27" d="M825.86,187.15c.89-10.72,0-24.77-8.18-35.29-6-7.68-18.39-13.85-30.89-13.85-12.23,0-24.92,6.17-30.88,13.85-8.17,10.52-9.07,24.57-8.17,35.29-4.67,2.42-5.9,8.5-5,15.13,1.06,7.79,4.66,9.86,11.72,9.3l-3.93-25.37h0c-.75-10.19.22-23.21,7.63-32.76,5.43-7,17.36-12.35,28.67-12.74,12.66.39,23.25,5.74,28.68,12.74,7.42,9.55,8.37,22.57,7.63,32.76h0l-3.94,25.37h.16l-12.21,14.23a1.9,1.9,0,0,0-2.53,0l-6.26,5.85a1.75,1.75,0,0,0,0,2.52l1.29,1.28a1.89,1.89,0,0,0,2.6,0l6.26-5.86a1.74,1.74,0,0,0,.48-1.77l14-16.33c4.61-.47,7.11-3,8-9.3C831.76,195.65,830.52,189.57,825.86,187.15Z"/><path class="cls-9" d="M809.08,281.39l7-39.57-11.83-4.4s-3.64,17.27-17.92,19.82l.11.11-.68-.11c-14.27-2.55-17.91-19.82-17.91-19.82L756,241.82l6.95,39.57,21-22.24,4.23.07Z"/><polygon class="cls-28" points="1059.78 240.23 1059.78 242.27 1059.78 259.17 1082.09 279.65 1089.2 271.6 1100.73 258.56 1100.73 237.78 1059.78 240.23"/><path class="cls-29" d="M1116.11,204.78c-.07-1.43-.84-3.84-2.7-2.46-.85.63-.43,2.16-1.21,2.68-1.9,1.25-2.09-1.56-2.21-2.81-.48-4.72,1.64-9.26,1.08-13.9-.79-6.47-6.83-10.86-12.52-13a29.23,29.23,0,0,0-18.91-.13,29.2,29.2,0,0,0-18.9.13c-5.69,2.19-11.73,6.58-12.52,13-.57,4.64,1.56,9.18,1.08,13.9-.12,1.25-.31,4.06-2.21,2.81-.77-.52-.36-2.05-1.21-2.68-1.86-1.38-2.63,1-2.7,2.46a31.79,31.79,0,0,0,2.73,15.28c1.31,2.67,3.13,3.44,5,5.38,2,2.14,1.69,6.35,2.45,9a15.47,15.47,0,0,0,2.34,4.93c2.24,3.1,6.15,4.54,8.71,7.35,2.41,2.64,4.63,5.27,7.94,7,2,1,4.78,1,7.33.92,2.57.12,5.35.11,7.34-.92,3.31-1.7,5.53-4.33,7.94-7,2.57-2.81,6.47-4.25,8.71-7.35a15.71,15.71,0,0,0,2.35-4.93c.75-2.68.41-6.89,2.44-9,1.83-1.94,3.65-2.71,5-5.38A31.79,31.79,0,0,0,1116.11,204.78Z"/><path class="cls-30" d="M1045.64,198.38a21.19,21.19,0,0,1,.79,7.35c0,.36,0,.91,0,1.49h3.4a16.8,16.8,0,0,0,0-1.8,47.37,47.37,0,0,1,.08-5.46c.13-2.61-.19-5.29.07-7.89.68-6.83,6.52-11.64,13-12.15,4.77-.37,9.54.6,14.31.61,5.9,0,8.57-2.82,13.22-5.72,1.25-.78.5-.88,1.8-.54.85.21,1.93,1.36,2.66,1.81,4.42,2.7,12.35,5.39,13.63,11.1,1,4.49.8,9.07.68,13.63a49.14,49.14,0,0,0-.43,6.41h2.65c.85-2.75,2-6.49,2.27-7.94,1.12-5.8.85-8.34,1.12-10.81,1-8.74,1.45-17.11-3.94-24.45-5.77-7.84-14.32-12.43-18.88-11.85-.26,0-3.35.31-3,.66-1.63-1.46-4.48-1.56-6.49-2-10.72-2.56-24.26,4.1-32,11.22-8.22,7.51-7,17.17-6.07,26.46C1044.78,191.71,1044.74,195.29,1045.64,198.38Z"/><path class="cls-31" d="M1059.78,295c-.14-1.5,19.63-22.27,19.63-22.27h2.52l18.8,21-19.63,52.51Z"/><path class="cls-32" d="M1090.51,317.05l-6.68-30.34a4.17,4.17,0,0,1,.39-2.84l2.54-4.78a.77.77,0,0,0-.17-.83l-2.93-2.91a7.89,7.89,0,0,1-1.86-2.14c-.27-.63-1-2-1.91-1.42s-1,1.32-1.53,2a17.29,17.29,0,0,1-1.87,1.86l-2.62,2.6a.75.75,0,0,0-.17.83l2.53,4.78a4.11,4.11,0,0,1,.39,2.84l-6.68,30.34a.73.73,0,0,0,0,.46l9.26,23.78a.74.74,0,0,0,1,.41.73.73,0,0,0,1-.41l9.27-23.78A.8.8,0,0,0,1090.51,317.05Z"/><path class="cls-17" d="M1079.05,335.56l-15.31-50.86-6.44-21.38-.69.21c-1.61.47-5.91,1.77-11.37,3.41-14.63,4.44-37.46,11.37-38.08,11.78s-8.24,16-12.95,25.66v38.45c1,3.83,2.27,6.89,3.84,8.47,19.64,19.74,71.55,18.87,81.37,20.09Z"/><path class="cls-17" d="M1165.72,303.3c-4.72-9.72-11.82-24.18-12.42-24.58s-23.46-7.34-38.09-11.78c-5.43-1.64-9.74-2.92-11.36-3.41l-.7-.21-9,28.95L1080,338.09v.45l-.9-3,.37,35.83.53.07c4.39-.33,70.28-.07,82.5-20.16,1.23-2,2.34-5.52,3.27-9.75Z"/><path class="cls-33" d="M1101,252.76l-20.27,18.29a.81.81,0,0,1-1.09,0l-20.27-18.29L1054.88,266l8.76,29,15.92-22.4a.82.82,0,0,1,1.33,0l15.92,22.4,8.77-29Z"/><path class="cls-20" d="M1106.48,282l10.64,4.49L1080,356.91l-36.6-70.39L1054,282l-12.23-6a90.05,90.05,0,0,1,3.5-9.08c5.46-1.64,9.76-2.94,11.37-3.41l7.13,21.17,5.66,16.82,10.23,33.61,11.42-33.61,3.12-9.25,9.68-28.74c1.62.49,5.93,1.77,11.36,3.41a87.67,87.67,0,0,1,3.5,9.08Z"/><polygon class="cls-26" points="1193.77 350.79 955.21 350.79 955.21 367.69 955.21 377.28 1193.77 377.28 1193.77 367.69 1193.77 350.79"/><path class="cls-23" d="M1143.05,295H1017.47a1.82,1.82,0,0,0-1.55.76,1.47,1.47,0,0,0-.23,1l7.4,65.92A1.8,1.8,0,0,0,1025,364h110.57a1.83,1.83,0,0,0,1.88-1.35l7.4-65.92A1.64,1.64,0,0,0,1143.05,295Zm-49.81,42.72a.46.46,0,0,1-.47.34h-27.43a.47.47,0,0,1-.48-.34L1063,321.4a.41.41,0,0,1,.45-.43h31.15a.41.41,0,0,1,.44.43l-.81,7.18Z"/><path class="cls-24" d="M1094.63,321h-31.15a.41.41,0,0,0-.45.43l1.83,16.35a.47.47,0,0,0,.48.34h27.43a.46.46,0,0,0,.47-.34l1-9.17.81-7.18A.41.41,0,0,0,1094.63,321Z"/><path class="cls-26" d="M1123,196.67c1-11.91,0-27.52-9.09-39.22-6.62-8.53-20.43-15.37-34.32-15.37-13.59,0-27.69,6.84-34.31,15.37-9.08,11.7-10.08,27.31-9.08,39.22-5.19,2.69-6.56,9.44-5.56,16.8,1.18,8.67,5.19,11,13,10.34l-4.37-28.18h0c-.83-11.33.24-25.8,8.47-36.41,6-7.77,19.29-13.72,31.86-14.15,14.06.43,25.83,6.38,31.86,14.15,8.24,10.61,9.31,25.08,8.48,36.41h0l-4.37,28.18h.18l-13.57,15.81a2.11,2.11,0,0,0-2.81,0l-7,6.51a1.94,1.94,0,0,0,0,2.8l1.43,1.41a2.11,2.11,0,0,0,2.9.05l7-6.51a1.92,1.92,0,0,0,.53-2l15.56-18.15c5.13-.52,7.91-3.37,8.86-10.34C1129.52,206.11,1128.15,199.36,1123,196.67Z"/><polygon class="cls-3" points="901.33 259.35 901.33 262.23 901.33 286.07 932.8 314.95 942.83 303.61 959.09 285.21 959.09 255.9 901.33 259.35"/><path class="cls-4" d="M980.78,209.35c-.1-2-1.17-5.41-3.8-3.47-1.2.89-.61,3.05-1.72,3.78-2.67,1.76-2.93-2.21-3.11-4-.67-6.66,2.32-13.06,1.52-19.61C972.56,177,964,170.77,956,167.68s-14.74-18.59-22.92-15.74c-8.17-2.85-26.14-.72-34.1,2.35s-12.86,22.68-14,31.8c-.8,6.55,2.2,12.95,1.52,19.61-.17,1.75-.43,5.72-3.11,4-1.11-.73-.52-2.89-1.71-3.78-2.63-1.94-3.71,1.45-3.82,3.47-.36,7.19.67,15,3.85,21.55,1.86,3.78,4.43,4.86,7,7.59,2.86,3,2.39,9,3.45,12.74a21.76,21.76,0,0,0,3.3,7c3.17,4.37,8.67,6.41,12.3,10.38,3.39,3.72,6.53,7.42,11.2,9.82,2.81,1.45,6.73,1.47,10.34,1.3,3.61.17,7.54.15,10.35-1.3,4.66-2.4,7.8-6.1,11.2-9.82,3.62-4,9.12-6,12.28-10.38a21.57,21.57,0,0,0,3.31-7c1.06-3.78.59-9.72,3.45-12.74,2.58-2.73,5.15-3.81,7-7.59C980.12,224.39,981.15,216.54,980.78,209.35Z"/><path class="cls-5" d="M881.39,200.32a30.09,30.09,0,0,1,1.11,10.37c0,.51-.06,1.27,0,2.1h4.8a25,25,0,0,0,0-2.54,68.25,68.25,0,0,1,.1-7.7c.19-3.68-.27-7.46.1-11.13.81-8.1,7.63-15.86,11.26-22.93,2.31-4.5,6.54-9,11.55-8.25,3,.44,5.29,2.6,7.63,4.46a47.38,47.38,0,0,0,21.39,9.55c9,1.53,28.25-1.4,30.86,10.27,1.41,6.33,1.13,12.8,1,19.23,0,.91-.81,5.82-.61,9h3.74c1.21-3.88,2.8-9.16,3.2-11.2,1.58-8.17,1.21-11.77,1.59-15.25,1.36-12.33,2-24.14-5.56-34.48-9.39-12.76-23.87-20.69-39.81-20.7-13.39,0-32.57,4.71-40.13,16.64-14.32,3.35-14.91,27.45-13.8,38.55C880.16,190.91,880.12,196,881.39,200.32Z"/><path class="cls-6" d="M901.33,336.65c-.19-2.13,27.68-31.42,27.68-31.42h3.57l26.51,29.59L931.4,408.88Z"/><path class="cls-7" d="M944.69,367.7l-9.44-42.79a5.82,5.82,0,0,1,.56-4l3.58-6.73a1.11,1.11,0,0,0-.25-1.17L935,308.89a11,11,0,0,1-2.61-3c-.39-.88-1.46-2.84-2.71-2-1.08.73-1.45,1.87-2.15,2.84a25.22,25.22,0,0,1-2.64,2.63L921.2,313a1.08,1.08,0,0,0-.24,1.17l3.58,6.73a5.82,5.82,0,0,1,.55,4l-9.43,42.79a1,1,0,0,0,.05.65l13,33.55a2,2,0,0,0,2.82,0l13.06-33.55A1.11,1.11,0,0,0,944.69,367.7Z"/><path class="cls-8" d="M928.51,393.81l-21.6-71.72-9.08-30.17-1,.3c-2.28.66-8.35,2.5-16,4.81-20.65,6.26-52.85,16-53.71,16.61s-11.63,22.54-18.26,36.19v54.23c1.38,5.41,3.18,9.73,5.4,11.95C842,443.87,915.19,442.64,929,444.36Z"/><path class="cls-8" d="M1050.76,348.31c-6.67-13.7-16.68-34.1-17.52-34.67s-33.08-10.35-53.73-16.61c-7.66-2.31-13.74-4.13-16-4.81l-1-.3-12.68,40.84-20.05,64.63V398l-1.27-4.21.52,50.55.75.09c6.19-.46,99.13-.09,116.37-28.44,1.73-2.84,3.3-7.79,4.61-13.75Z"/><path class="cls-9" d="M959.53,277l-28.59,25.79a1.13,1.13,0,0,1-1.53,0L900.81,277l-6.39,18.72,12.36,40.9,22.46-31.6a1.15,1.15,0,0,1,1.87,0l22.46,31.6,12.35-40.9Z"/><path class="cls-10" d="M967.2,318.31l15,6.33-52.43,99.28-51.63-99.28,15-6.33-17.25-8.48a126.71,126.71,0,0,1,4.94-12.8c7.68-2.31,13.75-4.15,16-4.81l10,29.87,8,23.71,14.42,47.4,16.12-47.4,4.39-13,13.66-40.54c2.28.69,8.36,2.5,16,4.81a121.53,121.53,0,0,1,4.93,12.8Z"/><path class="cls-27" d="M990.45,197.91c1.41-16.81,0-38.82-12.81-55.31-9.34-12-28.82-21.7-48.4-21.7-19.18,0-39.07,9.66-48.41,21.7C868,159.09,866.62,181.1,868,197.91c-7.31,3.8-9.24,13.31-7.83,23.7,1.66,12.22,7.31,15.47,18.37,14.58l-6.16-39.75h0c-1.18-16,.33-36.38,11.95-51.34,8.52-11,27.2-19.35,44.94-20,19.83.62,36.42,9,44.94,20,11.62,15,13.12,35.37,12,51.34h0l-6.16,39.75h.24L961,258.52a3,3,0,0,0-4,0l-9.8,9.18a2.73,2.73,0,0,0-.07,3.95l2,2a3,3,0,0,0,4.08.07l9.8-9.18a2.73,2.73,0,0,0,.76-2.77l21.95-25.6c7.23-.74,11.15-4.76,12.48-14.58C999.7,211.22,997.76,201.71,990.45,197.91Z"/><polygon class="cls-11" points="753.84 415.3 753.84 439.13 753.84 452.66 1090.33 452.66 1090.33 439.13 1090.33 415.3 753.84 415.3"/><path class="cls-12" d="M950.48,373.24a.58.58,0,0,1,.63.61L950,384a320.33,320.33,0,0,1,58.24,50,2.55,2.55,0,0,0,2.64-1.9l10.44-93a2.31,2.31,0,0,0-2.52-2.44H841.65a2.57,2.57,0,0,0-2.18,1.08c14.75,2.66,51.43,11.23,93.29,35.51Z"/><path class="cls-13" d="M950,384l-1.45,12.94a.64.64,0,0,1-.66.48H909.17a.64.64,0,0,1-.66-.48l-2.59-23.06a.57.57,0,0,1,.62-.61h26.22c-41.86-24.28-78.54-32.85-93.29-35.51a2,2,0,0,0-.33,1.36l10.44,93a2.55,2.55,0,0,0,2.66,1.9h156A320.33,320.33,0,0,0,950,384Z"/><path class="cls-14" d="M906.54,373.24a.57.57,0,0,0-.62.61l2.59,23.06a.64.64,0,0,0,.66.48h38.69a.64.64,0,0,0,.66-.48L950,384c-5.8-3.89-11.55-7.45-17.21-10.73Z"/><path class="cls-15" d="M950.48,373.24H932.76c5.66,3.28,11.41,6.84,17.21,10.73l1.14-10.12A.58.58,0,0,0,950.48,373.24Z"/></g><path class="cls-34" d="M1259.83,940.15l-59-15.52c7.49-49,22.66-103.23,42.18-160.5l59,15.52Z"/><path class="cls-34" d="M1475,940.15l59-15.52c-7.5-49-22.66-103.23-42.19-160.5l-59,15.52Z"/><path class="cls-34" d="M1534,922.79c-.06.16-.16.32-.22.48-.21.54-.48,1.07-.69,1.61-2.09,4.75-4.28,9.41-6.58,14.06v0c-2.62,5.35-5.35,10.7-8.18,15.94q-10.83,20.13-23.69,39.52h-68.93c0-.05,0-.11,0-.16.69-2.09,1.39-4.17,2.14-6.26a268.08,268.08,0,0,1,31.34-62.67v-.06c2.78-4.06,5.72-8.07,8.66-11.87,1.6-2,3.21-4,4.81-5.93.7-.81,1.39-1.56,2-2.36q5.87-6.81,12.2-13l46.74,30.43Z"/><path class="cls-34" d="M1478.58,865c-2.89,12.84-3.8,26.37-3.8,40.16,0,11.5.54,23.16,1.07,34.82.43,9.62.86,19.3.91,28.82v.05a238.12,238.12,0,0,1-1.17,25.62H1259.22a263.4,263.4,0,0,1-1.07-32.57c.16-7.27.48-14.6.8-21.92.54-11.66,1.12-23.32,1.07-34.82,0-13.79-.91-27.27-3.8-40.16-4.92-21.92-6.84-50-13.26-100.7,0,0,.16,0,.22-.1,27.22-11.34,62.94-26.85,68.82-32.46,5.72,2.24,16.63,3.69,27.54,4.7s21.93,1.66,27.86,2.3c11.87-1.28,43.91-2.51,55.4-7,5.89,5.61,41.61,21.12,68.83,32.46,0,.05.16.05.21.1C1485.43,815,1483.5,843.06,1478.58,865Z"/><polygon class="cls-8" points="1359.61 795.74 1354.12 769.66 1367.4 769.3 1380.68 769.66 1375.2 795.74 1359.61 795.74"/><polygon class="cls-8" points="1359.61 795.74 1346.69 931.4 1367.4 949.73 1388.11 931.4 1375.2 795.74 1359.61 795.74"/><path class="cls-21" d="M1384.3,994.45H1269.11c0-.11,0-.16,0-.21v.21h-9.84a263.4,263.4,0,0,1-1.07-32.57c4.12-1.55,7.22-5.35,9.14-12.14,0,0,.27-23,.54-35,.05-2,.11-3.63.16-4.86a6.18,6.18,0,0,1,0-1c1.07-31.18,3.69-100.75,5.19-100.75.43,9.57.85,19.09,1.34,28.61.58,12.3,1.23,24.7,2.72,37,1.72,14.86,4.76,29.36,10.54,43a97,97,0,0,0,6.9,13.26c11.28,18.23,28.66,32.94,49.36,36.47-16.26-2.3-32.57-4.6-48.88-6.79-2.57-.38-5.08-.75-7.65-1.07a73.91,73.91,0,0,0,11,8.34C1323.28,982.52,1355.8,984.82,1384.3,994.45Z"/><path class="cls-21" d="M1526.55,939c-2.62,5.35-5.35,10.7-8.18,15.94q-10.83,20.13-23.69,39.52h-24.92v-.16h-54.17a46.45,46.45,0,0,0,12.35-6.26c13-9.09,21.44-24.17,26.63-41.71a171.69,171.69,0,0,0,4.71-21v-.06c.42-2.4.74-4.81,1.07-7.27,1.07-8.66,1.71-17.43,2-26,1.07-32.2-2.56-61.71-3.31-71.61.85,7.38,10.43,41,13.74,87.12.06.42.06.9.11,1.39.21,2.94.37,13.58.43,24.86.16,13,.26,26.79.37,30.43a13.46,13.46,0,0,0,3.1,4.6v.05C1486.34,978.09,1505.21,959.85,1526.55,939Z"/><path class="cls-3" d="M1329.56,701.66l.24,11.51c-.06.06,0,.06,0,.06l.18,12.27v.06l.11,5.48.71,39.42,23.37-.48,12.62-.23h.06l1-.06,11.57-.24,24-.47,1.06-38,.12-4.84.35-12.22v0l.3-10.09Z"/><path class="cls-4" d="M1366.85,568.66c33.89-.13,60.92,22.16,58.4,62.33a103.67,103.67,0,0,1-1.73,13.8c7.54-4.27,14.15,3.19,11.5,14.61-1.87,8.06-5.79,18.87-10.25,20.5-5.35,2-7-1.39-7.29-1.49-2.39,11.61-3.36,22-7.49,28.13a195.66,195.66,0,0,1-12.19,16.9c-8,9.36-14.58,11.68-29.8,11.77h-.17c-15.22.09-21.86-2.14-29.95-11.4a195.94,195.94,0,0,1-12.4-16.74c-4.22-6.1-5.31-16.46-7.85-28-.31.1-1.89,3.46-7.27,1.57-4.48-1.56-8.54-12.33-10.51-20.36-2.8-11.39,3.71-18.93,11.31-14.75a105.63,105.63,0,0,1-1.91-13.78C1306.23,591.6,1333,569,1366.85,568.66Z"/><path class="cls-5" d="M1415.67,580.31c13,15.17,17.11,32.05,12,63.27-5.09,2.86-7.78,6.66-9.73,22.17-3.69,1-5.3,1.28-8.66,2.44,20.24-82.7-11.79-84.15-20.59-85.86-7.16-1.4-36.42-1.21-43.56.27-8.77,1.83-40.78,3.68-19.49,86.12-3.38-1.11-5-1.33-8.69-2.33-2.15-15.48-4.88-19.24-10-22-5.48-31.14.06-46.83,11.23-63.41C1333.69,557.92,1392.4,553.2,1415.67,580.31Z"/><path class="cls-5" d="M1346.65,568.81c-4.31,0-8.12,1.65-11.9,3.72-5.22,2.86-18.56,22.2-15.77,26.75,11.29,18.46,46.28,23.73,71,24.42-2.71-2.08-7.36-6.25-8.27-10.19a65.62,65.62,0,0,0,42.76,3.43c-4.41-12.08-9.12-24.63-18.51-33.41-7.63-7.14-17.76-11.14-28-13S1357.09,568.71,1346.65,568.81Z"/><path class="cls-35" d="M1330.93,792.16c-13.17-18.58-21.08-38-22.75-58.44l21.74-12.09c4,18.8,17.46,36.84,37.48,47.76Z"/><path class="cls-35" d="M1403.88,792.16c13.16-18.58,21.07-38,22.74-58.44l-21.74-12.09c-4,18.8-17.45,36.84-37.48,47.76Z"/><path class="cls-36" d="M1358.93,658.46v-9a.7.7,0,0,0-.66-.72h-26.33a1.6,1.6,0,0,0-1.6,1.61v8a12.11,12.11,0,0,0,12.13,12.09h4.46A12,12,0,0,0,1358.93,658.46Zm4.47-9v9a16.46,16.46,0,0,1-16.47,16.46h-4.46a16.58,16.58,0,0,1-16.6-16.55v-8a6.08,6.08,0,0,1,6.07-6.07h26.33A5.14,5.14,0,0,1,1363.4,649.45Z"/><path class="cls-36" d="M1375.87,658.46v-9a.7.7,0,0,1,.67-.72h26.32a1.61,1.61,0,0,1,1.61,1.61v8a12.11,12.11,0,0,1-12.14,12.09h-4.46A12,12,0,0,1,1375.87,658.46Zm-4.46-9v9a16.45,16.45,0,0,0,16.46,16.46h4.46a16.58,16.58,0,0,0,16.6-16.55v-8a6.07,6.07,0,0,0-6.07-6.07h-26.32A5.14,5.14,0,0,0,1371.41,649.45Z"/><polygon class="cls-36" points="1328.09 653.82 1314.57 653.82 1313.22 649.36 1328.09 649.36 1328.09 653.82"/><polygon class="cls-36" points="1406.71 653.82 1420.24 653.82 1421.58 649.36 1406.71 649.36 1406.71 653.82"/><rect class="cls-36" x="1362.33" y="649.36" width="10.14" height="4.46"/><path class="cls-37" d="M1336.31,651l-3.74,3.91v3.5a9.71,9.71,0,0,0,1.06,4.36L1344.89,651Z"/><path class="cls-37" d="M1381.59,651l-3.75,3.91v3.5a9.84,9.84,0,0,0,1.06,4.36L1390.17,651Z"/><path class="cls-34" d="M1347.69,994.45h-68.93c-35.8-11.15-77.56-70.64-77.78-71.18,0-.16-.16-.32-.21-.48l.32-.21,46.74-30.43C1252.05,896.26,1344.53,984.88,1347.69,994.45Z"/><path class="cls-27" d="M1436.14,638.65c1.59-18.94,0-43.74-14.43-62.32-10.53-13.56-32.46-24.43-54.53-24.43-21.61,0-44,10.87-54.52,24.43-14.43,18.58-16,43.38-14.43,62.32-8.24,4.27-10.42,15-8.83,26.69,1.88,13.77,8.24,17.42,20.7,16.42L1303.16,637h-.06c-1.32-18,.37-41,13.47-57.84,9.59-12.35,30.63-21.8,50.61-22.49,22.34.69,41,10.14,50.62,22.49C1430.9,596,1432.59,619,1431.27,637h-.06l-6.94,44.77.28,0L1403,706.91a3.35,3.35,0,0,0-4.47,0l-11,10.34a3.08,3.08,0,0,0-.07,4.45l2.27,2.25a3.35,3.35,0,0,0,4.6.07l11-10.34a3.08,3.08,0,0,0,.85-3.12l24.73-28.84c8.14-.83,12.56-5.36,14.06-16.42C1446.56,653.64,1444.38,642.92,1436.14,638.65Z"/><path class="cls-3" d="M1384.5,956.91a55.22,55.22,0,0,1-11.22,2.93,142.43,142.43,0,0,1-18.85,1.6c-1.23,0,6.88,7.62,9.67,8,4.45.59,6.34.9,10.77.19s11.56-.91,14.21-4.52c1.84-2.5,1.93-6.67.16-7.91A6.31,6.31,0,0,0,1384.5,956.91Z"/><path class="cls-4" d="M1354.43,961.44l30,8.3,29.39,17.57L1360,986c-8.8,4.31-19,2.45-29.51,2.82a9.27,9.27,0,0,1-8.56-13.64C1327.69,964.64,1341,964.26,1354.43,961.44Z"/><path class="cls-11" d="M1399.86,972.05l28.08-128.17c1.36-6.21,7.5-11.24,13.71-11.24h170.76c6.22,0,10.15,5,8.79,11.24l-28.08,128.17c-1.36,6.21-7.5,11.25-13.71,11.25H1408.64C1402.43,983.3,1398.5,978.26,1399.86,972.05Z"/><path class="cls-13" d="M1414.68,983.3h170.77c6.21,0,12.34-5,13.7-11.25l28.08-128.17c1.36-6.21-2.57-11.24-8.78-11.24H1447.68c-6.21,0-12.35,5-13.71,11.24L1405.9,972.05C1404.54,978.26,1408.47,983.3,1414.68,983.3Z"/><path class="cls-38" d="M1509.2,908c-1.39,6.36,2.64,11.52,9,11.52s12.65-5.16,14-11.52-2.63-11.52-9-11.52S1510.6,901.6,1509.2,908Z"/><polygon class="cls-11" points="1292.82 994.45 1339.16 994.45 1574.75 994.45 1574.75 983.29 1292.82 983.29 1292.82 994.45"/><rect class="cls-39" x="1400.32" y="983.3" width="174.43" height="11.15"/><rect class="cls-34" x="221.84" y="520.43" width="410.03" height="539.62" transform="translate(-164.14 113.92) rotate(-12.77)"/><polygon class="cls-40" points="177.02 570.22 293 1081.86 543.05 1025.18 546.37 1039.81 620.4 1023.03 617.08 1008.4 683.13 993.43 567.15 481.79 177.02 570.22"/><rect class="cls-34" x="234.71" y="486.75" width="410.03" height="539.62" transform="translate(-156.37 115.93) rotate(-12.77)"/><rect class="cls-13" x="317.8" y="628.74" width="243.16" height="8" transform="translate(-129.01 112.79) rotate(-12.77)"/><polyline class="cls-41" points="264.86 670.52 276.94 679.2 295.75 655.66"/><rect class="cls-13" x="331.06" y="687.25" width="243.16" height="8" transform="translate(-141.62 117.17) rotate(-12.77)"/><polyline class="cls-41" points="278.13 729.03 290.21 737.72 309.01 714.17"/><rect class="cls-13" x="344.32" y="745.77" width="243.16" height="8" transform="translate(-154.22 121.55) rotate(-12.77)"/><polyline class="cls-41" points="291.39 787.55 303.47 796.23 322.27 772.69"/><rect class="cls-13" x="357.59" y="804.29" width="243.16" height="8" transform="translate(-166.83 125.93) rotate(-12.77)"/><polyline class="cls-41" points="304.65 846.06 316.74 854.75 335.54 831.2"/><rect class="cls-13" x="370.85" y="862.8" width="243.16" height="8" transform="translate(-179.44 130.31) rotate(-12.77)"/><polyline class="cls-41" points="317.92 904.58 330 913.26 348.8 889.72"/><polygon class="cls-8" points="641.47 1039.06 599.47 1025.51 567.43 1055.84 538.58 928.58 612.62 911.8 641.47 1039.06"/><path class="cls-42" d="M637.73,917.33a13.53,13.53,0,0,0-7.61-9.32A13.5,13.5,0,0,0,617,890.27a13.52,13.52,0,0,0-19.05-12.1,13.52,13.52,0,0,0-21.7-4.12,13.48,13.48,0,0,0-21.05,4.71,13.5,13.5,0,0,0-17.74,13.15A13.52,13.52,0,0,0,525.33,911a13.52,13.52,0,0,0-4.12,21.7,13.49,13.49,0,0,0,4.7,21.05,13.5,13.5,0,0,0,13.15,17.74,13.53,13.53,0,0,0,19.06,12.1,13.51,13.51,0,0,0,21.69,4.12,13.5,13.5,0,0,0,21.06-4.7,13.5,13.5,0,0,0,17.74-13.15,13.53,13.53,0,0,0,12.1-19.06,13.51,13.51,0,0,0,4.12-21.69A13.52,13.52,0,0,0,637.73,917.33Zm-30.81,31.75a13.41,13.41,0,0,0-2.08,7.52,13.51,13.51,0,0,0-12.06,7.93,13.46,13.46,0,0,0-13.6,3.11,13.5,13.5,0,0,0-14.28-2,13.53,13.53,0,0,0-12.62-7.92,13.51,13.51,0,0,0-7.93-12.06,13.46,13.46,0,0,0-3.11-13.6,13.49,13.49,0,0,0,2-14.28,13.53,13.53,0,0,0,7.92-12.62,13.48,13.48,0,0,0,12-7.93,13.47,13.47,0,0,0,13.61-3.11,13.35,13.35,0,0,0,6.59,3,13.5,13.5,0,0,0,7.69-1A13.53,13.53,0,0,0,603.76,904a13.47,13.47,0,0,0,7.93,12.06,13.4,13.4,0,0,0,3.11,13.6,13.45,13.45,0,0,0-2,14.28A13.51,13.51,0,0,0,606.92,949.08Z"/><circle class="cls-43" cx="578.02" cy="930.86" r="45.12" transform="translate(-165.6 126.11) rotate(-10.9)"/><rect class="cls-8" x="237.88" y="539.12" width="314.55" height="41.6" transform="translate(-114 101.21) rotate(-12.77)"/></g></g></svg>