<svg id="Layer_1" data-name="Layer 1" xmlns="http://www.w3.org/2000/svg" viewBox="0 0 1863.76 1544.13"><defs><style>.cls-1{fill:#39f;}.cls-2{fill:#c1dff7;}.cls-3,.cls-4{fill:#c41339;}.cls-3{opacity:0.4;}.cls-4{opacity:0.75;}.cls-5{opacity:0.25;}.cls-6{fill:#231f20;}.cls-7{fill:#fff;}</style></defs><title>RRS</title><path class="cls-1" d="M1471.71,761.61c0-.94,0-1.88,0-2.82,0-.55,0-1.11,0-1.67q-.26-8.93-.82-17.81c0-.73-.1-1.46-.14-2.19,0-.23,0-.47-.05-.7a541.08,541.08,0,0,0-8.48-66.38c-.16-.84-.37-1.67-.54-2.51s-.32-1.45-.47-2.18A542.93,542.93,0,0,0,1412,524.87q-11.85-23.06-25.91-45c-.38-.59-.8-1.16-1.18-1.75s-.9-1.3-1.33-2-1.09-1.59-1.62-2.39q-3.2-4.85-6.5-9.61-3.69-5.32-7.5-10.57c-1.09-1.5-2.22-3-3.33-4.45-2.91-3.9-5.74-7.86-8.76-11.69a536.9,536.9,0,0,0-72.78-75.8q-10.1-8.62-20.67-16.8a534.62,534.62,0,0,0-44.17-30.71q-11.51-7.19-23.47-13.83c-4.33-2.41-8.81-4.62-13.23-6.92q-8.89-4.62-18-9T1145.14,276h0a.76.76,0,0,0-.16-.06c-.83-.36-1.67-.66-2.51-1q-10.77-4.56-21.62-8.65l-2.16-.83-1.08-.37c-7.18-2.64-14.39-5.09-21.61-7.41-1.41-.44-2.8-.91-4.2-1.35-7.07-2.2-14.16-4.21-21.26-6.1-2-.52-3.91-1-5.86-1.55q-10.11-2.58-20.24-4.72-3.4-.74-6.81-1.43c-.88-.17-1.75-.3-2.62-.47-234.59-45.85-477.12,69.36-586.41,289.46-1.45,3.11-2.94,6.2-4.41,9.3-2.82,6-5.66,11.9-8.28,18-2.21,5.14-4.16,10.32-6.2,15.49q-2.44,6.3-4.91,12.6c-46.63,127.4-42.1,262.25,4,380.86.15.38.28.77.43,1.16,2.26,5.77,4.69,11.46,7.15,17.15,1,2.29,1.92,4.61,2.94,6.9,2.55,5.69,5.28,11.3,8,16.91,1.08,2.21,2.1,4.45,3.22,6.65,2.83,5.58,5.84,11.08,8.86,16.56,1.19,2.15,2.31,4.33,3.52,6.47,3.1,5.43,6.36,10.77,9.65,16.1,1.3,2.1,2.53,4.25,3.86,6.34,3.33,5.25,6.84,10.39,10.36,15.53,1.43,2.09,2.79,4.21,4.24,6.27,3.55,5,7.28,10,11,14.87,1.57,2.08,3.08,4.2,4.69,6.26,3.75,4.81,7.68,9.5,11.61,14.19,1.72,2.05,3.37,4.16,5.13,6.19,4,4.57,8.07,9,12.18,13.46,1.88,2,3.69,4.13,5.61,6.14,4.11,4.31,8.38,8.48,12.65,12.66,2.06,2,4.06,4.12,6.16,6.12,4.26,4,8.68,7.93,13.08,11.84,2.26,2,4.44,4.09,6.74,6.06,4.39,3.77,8.94,7.39,13.47,11,2.46,2,4.83,4,7.32,6,4.53,3.51,9.22,6.86,13.89,10.24,2.63,1.91,5.19,3.9,7.86,5.77,4.71,3.28,9.57,6.39,14.41,9.53,2.77,1.81,5.47,3.71,8.28,5.47,5,3.1,10.11,6,15.21,9,2.81,1.64,5.55,3.37,8.41,5,5.52,3.07,11.2,5.94,16.86,8.83,2,1,4,2.15,6.05,3.17.54.27,1.06.57,1.6.84,7.56,3.71,15.28,7.23,23.09,10.63.72.31,1.41.67,2.14,1l.16.08c12.48,5.36,25.06,10,37.69,14.4a537.28,537.28,0,0,0,145.8,28.81q13.18.72,26.34.8t26.25-.49A542.35,542.35,0,0,0,1224,1226.14c3.5-2.24,6.89-4.66,10.33-7a537.35,537.35,0,0,0,90.19-76.31q9.06-9.61,17.7-19.7a536.47,536.47,0,0,0,47.52-64.83A544.35,544.35,0,0,0,1428,985.22c5.48-12.76,10.26-25.63,14.69-38.56q3.67-10.7,6.9-21.45c.43-1.45.83-2.9,1.25-4.36,1.93-6.69,3.77-13.4,5.43-20.12l.09-.4c1.57-6.4,3.15-12.8,4.48-19.21.15-.7.25-1.41.39-2.11s.26-1.49.41-2.23A535.58,535.58,0,0,0,1471.71,761.61Z"/><path class="cls-2" d="M1059.9,612.86l5.15-4.31,6.78-.14,6.07,1.31,5.89-4.55c.37-1.58.74-3.16,1.1-4.74l-2.61-3.36-3.12-3.57-9-.21-9.46,1.91c.64-1.28,1.27-2.55,1.9-3.83l13.75-.74h4.25c.13-1.47.25-2.95.37-4.42l-4.72.94q-.46-2.74-.91-5.49l-7.54-1.91,2.4-3.57-4.32-3.43q-.58-3.63-1.17-7.23l3.54,2.54c.86-2.09,1.73-4.18,2.59-6.25l-4.25-1.15,3.9-2.9-2.82-3.91c.22-1.58.43-3.16.64-4.73l-.33-4,2.4-3.44-2.78-2.75,1.86-5.81-.84-5.22-8.24,7.62-5.39,2.25-9.31,4c.38-1.87.77-3.74,1.15-5.6l-4.7-1.3c.39-1.49.79-3,1.18-4.46l-4.73-5.67,4.86-4.6,1.69-3.11-3-3.31,3.42-.81-7.61-3.5c-.25-1.71-.51-3.41-.76-5.1-.41-1.4-.83-2.8-1.24-4.19l-3.66-4.06-5.84,2-8.25-4.23-2.9-3.22-5.09-.37c.31,1.52.63,3.05.94,4.58l-5.11,2.81-2.45,4.39q.34,3.08.7,6.17l-4.13-1.05c-.58,1-1.15,2.07-1.72,3.11l-3.89-.42c-.58,1.4-1.15,2.8-1.73,4.21l2.42,4.19q.1,4.13.22,8.29l.72,5.24-3.91,1.78,2.2,2.52-3.67,2.46-8.08,4.08-10,1.12c-.91,1.7-1.8,3.4-2.7,5.11.32.88.64,1.75,1,2.63-1.06,2.78-2.13,5.57-3.19,8.36l-6.84,6.41-4.89,1.49-3.9-6.09-1.92-6.43s3-7.89,3.7-9.27,5.17-8.63,5.17-8.63c-1.69-1.58-3.38-3.16-5.05-4.74l-6-1.77c-.14-1.17-.29-2.34-.43-3.5l-4.81-1.85c-.29-1.59-.59-3.17-.88-4.75l-4.08-1c0-2.19.09-4.37.13-6.54l-5.66-4.33c-1.23-1.93-2.46-3.84-3.69-5.75-2.52-1-5-1.91-7.55-2.85.55-2.32,1.09-4.64,1.64-6.94q-.73-3.22-1.46-6.44l-5-.25c.39-2,.77-4,1.16-6l.87-4.44c2.16-.78,4.31-1.57,6.47-2.34q-.3-1.44-.6-2.85l4.2,1.55c0-1,.07-2.07.11-3.1l7-3.16c2.38-.17,4.75-.33,7.13-.48.84-1.43,1.68-2.84,2.52-4.25L948.8,464l4.33-1.5,2-3.38,3.54.8c.61-1.66,1.21-3.31,1.82-5l4.07-1c1.07,1.41,2.13,2.83,3.2,4.25L973,458c1.06-1.14,2.13-2.27,3.19-3.4l-1.08-3.95L965.28,447l5.25-1.09,8.24,2.55c.34,1.64.7,3.28,1.05,4.94l5.07-2.67.33-3.4,3.58-.17,2,5.27,4.31-.41c-.43-2.17-.85-4.34-1.28-6.49l3.56.82q.4,2.66.83,5.33l4.33-1.4,7.17-.31,4.28,1.6c1.14-1.24,2.27-2.48,3.41-3.71l-1.38-3.49c-.13-1.37-.26-2.73-.4-4.09l5.05-2.53-2.12-1.28,3.12-1.27,2.44-3-3.53-1.8c-.13-1.34-.27-2.67-.39-4l-4.93-2.31-4.63-3.63-2,4.05c-.12,1.72-.25,3.45-.37,5.18l-4.28.36q-3.6,1.58-7.2,3.19l-4.4,4.27L986,438.66l-2.22-4.77,2.32-5.52c1.78-1.3,3.55-2.59,5.33-3.87l.63-4.6-5.4-.53-1.75,2.73L980.74,425l-3.26-1.19c1-2.21,2.06-4.42,3.09-6.61,0,0-2.2-3.67-3.83-3.79s-2.69-2.88-2.69-2.88l4.28-1.3.09-1.87,2.43-1.95c.28.73.56,1.46.83,2.19l3.07-.31c-.34-1.22-.68-2.44-1-3.65l-4.06-3.34-4.14-5.68c-.08-1.57-.15-3.14-.22-4.69l4-.86c.3-1.27.6-2.53.91-3.78l4.85.37,6.44,1.41,7.7-.39,4.33-2.93-5.86-3.9-7.59-5.38L987,375.55s-4.08-1.46-6.65-1l-2.22,2.33c-.64,1.71-1.29,3.43-1.93,5.17v4.08c-1.62,1.25-3.24,2.5-4.86,3.77l-4.71,1.08c-.11.73-.23,1.46-.35,2.19-1.51.55-3,1.09-4.51,1.65-.36.8-.72,1.61-1.07,2.42l-3.75.53,2.83,3.37L957.32,404a21.7,21.7,0,0,0,6.4-2l1.59,5.31,4.6,1.65-4.33,2.26h-4c-.68,1-1.36,2.08-2,3.12l3.93.94-3.82,1.51L952.14,418l-5.81,3.76.27,4-3.27-.19c-.21-2.05-.41-4.09-.62-6.11l2.7-2.45.21-3.8-2.59.52q-.81-2.22-1.61-4.43l-3.5.19-1.85,3.69-3,.37-6.56-2.81L923,411l-4.33-1.05-3-3-1-2.75s-2.12-2.66-4.87-2.67l-3.07-2c.61-.9,1.21-1.81,1.81-2.71l-1.56-3.4-6.38-.31L896,391c-2.19.82-4.39,1.65-6.58,2.49l3,2,3.07-1.32,2.15,1.69,4.15-.47,3.3,1.63c-4.6.31-9.2.62-13.78,1l-2.45,2q-.32,2.54-.63,5.1l-2.63,1.51c-.28-1.23-.57-2.46-.85-3.69l2.6-3.92-3.25.8c0-1.12,0-2.23,0-3.34-.65-1.19-1.31-2.37-2-3.55l-5.52,1-9.88-2.9-5.92-1.52L862,387l4.17-1.43,3.39,2.1c0-1.28,0-2.55-.08-3.82-.87-1.08-1.74-2.15-2.6-3.23l-2.94-1.92-1.83,2.67-3-3.36-4.89-2.1-4.38-6.57-4.38-4.21-4.13-2.27q-3.51.92-7,1.86c.83-1.43,1.65-2.84,2.48-4.25l2.54-2.83-3.74.15-3.32,4-3.64,3q-.5-4.79-1-9.49L824,353.11q-.3-3.5-.59-6.95l-1.8-1-1.7,3.06-6.63,2.87c-2.84.91-5.67,1.84-8.5,2.77l-3.68-1.16-6.69,3.85s-4,.11-3.39-1.52q4.49-1.8,9-3.58l9.06-.79,4.17-2.3-4-2.15q-3,2-5.89,4c-.06-.62-.11-1.24-.17-1.86l-5.67-.41q-3.09.84-6.16,1.71c0-1.2.06-2.4.1-3.59l-4.13,2.34-4.81-.12-2.22,5.23c-.41-1-.82-2.07-1.22-3.11l-5.32-6.15c-.57-1.23-1.15-2.45-1.71-3.66l-6.56-1.52-3.61-5.53-4.66-1.37-3.76.67-12.18-6.18-4.74-3.53-7.78-.45-3.64-3.62s-5.64-2-6.74-2.29a5.17,5.17,0,0,1-2.15-1.88L710.7,316c1.13-1,2.28-2,3.42-3l-2.59-2.41q-3.28,1.26-6.56,2.55l-7.2-.61c-2.88.11-5.75.22-8.6.35-2.59,1.33-5.18,2.68-7.75,4q-2,2.3-4,4.61l-7-.92-4-.56c-.5,1.32-1,2.64-1.49,4l-2.78.61,4.72,6c-.21,1.12-.43,2.24-.64,3.36l2.49,1.09,4.3.23-1.51,2.27s1.92,1.39,2.21,2.81-4.42-.72-4.41-.72l.48,2.36-4.89.05-4-.59s3.42-4,3.06-5.87l-6.33.59c-1.06,1.21-2.11,2.41-3.16,3.63-.23-.65-.46-1.3-.68-1.95l-4.84-.33-4.53,2.85,3.8.06,2.68,2.46-3.32.94c-.27,1.42-.54,2.84-.8,4.26l2.44,2.88,3.5-1.8,4.31.68c-.1,1.18-.19,2.36-.29,3.54l4.07-.73,5.73-.74-2.19,2.14c-.82,1.89-1.64,3.8-2.46,5.71l-3.34-.44-4.57,1.51-4.38.66c.24-1,.48-2,.71-3l-3.83,1.72-5,4.17L635.82,368c.5,1,1,2.1,1.52,3.16l3.75,1.47q-1.85,2-3.68,4.1c-.4,1.28-.8,2.57-1.19,3.86l3.34.92,4.71-3.84q-1.93,4.13-3.87,8.29c-.46,2.06-.92,4.14-1.38,6.22l3.83-1.76,3.81-.33q1.77,2.39,3.55,4.82,3.16-.52,6.35-1-4.21,3.54-8.39,7.13-3,2-6,4c-2.23,1.27-4.46,2.55-6.67,3.83l-2.85.13q-3.48.18-6.91.39-3.32,1.68-6.6,3.38c.62,1.14,1.25,2.29,1.87,3.45l2.91-3,4.3-.67,1.5,2.86,8.09-2.94,6-2.59,5.21-3.29c2.45-1.37,4.92-2.73,7.39-4.09q4.35-1.37,8.74-2.71,2.17-1.51,4.38-3L667.09,395l2.92-2,5-4.72,4.47.36,4.19-2.57q3.07-1.47,6.18-2.93c.38,1.23.78,2.45,1.17,3.68l-4.43.12-3.47,2.78-3.24,3.83-2.25,3.65-2.09,1.31q3.34-.21,6.72-.39,3.13-1.23,6.3-2.44l5.07,1.05,4-3.6c.26-1.36.53-2.72.79-4.08l5.74,2.22c-.51,1.28-1,2.57-1.53,3.87l1.62,2.43,6.46,4.92,4.59,0,4.77,3.46,6.2.49-4.61,4.44,5.61,2.3c-.07,1.63-.13,3.26-.19,4.9l2.16,4.21q-.6,2.55-1.2,5.13l3.35,3.12c-.52,2.19-1,4.39-1.55,6.59l3.79,3.31,3.11,2.07-1.86,4,2,4.82,3.38-2.47-1.8,5.6,6.21,1.09q-3.72,2.63-7.43,5.26-.13,3.6-.24,7.25l4.5,1.58L737.78,472l1.21,3.07c0,1.77,0,3.53,0,5.31l-2.56,5.49-4.43,0c-.74,2.23-1.49,4.47-2.22,6.71l4.77,1.18c.47,1.25.94,2.49,1.41,3.75l2.56-.16c.43,2,.85,3.92,1.29,5.89l2.94,3.79,4.3,3.22c.31-1.53.63-3,1-4.57-.69-1.52-1.37-3-2.06-4.55q-1.35-2.12-2.69-4.23c-1-1.6-1.9-3.2-2.85-4.8L737.65,489l3.39.14c1.46,2.14,2.94,4.28,4.42,6.44l5.33,6.81c-.51,2.17-1,4.34-1.52,6.53q-.24,3.72-.47,7.49l-1.31-3.23-3.71-2.46L739.25,508q-.37,3.94-.74,7.92s-2.67,5.06-3,6.6-8.38,15.11-8.37,15.13q-3,4.41-6,8.86c-.62,2.19-1.23,4.39-1.83,6.58q-1.5,4.49-3,9l-4.47,5q.24,4,.49,8.13c-.59,2.23-1.17,4.46-1.76,6.7l4,1-2.68,3.51q.75,2.58,1.51,5.18l-3.24,1.56q.8,4.62,1.62,9.27-.45,4.14-.87,8.3l3.15,1.86,3.72,6.16c.55,1.38,1.09,2.77,1.64,4.16l-.54,5.6c0,2.54.07,5.08.1,7.63-.52,1.15-1,2.29-1.55,3.44.18,2.23.37,4.45.57,6.69l2.78,4.1c-.38,1.21-.74,2.43-1.11,3.64l.63,3.21c-.88,2-1.75,4-2.62,6l-3.67-1,1.71,6.62,2.6,3.48c.51,2,1,4,1.54,6q-.75,5.3-1.46,10.62l2.92,9q.15,3.93.32,7.87l4.05-7.16-2.7-7.12q1.38-3.86,2.77-7.7l-2.43-6.38,1.29-8.92q-.1-4.47-.2-8.94c.65-1.88,1.32-3.76,2-5.64-.72-1.48-1.43-3-2.15-4.43q-.39-4.87-.77-9.71l2.87-4.08,4.31,4.13,2,1.4q-1.46,2.63-2.89,5.26c.41,3.3.83,6.62,1.25,9.94q-.12,3.78-.23,7.58,1.41,2.67,2.85,5.35l-.21,4.06q.89,2.75,1.78,5.5c.45,1,.89,2,1.34,3l-3.5,3.26,2.67,3.52q1.5,5.7,3,11.43.62,11.61,1.33,23.3-2.06,2.39-4.09,4.79L733.42,733q1.68,4.94,3.38,9.88t3.43,9.92c1.46,1.66,2.93,3.31,4.4,5q2.37,4.07,4.77,8.15l6.38,2.85,4.85,8.2,6,2.69,5,1,4.79.33,3.7,5.89q2.13,6.4,4.3,12.82l3.82,7.16L793,810.3l5.27,3.58,3,.76-1.41,3.61q.89,7.07,1.79,14.13-1.05,3.47-2.09,6.91l2.74,3.06,3.48-3.26c.08,1.25.16,2.49.25,3.74q1.11,2.92,2.24,5.86c-.24,2.1-.48,4.21-.71,6.31l5.07,2.91c.75,2,1.51,3.91,2.28,5.86l3.25,6.31,4.53-1.56q1.17-3.09,2.35-6.18l4.67-3.34c0,1.6-.09,3.2-.13,4.79l3.29,3.31-2.54,3.68c1.06,1.69,2.12,3.39,3.19,5.08q-2.19,6.55-4.35,13.08l-6.9,6.44q.93,2.82,1.87,5.64l-6.13,1.37-5.7,3.33-1.47,4.07-6.53,1.13q-.4,4.25-.8,8.49l-6.48,1.1q-.51,3-1,6l-4.59,3.7,1.67,3.12,4.45,1.5-1.69,3.29-4.18,1-5.82,4.23q.64,2.91,1.31,5.82-1.32,2.26-2.61,4.53,3,4.88,6,9.74,1.8,6.87,3.65,13.71.25,8.35.56,16.66l-1.41,6.06q1,3.55,2.08,7.11c-.62,2.49-1.22,5-1.82,7.45q1.13,4.13,2.28,8.24c1.86,3.27,3.73,6.52,5.61,9.78,0,0,9.11,12.48,9.48,14.8.71,1.78,1.43,3.56,2.14,5.33q-3,10.65-5.87,21.08-2.21,4.7-4.36,9.35-4.46,8.94-8.7,17.67-2.76,6.16-5.4,12.23l1.38,4.56c-1.1,1.57-2.2,3.13-3.28,4.69q-2.06,6.93-4,13.71Q780,1139,777,1142.13l-1.51,4.29q-.75,3.25-1.47,6.47l-5.9-.19q.1,2.94.22,5.83,0,4.67,0,9.24v.26l-5.22,4.24a10.18,10.18,0,0,0-.73,3.82,11,11,0,0,0,1.34,3.12l4.32,0-.94,2.43-2.59,3.64c-.1,1.43-.19,2.86-.28,4.28l-2.13,4.11s-1.5,6.29-2.08,7.12-2.87.52-2.87.52-1.47-2.6-2.6-4.3-2.76-.19-2.76-.19a17,17,0,0,0-1.42,3.48c-.15,1.06,6.93,6.34,6.93,6.34l-1.72,2.49c-.25,1.84-.48,3.66-.71,5.46l-1,.94s-2.13,2.86-2.24,3.85,2.48,1.88,2.48,1.88q.87,2.32,1.75,4.62l-1.73-.49c-.1,1-.2,1.94-.29,2.9l2.36,3.13s.59,3.25-1.17,3.38q1.74,2.78,3.5,5.51l4.94,3.92c.23.74.47,1.48.7,2.21l-4.65-1.58q1.6,1.84,3.22,3.67a8.88,8.88,0,0,1,3.71,2.66l2.92,1.68,4.25,1.09,2.48,1.77c.5,1,1,2.08,1.51,3.11l1-1.64,2.17.12,2.43,2.34,6.37,2.38,4.22,2,1-1.63-6.84-2.28-5-3.54c-1.88-1.91-3.77-3.82-5.65-5.75-.16-1.43-.32-2.88-.47-4.34-1.76-1.68-3.51-3.37-5.27-5.07l3,1.4,2.13,1-.12-3c-.94-1-1.87-2-2.8-3l2.55-2.49c-.2-.89-.39-1.77-.58-2.67l1.12-1.54c.74,1.28,1.49,2.55,2.23,3.82,0,0,3.39-1.48,2.34-3.75l3.65-2.86,5.41,1.13c.29-1.78.58-3.58.89-5.4l-2-2.06-3.64-3.58c.36-1.2.73-2.4,1.1-3.61l4.64-2,4.6,1-1.8-3.18,2.86.19c.43-1.36.86-2.73,1.3-4.11l3.41-2.37,2.52,2s1.93.11,2.61-.78-1.23-3.41-1.23-3.41l-2.6-1.64c.36-.92.72-1.84,1.09-2.76l-2.73-3.35c.69-.92,1.39-1.83,2.09-2.75.8,1.63,1.59,3.25,2.39,4.87l5.83,2.76c.94-1.21,1.88-2.43,2.84-3.65l2.61-4.69-1.9-2.6,1.37-1.5,2,2.23,3.91.56,9.3,3.51,6.54.47,4.54-3.55,3-3.46c-.71-1.82-1.43-3.65-2.14-5.48-.06-1.07-.11-2.15-.16-3.23q-1.35-1.76-2.68-3.53c0-1.17-.06-2.35-.09-3.53s-.06-2.28-.08-3.42l3.12-3.64c-.81,2.26-1.62,4.51-2.41,6.73.1.11.21.21.31.31l4.23,4.11,3.83,3.16,4.31,3.37,4.76,1.76,4.9-4.13,6.26-3.12-.3-4.35,4.31-1.78,1.67-1.41,2-1.67,3,.9a1.59,1.59,0,0,0-.07.2l-2,6.44,5.86-4.9,2-2.22,2.27-2.56,7.17-3.52c.28-2,.57-4,.86-6,.5-2.08,1-4.16,1.51-6.26,1-2,2.09-4.06,3.15-6.11,0,0,8.92,0,10.53.24s3.64-2.43,3.64-2.43l5.17,1.33,5.5.44-1-3.55,8.79,2.42s0,0,.47-1.34,4.76,4.23,4.76,4.23l5.21-1.81c.26-2.31.53-4.62.8-7l8.58-4.59,8.66-4.65,1.08-6q2.37-3.26,4.79-6.54s6-12.67,6.53-14.12-.88-5.4-.88-5.4l4.43-.81,3.22-5.29,1.73,4.7,4.25-4.85,4.53-2.51c1.77-1.47,3.54-3,5.31-4.45l5.92-1.37,8.31-4.34q1.35-3.42,2.73-6.86.75-3.42,1.53-6.85c.13-2.85.27-5.7.4-8.57l-6.58-4.66c-.7-1.28-1.4-2.56-2.09-3.85l-4.37-7.21q-2-4.12-4-8.24l-5.55-4.23-6.74-1.22-2.63-7.08-8.42,1.58q.48-2.75,1-5.5c.36-1.42.71-2.84,1.07-4.26l-7-6.68-4.74-6.28-10,2.68,2.31-.68,1.72-.49c.49-1.77,1-3.54,1.46-5.31l-3.19-5.61L948.56,989l-5.66-.74-4.51.94L927.64,988l8.61-.88,6.69-3.54,6.14-2,6.67-1.8c-.35-1.16-.7-2.31-1-3.47l6-1.53-2.57-4.16c-.41-1-.82-2-1.24-3q.64-3.93,1.3-7.88c-.69-1.31-1.37-2.62-2-3.94q-.89-6.13-1.75-12.31l-2.55-4.17L948,937l-2.64-5.44-7-1.91-6.19-.93,1.22-3.11-4.55-5.08-6,1.6,1.52-2.37c1.52-2.36,4.17-6.07,4.17-6.07l-4-7.9-9.29-3.53,7.41-5.26-6.17-.91c-.62-1.91-1.25-3.83-1.88-5.74l3-3-8.88-1.5s-8.66-2-10.44-3.43q-2-3-4.06-6.1l-7.22.45c.65-1.14,1.29-2.28,1.93-3.42l-2.66-3.63.06-6.1-5-2.21,1,4.75-7.06-1.32c-.75,1.91-1.5,3.81-2.24,5.72q-.48,3.45-.94,6.89l-5,.82q.27-4.44.55-8.89l4.09-3,1.14-4.38,4.2-1.79c0-1.86-.09-3.72-.13-5.57l-7.78,2c-2.8,1.19-5.58,2.39-8.36,3.59l-3.44-1.55-6.89,0-3.58,6.29L844,866.62q-2.33,5.32-4.63,10.63l-.36-8-3.48-5.82-.06-4.27-5.71-4.4L825.8,859l-5.58-3.13-4.24-.72-.63-5.72q-1.15-5.07-2.3-10.13,1.68-4.38,3.39-8.78l5.36-7.93q1.73-4.4,3.47-8.8c-.68-1.12-1.37-2.24-2.06-3.36l.42-5.3-5.48-1.83-2.73-3.05-6.07-.27s-7.81-2.87-9.7-3.71,3.06-3.5,3.06-3.5c1.3-1.85,2.6-3.71,3.91-5.56l.24-4.76s3.62-2.05,4.84-.9c1.7-1.89,3.41-3.77,5.12-5.66q.7-2.43,1.43-4.86l4.3-3.6c1-2.42,2-4.83,3-7.24,0,0-.22.52-4.13-3.63s4.11,3.63-4.63,1.64-9.29.8-9.3.8c-2,3-3.94,6-5.91,9l-5.13,4.42c-.51-1-1-2.07-1.51-3.1L789.36,768,781.42,770s0,0,.62-1.54-3.41-5.14-3.41-5.14l-2-3.29s-1.64-1.33-2.82-2.46,1.53-7.78,1.53-7.78q-.64-2.4-1.3-4.8c-.58-1.67-1.17-3.33-1.75-5,1.62-1.7,3.23-3.41,4.85-5.12l-.6-5.09c1.25-1.67,2.49-3.34,3.75-5q.38-2.87.77-5.71l2.9-3,4.28-3.59c.57-1.76,1.14-3.53,1.72-5.29l-1.68-3.74c.42-1.82.85-3.65,1.28-5.47l6,.14,3.84-5,2.57,1.7,7.15-2.39,6.51-.87,6.08.16,3.63,5.77c-.14,1.15-.27,2.3-.41,3.46l4.75,2,1.82-2.86,2.58-.72.36,5.6,3.11,1.93c.43-1.84.87-3.68,1.3-5.51l-2-4.48,4-1.34,3.37,2.64,3.84,1.62,5,1.52,2.67,1.73q1.5,3.07,3,6.15l2.94,2.46,3.55-1.54q1.07,4.11,2.15,8.23c-.86,1.06-1.71,2.13-2.56,3.19l-1.53,4.84,4.6,1.36-6.4,2.77c.17,2.72.33,5.44.51,8.17q2,6.06,4,12.15l5.5-7.45,1.75-5.38c1.16-3.59,2.34-7.17,3.51-10.75l-.48-8.16-.63-5.15,3.26-4.73,3.29-3.48,5-4.61,2.94,1.24,4.76-4.1,3.88-.81,6.11.74,3.57-4,4.88-.39s.17-3,.38-4.71,2.68-.71,2.68-.71l4.43.64c-.53-1.44-1-2.88-1.57-4.31l3.61-2.74s-1.3-3.58-2.55-4.7,3.18-.5,3.18-.5L921,672.14l4.05-6.18q2.5-3.5,5-7l4.95,2-4.84,4-4.58,4.76,2.48,1,2.53,3.47,4.82-5.26-.81-3.36,3.12-4.14,1.8,3.76,4.41-1.8,3.62-3.93c0-1.22,0-2.43-.07-3.64l10.6-2.26,5.24,1.55,3.66-2.69c0,1.21.05,2.42.08,3.63l3,1.24,5-.36-1.8-2.54-3.59-5.08,9.55-7.45,3.3,3.14,5-1.56,3.77,1,5.46-1.35,1.65-4.69,2.07,3.23,2.92-3.57,1.33,3.52,4.17-3.65s3.75-.25,5.48-1.33S1007,642,1007,642l3,0,6.82,2.21-6.26.41-5.5.13-6,2.34,2.15,5.67,4.56,1.88a15.9,15.9,0,0,1,4.7-2.26l4.68-3.47,5.86,3,5.23-2c-.22-1.68-.43-3.36-.65-5l-5.59-2.3c.82-.85,1.63-1.71,2.45-2.57l2.57,2.25c.46-1.4.93-2.8,1.39-4.19l-6.77.2.63-5.09a66,66,0,0,0-6.1-3.68c-1.52-.62,3.21-1.64,3.21-1.64.89-1.42,1.77-2.83,2.66-4.23l-7-.5,2.88-5.9,5.31,2.75,2,.82,2.89-4.7-.84-4.44-7.3-2.38-8.46,1.26-10.67,2.13-8.11,5.53-7.21,0,7.41-2.89q2.07-2.4,4.15-4.78l4.68-2.21,8.44-1.26,7.16-3.53,4-1.89,6.3,3.12,5-.31,5.84,4.12,6.79,1,2.32,2.7,6.57,1.5Z"/><path class="cls-2" d="M880.68,797.81l2.59-1.33,1.47-2.13-3.25-2-1.82-2.64,1-1.09-1.57-2.53-2.65.07q-.22-1.93-.42-3.87l-2-.86-.39-3.25c-2.41-2.58-4.81-5.17-7.2-7.74-.24-1-.49-2-.73-3.08L861,763.69l-3.19-2-2.66-.54-.18-1.61-2.54-.8-2.78-.9-5,.29-2.83.61c-.09.88-.17,1.76-.25,2.64l-2.21,1.18,3.62,1.58,2.59-.71,4.59-1.38,4.5,2.27.81,2.19,4.25,4.3c.59,1.8,1.19,3.59,1.79,5.39l5.25,2,0,3.39,1.37,3.68,2.49,1.7c-.2.94-.39,1.88-.59,2.82l-2.51.44c0,.71,0,1.43,0,2.14l7.81,2.19Z"/><path class="cls-2" d="M861.84,799.09l-3.5-.62c-.13.55-.26,1.11-.4,1.67l1.61,1c0,.92,0,1.85,0,2.77L862.2,806l2.59,1.45,1.83-1.65,1.79,2,1-2.34-1.5-3.43-3.41-.88.15-1.78Z"/><path class="cls-2" d="M846.61,766.34c-.17.64-.35,1.28-.52,1.92a5.13,5.13,0,0,0-2.55,1.34l2.77.9s2.59-.71,3.15-1.38a5,5,0,0,0,.49-2.55c-.83-.76-1.65-1.53-2.47-2.3Z"/><path class="cls-2" d="M878,759.7l-.81-2.19-1.34-.27-1.48,2.12,2.26,2.21Z"/><path class="cls-2" d="M884.08,812.24l8,4.12,0,2.79,2.2.36,1.76-3.56,1.85,2.67,3.28,2.06,2.11-1.55,4.4,2.24,3.33.53c-.09-1-.19-1.94-.28-2.91l-2.14-3.41-3.29-2.06-1.17-3.6-2-1.5-1-2L897,805.23l-2.5,1.07-1.7-2.29-2-1.5-2.23-1,2.36,3.5-2.29,2.7-3.31,1.63-3.9-.48-.27-2.89-2.76.33a25.89,25.89,0,0,0,.3,3.52Z"/><path class="cls-2" d="M916.06,828.43l3.27,1.44,3.6-1.52-1.08-1.72L918.07,825l-2.62-.84c.3,1,.6,1.91.89,2.87C916.34,827,915.31,828.1,916.06,828.43Z"/><path class="cls-2" d="M924.43,893.79l1.71-3.54-3-1.34c-.29,1-.59,2-.88,3,0,0-2.15,2.42-.58,2.2S924.43,893.79,924.43,893.79Z"/><path class="cls-2" d="M744.27,892.79l-2.4,2.37c.23,2.44,4.41,2.67,4.41,2.67l.57-3.24-2.74-6C744.16,890,744.22,891.4,744.27,892.79Z"/><path class="cls-2" d="M1035.05,618.93l4.08,2.44c.26-.81.51-1.62.77-2.43l-3.47-5.32-7.31-5.69c-.14,1.11-.44,2.55-.44,2.55l3.58,3.4c-.32.91-.63,1.83-.94,2.75Z"/><path class="cls-2" d="M1039.09,638.29l-5.82,2-3,2a54.81,54.81,0,0,0-1.52,5.74l2.4,1.78,3.39-4.57,5.25-4.2,5.06.49-.42-2.54Z"/><path class="cls-2" d="M1036.15,647s-3.26,3.44-1.92,3.2a18.91,18.91,0,0,1,4,.06l2.92-3.57-1-1.23Z"/><path class="cls-2" d="M1085.07,644.55s2.72-4,1.54-4.1-4.79-2-4.79-2q.75-2.44,1.51-4.88l-9.22-3.79-1.6-2.62s3.14-1.45,2.12-1.87a26.72,26.72,0,0,0-5.06-.51c.91-1.58,1.81-3.17,2.71-4.75l2.1-2.65,4.16-1,2.12-1.85-6.25-1.39-5.47,2-2.34,5.67-5.95,3c-.26.81-.51,1.62-.77,2.43l-5.18.62c.26,1.42.53,2.84.8,4.26l-5,1.1a33.31,33.31,0,0,0,.48,4.93l5-1.1,3.28,2.53,7.35,3.42,6.28,1.4c0,.8.06,1.61.08,2.41l-1.75,2.85,7.52-2.06q1.15,1.88,2.33,3.74l-3.63,2.48,3.44,1.42,1.27,2.51,3.57.29q1.24-2.67,2.5-5.33l-2.44-1.8,3.54-4.87Z"/><path class="cls-2" d="M995.21,476.85l5-5.34-5.41-2.05.39-4-2.8-3.79c0-1-.07-2.06-.1-3.09l-3.16-1.18c-.5-1.1-1-2.19-1.51-3.28,0,0-.75-2-1.56-1.25s-2.44,2.13-2.62,3.08-3.16,5.27-3.16,5.28l-6,2.23c-.25,1.28-.49,2.56-.73,3.85l4.17-1.19c-.67,1.12-1.33,2.25-2,3.38l3.8,1.43c2-1.89,4-3.78,6-5.65l4.48-.37.42,2.55s-4.19,1.86-3.07,1.94,6.5,3.49,6.5,3.49C994.4,474.23,994.8,475.54,995.21,476.85Z"/><path class="cls-2" d="M980.13,477.41l-2.86-1.08c-.27.48-.55.95-.83,1.43l3.82,1.44,6.39,1,4.06-3-.93-1.74-6.42.35Z"/><path class="cls-2" d="M1002.13,490c.44-1.24.88-2.47,1.33-3.7L999.73,488l-2,1.37c.42.86.84,1.73,1.27,2.59Z"/><path class="cls-2" d="M1110.79,483.78l-5,1.08c-.34-.81-.69-1.62-1-2.42,0,0,.28-1.91-1-1.75s-4.22-1-4.22-1l1.23-2.88-1.33-1.85-2.25.46.75-2.71-3.08-.87L1091,471l-.36-2.13-1.83-3.7c-.22-.74-.45-1.49-.67-2.24l-4.84-1.87c.53-.45,1.06-.9,1.58-1.36l2.89-.2-.51-1.83,4,1.23,2.09.48-1.33-3.12-3.08-2.81c.9-.42,1.8-.82,2.7-1.23l1.94,1.39,1.68-4.18-2-2.68-3.8,1.1-.21-3.6,1.74-.93c-.76-.92-1.51-1.85-2.26-2.77l-4,.7c-1.74.93-4.31-.69-4.3-.69a36,36,0,0,0,3-2.34c1-.91-1-3.54-1-3.54l-4,.07c0-1.06,0-2.11,0-3.16l-2.69.55a6.37,6.37,0,0,1-2.86-1.72l-3.64-1.06,3-1.68,1.73-.91c0-.91.11-1.83.16-2.74V422.2l-.63-2.09-2.05-1.08-6.92-1.38q-1.89-1.93-3.75-3.87l-2.19-2-5-.66.45,2.32,2.33,2.41-2.21,1-2.49-2.79-2.38,1.89-1.76,1.52-2-2.31,1.76-2.12-1.55-1.2-2.64-1.9-2.71,1.76s-.2,2.71-1.14,2.36-2.63-2.52-2.63-2.52l2.41-2.5s1.9-.53,1.13-1.73a8.77,8.77,0,0,1-.87-3.37l2.54-1.5a4,4,0,0,0,2.37-1.23,12.4,12.4,0,0,0,1.16-2.89l-4.33-2.2-4.54.43s-3-.19-4.52-.16a28.75,28.75,0,0,0-4.87.92s.57,2-1.14,1.7a23.62,23.62,0,0,0-4.53-.14s-.39,2.3.86,2.76a34.89,34.89,0,0,1,3.24,1.5l-1.93,1.74-3.41-1.25s-1.56,0-2.06.78.7,3,.7,3l.75,1.21-1.63,1.89-.21,2.11-2.42-3.39-4.69-.48,4.6-1.73c-.12-1-.25-1.95-.37-2.92l.9-3.67,3.7-3.22,2.89-2.57H1029l5.61.27-2.6-1.86c-2.32-.55-4.64-1.11-7-1.65l-6-1.9-6.48-1.17-5.74,3.34-5.27,3.25-5.06,1.84s-1.33,2-.41,2.31,2.83,3.19,2.83,3.19-2.56,1.56-1.64,1.89,4.15,1.83,4.16,1.83l2.61,1.27-3.3.35,1,3.18c.38.77.78,1.55,1.17,2.32l2.65.66,2.13,2s-1.51,2.93-.4,3,4.71.47,4.71.47l2.18.81,3.72,2.65,4.24,1.25,4.34,4.17q-.26-3.3-.5-6.55l3.22,4.69c.09,1.1.17,2.19.26,3.29l3.15,1.18c0-1.61-.06-3.22-.08-4.82l1.92-1.19,5,2.52c.41,1,.81,2,1.23,3,0,0,4.9.89,4.75-.12s-1.23-3.64-.12-3.54,5.34,4.54,5.34,4.54l-.66,3.59q1.26,1.42,2.52,2.88l3.5,0s-.49,2.71-1.6,2.62-4.47,2.18-3.19,2,5.09,1.28,4.61,2.07-3.51,2.57-3.51,2.57l2.23,2.16,5.74-1.08s3,2.79,1.93,3.35a11.79,11.79,0,0,0-2.72,2.56l1.93,2.72-.15,4.25-2.56,1.68-1.76,1.66-1,3-3.37-1-2.09,1.55-4.35,1.38-1.44,1.14q1.2,4.69,2.43,9.45l-8.72-.6-6.28-3.44-4.84.21-1.44-.9-2.41-1.26-1.28-.49-2,3.38-1.93.64c-.17.74-.34,1.48-.5,2.23l-2.58.4,2.39,3.34,5.32,1,5.17-.11,1.94.05c.1.51.21,1,.32,1.52l4.2.22c-.11-1.2-.21-2.39-.32-3.58l4.85,3.94c.16,1.33.33,2.67.49,4l3.25,1.95c-.26,1.65-.53,3.29-.79,4.95,1.69,1.23,3.37,2.47,5.06,3.72l-3.25.14-2.44-.59c1.09,1.6,2.19,3.2,3.28,4.81l5.55.74,6,1.3,5.27,3.47,6.08,2.75,2.18,3.34,2.37-5.1-5.75-1.91c.14-1.24.29-2.47.44-3.71l-3.46-2.41c-.62-1.29-1.23-2.58-1.84-3.87s-1.33-2.85-2-4.27l4.75,2.89,2.31,2.3,2.75-.67,3.3,2.69a2.8,2.8,0,0,1,2.28.19c.83.67,4.34,5.21,4.34,5.21,0-1.65-.07-3.3-.1-4.94l3.06-1.95c.25-1.41.49-2.82.74-4.23l-3.91-.14c-.46-1.8-.93-3.59-1.39-5.38l-.84-2.05-1.68-4.08-1.82-3.1s.8-.72,2.27.2l2.93,1.82s-1.19-4.21-.21-3.83,3.06-.51,3.06-.51,1.19,3.52,1,4.49,4,3.59,4,3.59l1.81,1.73s-2.4,1.47-.94,1.69,4.6,2.49,4.6,2.49-3.2,2.19-2.06,2.29,3.46,2.4,3.46,2.4l4.48-3.07s-1.58-5.08-.75-4.41l5,4,.69-4.86,3.57,0,2.63,1.71,3.68-1.61c0-.69,0-1.37,0-2.06Q1111.66,486.15,1110.79,483.78Z"/><path class="cls-2" d="M1048.66,453.1c-.15-1.05-.31-2.1-.46-3.14l-3.35-.95c-1.39,1.45-2.79,2.9-4.18,4.36.31,1,.63,2,.94,3l4-.14Z"/><path class="cls-2" d="M1055.7,456.44l-1.44-1.54-2.08.86,1.44,2.2Z"/><path class="cls-2" d="M1061.53,401.59a37,37,0,0,1-5.16-.43l-2.32-1.16-3.75-.2-3.79,2.2s-2.5-.32-2.36.64a4.79,4.79,0,0,1-.83,2.42c.08.85.17,1.7.26,2.55l4.54.77,1.23,1.68,4.57-1.05,3.44.68,3.76,1.41,2.51-.28c.22-1.33.44-2.67.66-4,0,0-1.08-1.91-.91-2.75S1062.77,401.46,1061.53,401.59Z"/><path class="cls-2" d="M941.32,374.07l3.58,3.37h2.6s1.29,3.49,2,4.06,1.34,2.91,1.34,2.91c.13,1.07.27,2.15.4,3.22l3,1.67,3.17-1.34,3.51-1.82,2.05,1.95,4,.2c.77-1,1.55-1.9,2.33-2.84l2.36-3.41c.51-.72-1.81-.64-1.81-.64l-3.13.7,1.56-2.77-1.6-1.47s-.62-2.32-.11-3,2.37,1.44,2.37,1.44l2.52-.91s.79-2.7.23-3.49-2.37-1.42-3.23-2.32l4.11.57c.16-.93.33-1.85.49-2.77,0,0-1.63-.87-2.73-.38a12.37,12.37,0,0,1-3.42.56l-4.39-.66c.11.53.23,1.06.34,1.6,0,0-1.15,1.07-2,.76s-2.27-2.57-2.27-2.57a25.82,25.82,0,0,0-4.77.4c-1.41.39-1.88,2.61-1.88,2.61l2.77,1.86-.51,2.82s-2.78.23-3.5-.33-3.5-.32-3.5-.32c-.29-1-.57-2-.85-3l-3.87-1.34C942.07,370.92,941.7,372.49,941.32,374.07Z"/><path class="cls-2" d="M983,364.14a8.2,8.2,0,0,0-1.68,2.31l1.37.19s-.34.46.86.89,1.71,2.36,1.71,2.36c.17.45.35.91.53,1.36l2.61.05.84,1.48,2-.74,3.41-3.16-.24-3.85-2.2-1.65-4.58-.47-2.58,2S983.76,363.55,983,364.14Z"/><path class="cls-2" d="M955,403.3l-2.23-1.74-3-2.32-1.49,1.68-3.2-.82c-.68,1-1.37,2-2.05,3.07l-3.37-.56a4.37,4.37,0,0,0-.59,2l1.71,2.52,3.28-.42-.15,2.5,2.2,2.39,3.42-.06,4.62,1,2-1.86-1.63-1.54c.63-1.16,1.27-2.31,1.9-3.46Z"/><path class="cls-2" d="M844.12,350.69s-1.69,1.86-.85,2.13,5,.73,5,.73q2.21-1.4,4.44-2.76l2.71.59,1,1.52,5.2-.4,4-3.47,5.28-.94,4-1.06,6-.95,4.2-.37,4.18,1.1,2.32-.7-1.82-2.35c.18-.72.37-1.44.55-2.15L886.19,340l-3.46-2-2.13.46L877.09,337l-1.17-1.25-4.16-1.93c-.16-.72-.31-1.44-.46-2.16a21,21,0,0,0-3.55-.87c-1,0-7,0-7,0l-4.34-.24-2.08,1.35c-.35.75-.69,1.51-1,2.27l-3.06,2.22c0,.88,0,1.77.08,2.66,0,0-.6,1.27-1.44,1s-3.09,1.36-3.09,1.36c-.84.81-1.67,1.63-2.5,2.45l-.71,1,1.94,3C844.37,348.77,844.24,349.73,844.12,350.69Z"/><path class="cls-2" d="M927.46,393.57l4.25.86,2.27.49c0,.73,0,1.46,0,2.2l2.19,1.72,1.77-.95c.88-1.69,1.76-3.36,2.64-5l-1.81-.64-2.23-1.09-2.79-1.92-1.32-2.95c-.29-.82-.59-1.65-.89-2.47-.37.9-.74,1.8-1.12,2.7l-3-.44c.2-.65.41-1.3.61-1.95l-1.65-2.43,1.17-3.28c.17-.75.33-1.51.49-2.27.15-1.27.31-2.53.46-3.79-.38-.33-.76-.66-1.13-1l-2.44-1.74-3.3-.54-1-1.23-2-1.29-2.1,1.39-2.73,1.78-2.58,0,1.62-2.77c1.12-.73,2.25-1.44,3.37-2.16.26-1.21.53-2.41.79-3.61l-2.53-3.54-1.87.55-2.09,1.37s-2.63.6-3.55-.61c0-.69,0-1.38,0-2.06,0,0-3.43-3.23-3.95-4s-.93,1.76-2.32,2.18-.36,2-.36,2l-1.51,3.07-2.21-.45-3-3.71c.6-1,1.2-2,1.81-3l2.22-4-3.75-1.25-4.75,2.53-3-1.28-3.44-1.14H877.4l-5.77,2.54-2.33,2.21-3.2-.46-1.65,2.75.72,1.44a9.79,9.79,0,0,0,4.58,0,5.76,5.76,0,0,1,.67,2c0,.92-2.64-.27-2.64-.27l-1.74.93,1.08,1,2.46.52a20.72,20.72,0,0,1,3.76-1.77,7.32,7.32,0,0,0,1.95,1.24c.86.29,5-.45,5-.45l2.53,1.44-.88,1.22a19.16,19.16,0,0,0-4-1.34l-2.66,1.22-2.76-.61-1.9-.33-5.41.64c.19.56.37,1.13.56,1.7l.79.87,1.26.72,2.07.08,3.4.22,2.59.87,2.42,1.11,3.06.73,2.43,1.12,3.78-.26,1.8,1.53,2.27,1.38-3.73,1.2s-4.82.21-5.57-1.27l-4.17-1.71-3.48.36-5.24-1.14-3.28-1.39-1.75,2.49,1.14,1.92c-.09.79-.17,1.59-.25,2.39l4.2,2.66,4.45,3.37-1.39,3.6,5.59,2.85,3.26-1.1,4.51,1.86,6.21-.08,5.4.6,8.65.16,6.7-1.75,1.68,1.84L911,390l.33,1.69,2,1.34.63,1.8,2.39.83.85.93,1.41,1.76,2.69.95,2-.25,4.24.86a8.54,8.54,0,0,0,2.28-1.73c.51-.77-2.37-1.47-2.37-1.47l-2.48.4s-.38-3.3-.93-4.11,1.15-1.17,1.67-1.93S927.46,393.56,927.46,393.57Z"/><path class="cls-2" d="M925.87,357.1c-.62.68-1.24,1.35-1.85,2l-2.43,3.32-1.5,1.58.72,2s1.82,0,2.88.09.61,1.71.61,1.71,1.89.95,2.78,1.26.79-2.13.79-2.13c.22-.82.44-1.64.67-2.46l-2.09-2.21,1-1.42Z"/><path class="cls-2" d="M891,325.87a33.93,33.93,0,0,1-3.93,1.81l-1.55.62,2.81,2.34,3.88-2.69,2.5-2.26S891.85,325.29,891,325.87Z"/><path class="cls-2" d="M869.44,320.53l3,.68s2.66-.27,2.42.5,1.81,1.71,1.82,1.71l2.78-2.18c.25.73.49,1.46.74,2.2l4.61-.46c.27-.94.55-1.87.82-2.81l1.76,2.25,3.39-1.12,0-1.38c1.78-.43,3.55-.87,5.33-1.29l.71,1.33-3.64,1.86,1.85,1.72,3.57-1.33,3.19.5c.54-1.12,1.07-2.23,1.61-3.34l2.88,1.78,3.29-1.38c.27-1.38.54-2.74.82-4.1l-1.4-1.82-5.19.19c.13.86.26,1.72.4,2.58l-3.4-1.12c-.25-.72-.5-1.44-.74-2.15l-8.1-1-4.79.63s-.57,2-1.41,1.73-4.67-1.24-4.66-1.23-2.7-.6-3.23.06a21.92,21.92,0,0,1-2.33,2l-2.31-.2-4.33-.28,1.62,1.91C870.16,318.15,869.8,319.33,869.44,320.53Z"/><path class="cls-2" d="M917.53,320.22a36.66,36.66,0,0,0,3-2.8c-.44-.78-.89-1.56-1.34-2.34l-5-.05c.05.82-1.64,2.44.06,3S916.71,320.77,917.53,320.22Z"/><path class="cls-2" d="M942.12,341.89c-.88.82-1.77,1.65-2.65,2.49-.42-.42-.83-.85-1.24-1.27a9.71,9.71,0,0,1-3.56-.65c-1-.63,2.55-1.4,3.77-1.55s.87-1.12.8-2-2.38-.25-2.38-.25l-1.16-.4s-1.59-2.23-2.45-2.52.11-1.08.92-1.64-.18-2.57-.52-3.52-3.07.62-3.07.62l-1,2.72-1.33,1.23a9.49,9.49,0,0,1-.06,3.37l1.17,3.23-10.43-4.95-5.06-4.24-5.48-4.07-3.56-.07-4.06-.78-1.41,1.78s-2.87.46-3,1.55c0,0,1.29,1.56.15,1.18l-3.84-.13s-.77,1.46-.27,2.19,2.63.3,2.63.3l1.65,1.12,3-.15-1.22,1.59,2.93.41c1-.82,2-1.63,3-2.44,0,0,1.44-.94,2.26-1.52s-3.61,4.2-3.61,4.21l2.29.76,3.81.7,3.41-1.14,3.06,2.17,3.18,1.08-5.44.45-3.58-1.49-2.89.47-4.62-.1-1.23,1.61c.94,1,1.87,2,2.81,3L909,345l6.43-1.3,2.79.66,4.41.92,3-.13.3,1.54,3.21,1.09,2.55-1.43.72,2,6,1.78,3.43-1.12c1.22-2.26,2.43-4.5,3.65-6.72l-3.4-2.3C942.15,340.58,942.13,341.23,942.12,341.89Z"/><path class="cls-2" d="M923.32,327.94l6.4.22,2.66-2.4,4.16.31,1.56-1.93L936,322.62l-6.9-1-5.7.27-1.54-.79c-.9,1.25-1.79,2.51-2.69,3.77Z"/><path class="cls-2" d="M929.2,318.43s-1.57,1.91.21,2,3.22.54,3.92-.3a1.81,1.81,0,0,0,.13-2.39c-.51-.71-2-2-3.2-1.88a39.35,39.35,0,0,1-4,0l-1.78-.06,2.34,1.59Z"/><path class="cls-2" d="M941.1,322.72a11.76,11.76,0,0,0,2.3-1.92,3.87,3.87,0,0,0,.53-2l-6.27-1.32-1,.74c-.19.83-.39,1.66-.58,2.5l2.7,1.18S940.29,323.25,941.1,322.72Z"/><path class="cls-2" d="M961.77,327.36s2.48,2.47,1.43,2.38-4.19-.36-3.24.79,3.91,1.62,3.91,1.62,3.29-1.31,4-.79,3.19,3,3.2,3,3.69,1,4.23,1.75,4.45,4.84,4.45,4.84l2.7,2.33,2.87-1.75c.08-1.71.16-3.41.25-5.09l-5.88-2.06c-.27-1.09-.53-2.17-.78-3.25l-5.1-2-1.93-.4-1.6-2.16-1.9.95-1.8-.09c-.25-.45-.51-.89-.77-1.34l.27-1.24-3.84-2.13-2.26,0c-.51.62-.09,2.37-.09,2.37C960.52,325.85,961.15,326.6,961.77,327.36Z"/><path class="cls-2" d="M956.5,336.75a3.36,3.36,0,0,0,2.51.59c.31-1.18.62-2.36.94-3.54l-1.88-.92s-2.6.48-1.9,1S956.5,336.75,956.5,336.75Z"/><path class="cls-2" d="M974.26,341.25l.18-2.14L971.21,338c-.1,1.07-.19,2.14-.28,3.22Z"/><path class="cls-2" d="M959.92,342.39l-2.84-2.1-2.25,1.46,4.11,1.42Z"/><path class="cls-2" d="M960.27,350.71l2.89-1.84a13.4,13.4,0,0,1,2.31,3.36l-4.53-.43-3.56.76a8.49,8.49,0,0,0-.54,1.05c-.31.7-.51,1.5.18,1.42,1.23-.15,4.46-.47,4.46-.47l2.71.38,4.33,1.22-3.74,1c-.43.91-.85,1.82-1.28,2.74l5.15,2.68,7.22,2,3.88-.67c.46-1.48.91-3,1.37-4.42.13-1.2.27-2.39.4-3.58l1.56-2.57c-.36-.69-.72-1.38-1.07-2.07-.12-.51-.23-1-.35-1.53l-.85-.86s-1.52,0-1.9,1l-.38,1-2.38-.84c.23-.95.45-1.9.68-2.85,0,0-2.2-1.05-3-.49s-.12,1.64-.12,1.64l1.14,1-3.81.08c.08.87.16,1.75.25,2.64a3.33,3.33,0,0,1-2.17.38c-.88-.31-2-1.84-2-1.83.41-1.37.83-2.74,1.24-4.09,0,0-1.9-.94-2.41-.28s-3.21,1.51-3,2.38l-1-1.52c-.42-.43-.83-.86-1.25-1.28l1.44-.91-1.43-1.06-7.12.07c-.22.77.86,2.28.86,2.27l2.82.7-4.56.12,1.25,1.29s3.41.9,2.18,1-4.56.13-4,.89,3.54,1.23,3.54,1.23Z"/><path class="cls-2" d="M995.78,329.86c.08-1,.16-2.05.25-3.07l-2.85-.21c-.32.85-.64,1.7-1,2.56l2.23,2.37Z"/><path class="cls-2" d="M995.08,343.06s.32,2-.87,1.62-.86-.86-1.19-.42.79,3.86.79,3.87l3.39-.47,4.07.62,3.18.31c0-1.19,0-2.37.08-3.54,0,0-.16-2.24-1.21-2.34a31.93,31.93,0,0,1-4.75-1.68c-.25-.81-.49-1.62-.73-2.43l-2.41-.31-1.69-1.67-3.11,3,2.84,2.64Z"/><path class="cls-2" d="M1001.26,350.77l-2.65-1.5-2.32.57-1.27.66,1.92,1s3.62.73,5.28,1l2.46,2.28,4,.29,3.72-.89c-.27-.47-.55-.94-.83-1.41l-3.1-1.93-4.08-.63Z"/><path class="cls-2" d="M1005.15,357.19l-4.33-1.83L996,352.24l-3.69.37c-.09,1.28-.17,2.56-.26,3.86l1.09,2.09,4,1.72,1.74,1.76,2-.7c.45.25.9.5,1.34.76l3.12,2q.71,2.4,1.43,4.82l-3.12,3.81-3.6,4-.09,1.74,3.57-.19,1.19,1,5.21,1.29,2-.73,3.43-.53c-.1,1.05-.19,2.09-.29,3.14l4.31,1,2.16.19,1.53.56,4.74,2,3.51,2.17,6.63,2.14,3.14-1.21c.3.7.59,1.4.88,2.1l11.91,4.11,1.59-1.77,4.21-.5,1.58-1.17L1058,387.3l-3.56-.45-1.5-2.87-3.38-1.25-5.36-2.26-4.76-1.46-9.06-1.87-7.25-.61s-4-3.49-3.83-4.29-2.41-1.44-3.79-1.65-2.67-2.12-2.67-2.12l5.86-.17-2.75-3.56-3.34-3.75-6.55-.94C1005.76,359.09,1005.45,358.14,1005.15,357.19Z"/><path class="cls-2" d="M1019.61,342.32l-4.86-.13,1.23,2.33,3.28,1.17,2.94-.83,3.42,1.5-1.85.41-4.44.3-1,1.81c-.4.86-.8,1.72-1.21,2.58.41,1,.81,1.94,1.22,2.92l4.89.1,2.15-.32,1.29,1.84,4.13.11,3-1.93,3.45,1.53.84-2.11,4.85,1.18c11.35,2.79-4.68-1.43,3.34.68s-.75-.55,3.63.78l4.39,1.34c.85-1.13,1.7-2.26,2.55-3.37l1.11-1.46c.46,1.41.93,2.83,1.39,4.26l3.49,1s-4.4-.81-3.52.05,3.29,2.83,3.29,2.83l4.23,2.11s-4,1.24-3.84.49-3.61-2.42-3.61-2.42l-5.32-1.14-3.91-2-6.1-.59-3.94-.89-3.17,2.69,4.23,1.54,4.42.78s-.37,1.53.87,1.43,6.93-1,6.93-1l-2.4,3.25c.13.69.26,1.39.4,2.09l3.65,1.34,3.38.13-3,2-5.65-1.25-3-1.11-.09-2-3.16-2c-.19-.44-.38-.88-.56-1.32l-5.47-1.44-3.33-1.21s-1,2.41-.11,2.74,1.61,2,1.61,2l-2.79.67L1029,364.1l-4.77.25-2.47.23c0,1.23,0,2.46,0,3.69l2.92.2s-1.15,1.58.37,2.14a27,27,0,0,0,4.75.86l1-.79,3.91,2.57L1038,375l3.82,1.11,1.92-2.15,2.59,1.24s2.22-2,1.88-1-1.44,2-.22,2.48,4.91,1.24,4.91,1.24l2.74,1.59,2-1.81c.55,1,1.09,2.11,1.64,3.17l2.77.45-1.29,3-1.11,1.61,3.73-.93,5.91-1.24.75,1.71,5.58-.78c.16-.41.32-.83.47-1.24l-1.69-.92.18-1.91-3.06-2.27,3.39.7,4.92,1.27c.21-1,.43-2.08.64-3.12l4.15.72,2.3,2.25,4.92.18-.45-2.11,4.45,1.39,2-.63-1.54-1.13a24.42,24.42,0,0,0,3.53,1.61l2.76-1.16s.92-1.29-.77-1.66-3.07-.61-3.07-.61l-.77-1.65a15.77,15.77,0,0,0-4-.95,43,43,0,0,1-7-1l-.92-.34,2.62-1.48-3.5-3.2,3.67.82,2.43,2.54,4.74,1.5L1097,371s-2.14-1.35-.76-1.1,3.82,2.25,3.82,2.25l1.37-.84-5.34-2.81,4.58,1.72,5.8,2.19,4.29,1.62,5.19.89c1.22-.07,7.62.22,7.62.22-.17-.68-.33-1.36-.5-2l2.46,1.47,2.61,1.26q1.95-.85,3.9-1.68c.12.39.23.79.33,1.18l3.5.55,4.68-.57,5.13-.11a23.17,23.17,0,0,0,4.61,2.29c1.37.27,6.67,1,6.67,1l5,.12,3-.91-5.78-1.73-5.92-1.51,2.85-.19,6.78.84q2.15,1.1,4.3,2.18l4.16-.41,4.35.43,3.73.2,1.56-1.13-4.42-2-2.93-1.89c-.13-.55-.27-1.09-.39-1.64l-3.67-1.91-3.38-2.3a24.46,24.46,0,0,0-3.38-2.29,34,34,0,0,0-4-.83l-4,1.18-4.19-.62-3.74-.2-3.93-1.51,4.63,0,5.38.59,3.71-.29-1.39-1.27L1152,360l-4-.33c-1.32-.66-2.63-1.33-3.94-2l-3.79-2.67-4.21-1.61s-3-.16-1.92.49a1.4,1.4,0,0,1,.63,1.71l-3.33-2.25-4.92-.15c0,1-3.47-2.06-3.47-2.06l-5.24-1.74-3.75-1.66-4.94-1.12,1.65,2.35-1.35,2.73-1.2-2.45a7.67,7.67,0,0,1-1.5-2.55l-3.44-.55-2.69-1c-.1-.53-.19-1.06-.29-1.59l-2.57,1.77-2.39-.9-1.19-.94-1.64-.36,2.51,3.18-3.88-1.95-3.43-2-2.06-2.26-1.38,1.73,1.14,2.93-2.66-2.49-1.7,2.14-1.59-2.86-.39-2.4-6.53-2.91-.24-2.07-3.87-.93q-.42,1.2-.84,2.43l-5.61-2.56-1.62,2.91,3.14.4,5.09.87,4,2.22-4.24.46s-1.87,1.85-2,1l-.12-.8-2.2-2.08-2.69-.48-3.39-2-1.08-2.91-5.81-1.36-4,1.57-2.72-2.75-6.45-.57,1.26,1.73,3,1.07s-5.17.68-3.66.72,7.83.28,7,.76-6.24,1.06-6.24,1.07c0,.44,0,.88.08,1.32l4.23,0-3.09,1.46,4.16,1.51,8.07,2.42,1.57,2.39s3.86-2,4-1.13a18,18,0,0,1,.07,2.35l7.66,2,1.86-1.39.7,2.07q8.71,2.43,17.47,4.91a48.89,48.89,0,0,0,5,1.6c1.36.24,8.62.39,9.52.73l6,2.27-4.83-.28,1.81,1.72-10.29-2.3,2.57,2.26-4.86.27-2.86-2.37-12.41-2.52c-.48,1-1,1.93-1.43,2.9l3.31,2.29-3-.06c-1.09-1.12-2.19-2.23-3.28-3.34.23-1.16.46-2.3.69-3.44l-5.7-2.63-10.1-2.4c-.89.82-1.78,1.63-2.67,2.46,0,0-4.43.24-3.64-.27a18.4,18.4,0,0,0,2.37-2.57c-.21-.87-.43-1.74-.65-2.61l-5.4-1.44-10-3.88-2.73-2.81,2.16-.77-2-4.59-6.17-2.72-3.14-2.66-6.07-1.41c.12.47.23.94.35,1.41l5.62,1.49c-.3.83-.61,1.66-.92,2.5l-2.81-.76-3.93-2.17c-.24.6-.48,1.2-.73,1.8l2.88,2.07,4,.66,2.2,1.05c-.23.6-.48,1.21-.71,1.82l-5.33-1.91-1.74,1.21-4-.65,3.91,2.7s3.85-1,3.94-.16a7.12,7.12,0,0,0,1.23,2.28l-1.88.91-3.43-1s-4.21-2.83-4.11-2a40.76,40.76,0,0,0,1.67,4.59Zm18.46,11.25,2.27.55-2.27-.54Z"/><path class="cls-2" d="M1025,359.27l.24-1.86s-1.59-2-2.38-1.41-4.35,1.21-3.31,1.86l1,.66,2.65,2.07Z"/><path class="cls-2" d="M1019.76,362.15l-2-.43-1,.79c-.3.74-.59,1.48-.88,2.23l3.21.31Z"/><path class="cls-2" d="M1166,569.28l6.28,3s.47,5.7,1.78,5.51a55.8,55.8,0,0,0,6.5-2.48c-.49-1.79-1-3.57-1.46-5.36l7.31-5c2.73-2.26,5.44-4.51,8.16-6.74,0,0,9.2-2.3,9.3-3.32s5-6.1,5-6.09c-.33-1.54-.64-3.08-1-4.61l5.16-.68a2,2,0,0,1,2.53-1.05c1.67.68,10.42,2.55,10.42,2.55l1.65,4.88,6.19-2,1.64,2.43q4.71-3.1,9.39-6.17l13.67-.15,3-7.94c1.39,1.81,2.79,3.64,4.18,5.47l7.39.37,13.76,3.75,6.37-2,.56-.17,3.78,1.26,4.14-1.27,8.25,1.82,10.48-3.18s-7.32-6.4-8-5.71-7-1-8.38-.59-7-3.61-7-3.61l8.9-.51,2.66-4.09,6.16,2s1.51,6.17,2.25,7.15,9,6.13,9,6.13.2-4.84.57-5.65.46-6.29-.52-6.7-2.2-6.39-2.2-6.38c1.41,1.76,2.82,3.54,4.23,5.31l3.47-4.27-1-4.56,3.22-1.14,7.67.14-.6-2.13-4.49-3.77,5.9-.26,5.14,4,4.6-1.73-6.33-3.93s.21-4.78,1.06-4.11a40.44,40.44,0,0,0,3.64,2.16c.35-1.37.7-2.73,1-4.08q-.06-3.33-.12-6.61s-3.18-3.12-2-3.21,7.57,2.64,7.57,2.64l4.46,3.68c.23-2.26.45-4.51.67-6.73,0,0-4.66-3.15-5.93-3.7s1.29-2,1.29-2,1.9-1.76,1-2.16-2.22-2.66-1-3,6.53-1.16,6.53-1.16l2.39-3.7,5.76,2.19,3.92-2.17-8.28-5.72s-5.82-.31-5.1-1.09,1.94-3.5,2.67-2.65,10.33,6,10.34,6l5.74,3,3.65-1.3c-.43-.66-.9-1.3-1.33-2l-5.67-3.55,4,1.16q-3.2-4.85-6.5-9.61l-2.77.16s-2.63-3.21-3.86-3.73a29.28,29.28,0,0,0-6.89-1.12c-1.12,0-8.35-.41-8.35-.41l-8.3-3q6.23.25,12.4.55l3.86-2s-4.23-2.83-5.26-3l-5.14-.9-1.63,1.89-11-4.37c.59-1,1.17-1.91,1.76-2.85L1327.2,441l-5.16-2.42-8.38-2-8.41-1.95,2.32-.83,6.74,1.52,7.46.82,6.79,3.6q9.11,3.81,18.22,7.67l4.54,2.17,6.57,1.77,3.81,2.13,6.23.13c-1.09-1.5-2.22-3-3.33-4.45l-4.44-1.89c-.57-.9-1.12-1.8-1.68-2.7L1353,443l-5-1.12,5.6-.11c-.5-1-1-2.06-1.48-3.08l-4.17-1.27h-4.06l-3.79-2.09,7,0-18.13-8.82s-12.3-6.34-13.42-6.32-18.8-8-18.79-8l-7.35-2.31-6.88.82-7.38-.33-.45-3.12-5.58-2.77-4.86-.75q-1.61,1.41-3.23,2.87l-7.11-2.14-9-2.14c.61,1.5,1.23,3,1.84,4.53,1.22,1.59,2.43,3.18,3.65,4.79l.72.45,6.28,3.94-11.95-2.51-3.08-5.12s-.91-6.74-2.93-7.78-7.83-4.65-7.84-4.65l-2.34,4.35-2.81,1.43a18.34,18.34,0,0,1-.21,2.52c-.09.42-.22.66-.4.33-.55-1-9.79-7.78-9.78-7.77l-5,1.11c.11-1.59.22-3.17.33-4.73l-.45-3.46-13.43-3.05-15.19-4.45c-.53,1.15-1,2.31-1.58,3.48-.44-1.46-.88-2.91-1.31-4.35l-5.11-.47q-1.63,1.53-3.27,3.1l-3.71-2q-10-1.29-20-2.53l-3.52-1.09-1.62,1.22-1.49,1,1.41,1.34,3.82.67.69,2.4,2.92.86,2.4-.67,4,2.09q-1.08,1.31-2.16,2.64l-1.83-.17c-.43.64-.86,1.29-1.3,1.93l-5.51-.49L1139,390l-3.87-1.76-5.37-.69L1123,386l-7.54-2-2.62-.72-4.44.8c.68,1.08,1.35,2.17,2,3.27l1.89,2.95c.52.57,1,1.15,1.57,1.72l2.5,2.08,3.71.86c.81-.82,1.61-1.64,2.42-2.45.42.53.84,1.07,1.27,1.6,0,0-1.81,2.12-.58,2s9.29,1.88,9.29,1.88l4.07,2.13-.87,1.92-2.49-1-1.43-1.4-7.14-1.61-4.5-1.44-6.18-.09,1.72,1.52-3.73-.85c-.53-1-1-1.93-1.58-2.88l-3.56-.51,1.27,2.77,1.11,2.43.8,1.74,3.43,1.31-2.46,1.38,1.13,2.46,4.69,1.21,2.69,2.5,2.54-4.55,1.9,1.3.21,2.7,3.37-2.19,3.94,2.39c-.19.89-.37,1.79-.55,2.69l5.27-.29,6.25,1.26,1.49,2.61,4.19.18,1.58.61,6.4,4.82,3,4.7,4.76,1.86q.33,2,.66,4.11,1.74,2,3.48,4.05l2.49,5.79-3.38,1.09,2.22,3.62s.33,6.26,1,7.16-1.09,3.3-1.09,3.3l-4.66-1.53-2.3,4.73s-3.34,3.1-2.36,3.49,4.38,2.06,4.38,2.06l3.4-1.82s1.61,3.49,2.58,3.88,6.92,4.67,6.93,4.67l6.76,4.31-5.81,4.12-4.39-1.43-4.52-4.07-5.57-2.86-4.37-1.42.66,3.82s2.35,2.23,1.37,1.84-4.38-1.42-4.38-1.42l-2.43,3s-5.21,1.53-4.06,2.32,3.83,3.16,3.83,3.16-3.21.05-2.38.71,5.66,4.24,5.66,4.24l7.7-.23.88-1.63q-.42-3.63-.84-7.22s-1.59-2.9-.75-2.25,4.15,6.22,4.15,6.22l3.27,1.31,4.47,2.78-3.2,3c.24,1.53.49,3.06.73,4.6l-4.38-.76-2.46,5.37-7.36-1.94-4.51.21a10,10,0,0,1-3.13,2.12c-1.43.45-6.08,1.64-4.4,3s4.65,2.54,3.39,3.4-5.52,3.62-5.53,3.62,0,3.09.82,3.78,1.66,4.48,1.66,4.48-2.65,2.77-1,2.73,3.57,3.18,3.57,3.18-4.32,2.12-3,2.65,6.63,2,6.63,2c-2.4,1-4.81,2-7.22,3.08.36,1.91.71,3.83,1.07,5.75,0,0-.67,6.87.33,7.29s5.93,3.48,5.81,4.51.57,8.55.57,8.56l2.13,6.33,8-1.46Z"/><path class="cls-2" d="M1304.92,595.82c0,1.27.09,2.55.13,3.82l1.54.85,7.7,4.19,4.31-3,3.73,1.07,11.4,2.75s7.22-.11,9.43.32-1.31-5.37-1.31-5.36q1-3,2-6-2.22-3.85-4.45-7.69l-5.15.93-9.12-2.34-7.85-3.88c-1.63.52-3.25,1.06-4.88,1.59l-4.34-2.37c-.39-2.28-.78-4.54-1.17-6.8l-3.13-2.37c0,1.23.09,2.47.14,3.71l-2.27,0-2.55,0-6,2.72,5.94,1.46,3.43-.28,2.79-.23-2.51,1.58c-.83.52-1.66,1-2.48,1.57l-5.94,1.19,6.89,6.13-7,.78Z"/><path class="cls-2" d="M536.53,643l-1.88.95.06.25s-1.4,2.86-1.38,3,.25,2.77.34,3,3.28-1.49,3.5-1.56a16.87,16.87,0,0,0,.34-3.58c0-.23-.18-2.18-.22-2.47S536.53,643,536.53,643Z"/><path class="cls-2" d="M535.73,638.18c.22-.07,1-.26,1-.26l.56-1.56s-.49-1.29-.63-1.24a6.66,6.66,0,0,0-.8.82s.32,1.11.2,1.22S535.5,638.24,535.73,638.18Z"/><path class="cls-2" d="M528.71,623.11s-1.24,1.34-1.3,1.48.58,1.27.59,1.44l.45.37s1-1,1.2-1.25a6.39,6.39,0,0,0,0-1.8C529.64,623.07,528.72,623.11,528.71,623.11Z"/><path class="cls-2" d="M533.74,630.13c0-.16.09-1.54.12-1.69s-.93-.08-1.17-.08-.2.87-.27,1.23l.09.15c0,.55,0,1.09,0,1.64l.88.11S533.71,630.28,533.74,630.13Z"/><path class="cls-2" d="M534.67,636.18s0-.69-.07-.88-.55.59-.64.72c.1.22.21.43.31.65C534.41,636.51,534.54,636.34,534.67,636.18Z"/><path class="cls-2" d="M662.86,405.89c-.72.75-1.43,1.51-2.14,2.27l-2.17-1.55q-1.09,2.47-2.18,5s2.66,1.71,3.38,1.48,5.61-1.23,6.4-1.89.72-3.16,1-4S662.85,405.89,662.86,405.89Z"/><path class="cls-2" d="M724.16,474.74c.56.2,3.43-1.73,3.43-1.73.33-1.26.67-2.53,1-3.78.15-1.33.31-2.65.46-4l2.49-4-2.82-1.7-2.58-.16c-.57,1-3.09,4.24-2.34,4.49a9.52,9.52,0,0,1,2.06,1.44l-2.37,5S723.59,474.54,724.16,474.74Z"/><path class="cls-2" d="M615.22,415.27l-1.81-.53-2.73,2.33-1.32,1.4s4.12.76,4.58.89,2.45-1.52,2.85-2.52S615.22,415.27,615.22,415.27Z"/><path class="cls-2" d="M597.28,423.43c.12.41.23.81.34,1.22l3.06-.9,1.73-3.07-2.35.22A20.83,20.83,0,0,1,597.28,423.43Z"/><path class="cls-2" d="M592.76,422.79c-.32.58-1,2.16-1,2.16l2-.55,2.29-2-.15-.93C595.2,421.72,593.07,422.22,592.76,422.79Z"/><path class="cls-2" d="M571,423.5l1.56.87a16.07,16.07,0,0,1,1.93-1.22c.61-.27-.78-1.75-.78-1.75Z"/><path class="cls-2" d="M561.61,423.09l.36,1.85,2.14-1.16-.3-1.4Z"/><path class="cls-2" d="M551.32,421.43c-.38-.1-.31,1.64,0,1.93,0,0,.37,1.18.86,1.1s.28-1.88.28-1.88S551.69,421.52,551.32,421.43Z"/><path class="cls-2" d="M632.3,378.11c-.26-.84-.51-1.68-.77-2.52l-2,.84c-1.19.3-2.39.59-3.57.9l-.15,2.74,3.19.39Z"/><path class="cls-2" d="M1440.12,943.25l-9-5.18c-.35-1.61-.69-3.21-1-4.81l-6.48-5.62-7.11,1-5.36,3.29c.36,1.82.71,3.64,1.07,5.46l-5.85,3.71-15.6-11.76q-1.59-5.37-3.16-10.75l-9.06-9.24-5-3.44-5.58-10.24,5.68-4.72,3.59-5.62-.24-3.85,6-4.85-3.8-2-2.71-4.61-6.17.74-7.45-5.11-2.56,1.69c-.26-1.36-.52-2.72-.77-4.08l-3.51,1-13.42-6.45-4.15,1-6.55-4.4-11.78,2.08-5.87-1.61-4.09,2.3-4.63-.13-1.11-3.29-4.22.36-3.36-2.39-2.61-.5-2-3.37.06-3.1-2-.54-4.11,2.3-1.34,1.37-6.42,6.55-11.88,2.1-6.25,1.39-5.83,6.28c-1.07,2.27-2.15,4.53-3.22,6.79l-.84,5.62-9.07,6.49-16.8,5.38-11.37,5.19-16.25,15.07-9.43,7.28-3.42,5.77q.57,3.07,1.13,6.15l-2.62,3.9c-.54,3.22-1.09,6.44-1.63,9.66l-9.16,15.47-8.32,7.67q-1.22,8.67-2.42,17.32l3.45,5.83q1.72,6.93,3.44,13.85,0,10.18,0,20.31,1.33,3.12,2.68,6.23c.56,1.3,1.12,2.6,1.67,3.9l5.22,9.55q3.21,6.24,6.41,12.46l14.78-1,8.49,4.83,3.14,3.46s13.82-.21,14.88.24,12.49,3.47,12.49,3.47l12.26-.91,7.06,5.11s3.16,6.8,2.55,7.45-2.3,2.36-2.31,2.36c.83,2.06,1.66,4.13,2.49,6.18l13.33,3.49q1.23,5.49,2.44,11-5.55,8-11.07,16l-6.62,7.6,7.31,17.44s1.57,9.11,1.37,10.18-1.3,20.83-1.31,20.78l-2.91,2.22c-.68,1.43-1.37,2.85-2,4.27-.37,2.88-.73,5.75-1.1,8.6l-3.3,4.27-8.15,4.19q-5.73,5.18-11.42,10.26c-1.27,3.23-2.55,6.45-3.81,9.64.65,1.35,1.31,2.68,2,4a537.35,537.35,0,0,0,90.19-76.31q9.06-9.61,17.7-19.7a536.47,536.47,0,0,0,47.52-64.83A544.35,544.35,0,0,0,1428,985.22c5.48-12.76,10.26-25.63,14.69-38.56l-3-.81Z"/><path class="cls-2" d="M1471.71,761.61h-.43c-.24-1.19-.48-2.37-.73-3.54l1.11.72c0-.55,0-1.11,0-1.67l-2.56-.6-4.06,1.39-14.46-3.27q-4.15-3.48-8.33-6.94l-2.55,1.2-3.34-.61c-.69.47-1.37,1-2,1.43l-1.17-3.16c-.93-.91-1.88-1.81-2.82-2.72-.26-2.16-.51-4.32-.77-6.48l2.55-1.19-1.94-1.16,3.45-4.27,4.18-3.91,1.81,2.25,2-2.26-2.88-3.3,1.92-3.46-1.91-2,2.66,0,1.06-1.24,1-2.68-4.28.37-1.88,2.59-5.07-2.26-4,2.55c.67.58,4.84-1,4.84-1l2.44,1.38-.18,2.79-3.61.12-2.69.81c-.78-.82-1.55-1.65-2.32-2.47q-1,2.46-1.91,4.92l2.51,2-2.84,1.92c-.19,1.27-.39,2.54-.59,3.81l1.94,1.15c-.23.87-.47,1.73-.71,2.6l-1.66.42,1.26,2.9c0,.49,0,1,0,1.47-.91.57-1.83,1.14-2.76,1.7l1.17,3.16a13.49,13.49,0,0,1-3.07-1.36c-.08,1.23-.17,2.47-.25,3.7-.83-.95-1.66-1.9-2.48-2.86l-3.25.62c-.21.79-.42,1.58-.64,2.37l-1.57.18c-.07-1.1-.13-2.22-.2-3.32l-3.68-1.34-2.21-1.27-5.82,1c-1.81.78-3.64,1.55-5.46,2.32L1392.1,749l-3.54,2-5.42-2.39-9.86-.46c-.18,1.71-.37,3.42-.56,5.13l-7.3.69-3.33,2.14-5.45-2.38c0-1.21,0-2.42-.05-3.62l-2.91-.38q-.92,4.1-1.85,8.21l-7.4-1.42-1-2-9.13-2.47c-.49,1.19-1,2.38-1.49,3.58l4.32,3.69q.72,2.73,1.43,5.46l2.83-.88q.75,3,1.48,6.1s-3.63,3.57-2.86,3.91,5.39,7.83,5.39,7.83q-1.45,5-2.92,10l-4,5.29-7.9-.37-3.55-3.38-8.92-3.88-9.77-4.85-1.56-2.21-3.18-.49-2.36-.37-.66,1.56-2.78-1.52-5.69.93c.68.6,1.83,8.18,1.83,8.18l-2.57,1.66-.33,6.66-3.54,4.66-6,6.09q-1.17,2-2.32,4l3,.35c-.23.53-.45,1-.67,1.58h-2.19c.31.75.61,1.51.92,2.26-.39,1.39-.77,2.78-1.15,4.18l-3.61,4.05,3.29,1.11,1.89,1.44.69,2.8,6.3-.09c.48,1.45,1,2.9,1.43,4.35l.48,1.47c.35,1.4.69,2.79,1,4.19l9.87-.41,8.6,4,6.67-4,7.07.26,2.67-4.13,7.09-2.83-1.35-4.93,10-5.28,15.12-3.61,3.5-7.71,6.14-.7,7.49,5.73,9.61.53,8.83-2.87,6.71,7.54q-.21,8-.44,16.09l3.27,7,6.19,5.8,5.68,13c-.33,2.54-.65,5.08-1,7.62l-5.09,6.46,2.16,2.18,10.3-7.27-.42-7.91,3.56-2.76,3.56,6.19,3.38-1.6-4.53-7.54q-2.32-2.88-4.66-5.75l2.2-2.42-7.15-5.61q-1.4-7.84-2.8-15.67l-4.21-6.14,4.11-4.91.27-4.46,7.74,1.89-2.74,3.06c-.32,1.79-.63,3.59-.95,5.38l3.93-.71,3.93-3.75.24,4.68-1.68,8.73q8.71,12.27,17.37,24.55l-2.3,4.21-2.76,3.1q.89,3.78,1.78,7.57.94,4.74,1.9,9.49c-.32,1.51-.63,3-.94,4.53l5.21,3.53q.86,2.39,1.69,4.77l-3.44-4.92-3.87-.15q-.6,4.06-1.22,8.15l5.84,3.49,4.62-1.69c.59-1.19,1.18-2.38,1.76-3.57l4,2.06,3.29,1,.09-.4c-.51-.93-1.27-3.19-2.19-8.68-1.67-10-1.68-10-1.67-10,.6-2,1.2-4,1.81-6q.66,3.21,1.31,6.44l5.22-1c.15-.7.25-1.41.39-2.11-.1-.86-.21-1.72-.32-2.57l.73.34A535.58,535.58,0,0,0,1471.71,761.61Z"/><path class="cls-2" d="M1461.6,667.53c-.14-.73-.32-1.45-.47-2.18l-.62.28.39,2.08Z"/><path class="cls-2" d="M1426.64,693.32l-1.74,3.75s-4.11-.13-3.63.94a16.2,16.2,0,0,1,.46,4.18l4.21,2.16c.45.87.91,1.74,1.37,2.61,0,0,13.24-2.07,13.89-1.48s3.16,2.54,3.16,2.54l6.52-2.45q-1,2.35-2.08,4.73,1.1,2.19,2.17,4.38l-2.23,3.56q1.46,5.5,2.9,11c-.6.78-1.2,1.57-1.79,2.36-.63,2.42-1.25,4.84-1.88,7.26l4.62,2.65,4.29-.4c-.22-1-.45-1.93-.67-2.9l4.65-1.38,5.54,2.49,3.45,1,1-1c0-.73-.1-1.46-.14-2.19l-.56.18.51-.88a541.08,541.08,0,0,0-8.48-66.38l-5-.77.54-3.82-3.48-1.57-3.23-1.45c-.07.69-.13,1.39-.2,2.08l1.15,1.6-4.69.89-4.17-1.32c.2,1,.41,2,.62,3l-4,1.24-2.24-1.83c-.62.64-1.26,1.27-1.89,1.9l3.08,1.93-5.41.34q-1.9-1.54-3.82-3.08l-1.65,2,3.68,1.92-4.5.21s-.91,2.36-.15,2.7,4.09,2.38,4.09,2.38l3.13.28,1,1.86-7-1.72-3.37-1.23c-.51,1.35-1,2.7-1.56,4l3.51,2.4s-2.39,3.14-1.45,3,8-1.74,8-1.73q-1.83,1.27-3.64,2.57c-.85.93-1.71,1.86-2.56,2.8l-4.41-.84-2.49.3,1,2.71Z"/><path class="cls-2" d="M1322,719.58l8.44-1.08,8.11-1.8,2.49-6c-.42-1-.84-1.93-1.25-2.89,0,0,5.8-2.17,8.36-4l-2.39-4.54.3-2.2-5.58-4.17-.3,2.2-5.57,4.57-5.8-3.68-1.66,4-6.33,1.94,5.08,4-2.09,5-7.92,1.3,2.58,4.09Q1320.24,717.92,1322,719.58Z"/><path class="cls-2" d="M1382.4,734.7l-3-3.09-3.52-3.31,3.07-1.59-3.31-3.81.15-6.37q-1.56-3.62-3.14-7.21l-1.59-6.51-3.43-5,3.76-1.82,3-4.43c.93-1.32,1.86-2.62,2.79-3.93l-4.72-3.22-4-3.47,5-1.81c-.1-1.75-.19-3.49-.29-5.23l-7.62-.51-5.84,5.42s-.17,3.36-2.42,2.95c-1-1.41-2.07-2.81-3.11-4.22a44,44,0,0,0,.8,8.37l1.36,4-3.69.12,4.23,3-1.93,3.21c-.53,2.27-1.06,4.56-1.6,6.85l5.45.05,3.32,3.78-2.56,1.8,2.79,3.56c-.26,1.64-.53,3.28-.79,4.93l-5,1.9-2.28-3.35-4.35-1.3q1.2,2.28,2.39,4.57l-5.17.69,3.42,2.08-1.24,3-5.29-.53c-.17.91-.35,1.82-.52,2.74l5,2.76,4.36,1.31,3.11,1.36-3.21,3.35-7.69-5.14-11.36,5.19.09,4.23,7.1-2.3,6.76,3,4.68-.94,5,2.77,6.32-2,5.18,2.27,5.79.75c0-1,0-2,0-3l6.5.48C1381.47,739,1381.93,736.85,1382.4,734.7Z"/><path class="cls-2" d="M1359.16,671.22q-1.19-2.22-2.39-4.44c-1.11,1.21-2.21,2.43-3.32,3.65l2.48,2.79Z"/><path class="cls-2" d="M1393.46,671c-.62-2-1.24-3.9-1.85-5.85l-2,1.93c-1.08,1.2.5,4.7.5,4.7Z"/><path class="cls-2" d="M1351.65,832.21l-.87,2.1-2.58,3.21-1.62,2.4,5.51-1.32C1354,837,1351.65,832.21,1351.65,832.21Z"/><path class="cls-2" d="M1385.07,828.9c-.53,1.62-1,3.25-1.57,4.87-.24.72-.47,1.43-.7,2.15l2.91,1.89,4.44-4.84,2.46-7.53-3.36,2.22Z"/><path class="cls-2" d="M1361.78,839.1l-4.32,0,3.23,2.64C1361.05,840.85,1361.41,840,1361.78,839.1Z"/><path class="cls-2" d="M1338.62,835.22l-2.15,2.17a8.35,8.35,0,0,0,5-1.55Z"/><path class="cls-2" d="M1380.65,841.15c-3.29,2.82-3.57,2.84-3.6,2.78q0,3.06-.08,6.14l-2.17,5.25,4.09.54,4-3.81c1.15-1.77,2.29-3.55,3.42-5.32,0,0,9.59-6.92.16-4.87S1384.46,837.87,1380.65,841.15Z"/><path class="cls-2" d="M1400.71,887.77c1.22-2,2.44-3.91,3.65-5.87.41-1.48.81-3,1.22-4.44l-5.71-2.49-5.8-3.78-2.43,1.42,2,7.09Z"/><path class="cls-2" d="M1443.89,916l-4.32-1.27,4.85,5.85,5.13,4.66c.43-1.45.83-2.9,1.25-4.36-1-.42-2-.85-3-1.29Z"/><path class="cls-2" d="M1437.48,732.19c.45,1.94,1.33,5.82,1.33,5.82l3.49,3.3,2.15-2.52q.79-2.84,1.58-5.67C1443.5,732,1437.48,732.19,1437.48,732.19Z"/><ellipse class="cls-3" cx="1012.9" cy="526.92" rx="325.72" ry="246.92"/><ellipse class="cls-3" cx="1049.99" cy="474.74" rx="229.09" ry="173.66"/><ellipse class="cls-4" cx="1083.3" cy="425.78" rx="124.06" ry="94.04"/><g class="cls-5"><path class="cls-6" d="M1073.38,418.92q-1.65-7.47-2-10a10.29,10.29,0,0,1,.72-5.92,15.69,15.69,0,0,1,4.69-4.88q5.72-4.25,15.53-7a101,101,0,0,1,21.09-3.52,92.79,92.79,0,0,1,21.23.89q9.94,1.63,15.51,5.15c3.71,2.34,5.6,5,5.7,7.93s-1.77,5.84-5.59,8.68a36.09,36.09,0,0,1-7.74,4.37,106.54,106.54,0,0,1-12.58,4q-5.82,1.54-23.3,5.86l-23.38,5.74a12.22,12.22,0,0,1-4.93.19c-1.65-.27-2.56-.75-2.72-1.45Q1074.85,425,1073.38,418.92Zm44.78-8.37q7.08-1.19,10.71-3.88t1.72-5.36q-1.92-2.67-8.23-3.7a40.5,40.5,0,0,0-13.39.14q-7.08,1.19-10.71,3.88t-1.72,5.36c1.28,1.78,4,3,8.23,3.71A40.79,40.79,0,0,0,1118.16,410.55Z"/></g><path class="cls-7" d="M1065.7,408.37q-10.12-14.56-13.36-19.62a57.31,57.31,0,0,1-6.27-12.24,36.86,36.86,0,0,1-1.62-11.44,37.55,37.55,0,0,1,5.26-19.42,39.57,39.57,0,0,1,14.17-14.16,38.5,38.5,0,0,1,38.85,0,39.62,39.62,0,0,1,14.16,14.16,37.45,37.45,0,0,1,5.26,19.42,36.86,36.86,0,0,1-1.62,11.44,57.31,57.31,0,0,1-6.27,12.24q-3.24,5.06-13.35,19.62l-13.56,19.43a5.06,5.06,0,0,1-8.09,0Q1074,420.11,1065.7,408.37Zm29-31.86a16.13,16.13,0,1,0-11.43,4.75A15.6,15.6,0,0,0,1094.73,376.51Z"/></svg>