<svg xmlns="http://www.w3.org/2000/svg" viewBox="0 0 199.73 189.01"><defs><style>.cls-1{fill:#231f20;opacity:0.05;}.cls-2{fill:#edf2f4;}.cls-3{fill:#f7cc77;}.cls-4{fill:#b4cbd3;}.cls-5{fill:#ef7575;}.cls-6{fill:#39f;}.cls-7{fill:#43a7f9;}.cls-8{fill:#a3b6c1;}.cls-9{fill:#b9d0db;}</style></defs><title>Asset 4eco</title><g id="Layer_2" data-name="Layer 2"><g id="Layer_1-2" data-name="Layer 1"><path class="cls-1" d="M169.9,184.69a1.62,1.62,0,0,0,1.95-1.16L199.71,20.77A1.62,1.62,0,0,0,198.25,19L87.23,0a1.62,1.62,0,0,0-2,1.15L57.42,164a1.63,1.63,0,0,0,1.46,1.74Z"/><path class="cls-1" d="M167.32,186.41a1.61,1.61,0,0,0,2-1.16L197.13,22.49a1.61,1.61,0,0,0-1.45-1.74l-111-19a1.62,1.62,0,0,0-2,1.15L54.84,165.66a1.62,1.62,0,0,0,1.46,1.74Z"/><path class="cls-2" d="M163.88,189a1.63,1.63,0,0,0,2-1.15L193.7,25.07a1.62,1.62,0,0,0-1.46-1.74l-111-19a1.61,1.61,0,0,0-2,1.16L51.41,168.24A1.62,1.62,0,0,0,52.87,170Z"/><path class="cls-3" d="M129.73,66.17l19-13.44,3.92-22.92a23.59,23.59,0,0,0-22.9,36.36Z"/><path class="cls-4" d="M154.17,30.07l-3.85,22.48,22.48,3.84a23.6,23.6,0,0,0-18.63-26.32Z"/><path class="cls-5" d="M151.15,54.27,160,66.73,163.68,72a23.42,23.42,0,0,0,8.86-14.05Z"/><path class="cls-6" d="M149.24,54.27,130.63,67.44a23.58,23.58,0,0,0,31.78,5.44Z"/><rect class="cls-6" x="133.53" y="104.46" width="49.64" height="14.71" transform="translate(21.42 249.02) rotate(-80.29)"/><rect class="cls-6" x="118.48" y="105.63" width="40.75" height="14.71" transform="matrix(0.17, -0.99, 0.99, 0.17, 4.06, 230.78)"/><rect class="cls-6" x="106.49" y="110.44" width="24.48" height="14.71" transform="translate(-17.4 214.95) rotate(-80.29)"/><rect class="cls-6" x="84.02" y="102.81" width="33.46" height="14.71" transform="matrix(0.17, -0.99, 0.99, 0.17, -24.83, 190.88)"/><rect class="cls-6" x="61.21" y="94.78" width="43.24" height="14.71" transform="translate(-31.82 166.55) rotate(-80.29)"/><polygon class="cls-5" points="92.6 38.69 108.88 19.09 117.71 42.99 111.91 42 106.87 71.47 93.11 69.11 98.15 39.64 92.6 38.69"/><rect class="cls-4" x="113.06" y="95.36" width="3.49" height="90.77" transform="translate(-43.29 230.16) rotate(-80.29)"/><rect class="cls-4" x="111.73" y="103.18" width="3.49" height="90.77" transform="translate(-52.11 235.34) rotate(-80.29)"/><rect class="cls-4" x="110.39" y="111.01" width="3.49" height="90.77" transform="translate(-60.95 240.53) rotate(-80.29)"/><rect class="cls-4" x="109.05" y="118.84" width="3.49" height="90.77" transform="matrix(0.17, -0.99, 0.99, 0.17, -69.77, 245.72)"/><path class="cls-1" d="M104.55,29.87A40.24,40.24,0,0,0,55.44,93.53L48,104.08a7.36,7.36,0,0,0-7,3.07l-1.45,2h0l-1.73,2.46-1.06,1.51h0L5.64,157.37a7.37,7.37,0,0,0,1.78,10.27h0a7.37,7.37,0,0,0,10.27-1.77l30.18-42.82h0l3.78-5.36h0l1.45-2a7.39,7.39,0,0,0,.55-7.58l7.44-10.55a40.24,40.24,0,0,0,43.46-67.64Zm3.23,51.52a32.33,32.33,0,1,1-7.8-45A32.33,32.33,0,0,1,107.78,81.39Z"/><path class="cls-7" d="M13.91,106.07H28.65a0,0,0,0,1,0,0v55.66a7.37,7.37,0,0,1-7.37,7.37h0a7.37,7.37,0,0,1-7.37-7.37V106.07a0,0,0,0,1,0,0Z" transform="matrix(0.82, 0.58, -0.58, 0.82, 83.17, 12.87)"/><path class="cls-8" d="M110,81.65a40.24,40.24,0,1,0-58.81,7.58L38,107.85l5.65,4L56.79,93.22A40.24,40.24,0,0,0,110,81.65ZM58.44,84.89a32.33,32.33,0,1,1,45-7.8A32.34,32.34,0,0,1,58.44,84.89Z"/><path class="cls-8" d="M42.78,99.73h0a7.37,7.37,0,0,1,7.37,7.37v7.37a0,0,0,0,1,0,0H35.41a0,0,0,0,1,0,0V107.1a7.37,7.37,0,0,1,7.37-7.37Z" transform="translate(69.52 -5.08) rotate(35.18)"/><rect class="cls-9" x="36.17" y="104.46" width="6.55" height="14.74" transform="translate(-74.69 79.63) rotate(-54.82)"/></g></g></svg>