<svg xmlns="http://www.w3.org/2000/svg" width="14.359" height="19.145" viewBox="0 0 14.359 19.145">
  <g id="Group_631" data-name="Group 631" transform="translate(0.001 0)">
    <g id="Group_624" data-name="Group 624" transform="translate(0 0)">
      <path id="Path_612" data-name="Path 612" d="M274.546,647.849q-1.869-2.692-2.468-3.627a10.527,10.527,0,0,1-1.159-2.262,6.816,6.816,0,0,1-.3-2.113,6.929,6.929,0,0,1,.972-3.589,7.318,7.318,0,0,1,2.617-2.618,7.114,7.114,0,0,1,7.18,0,7.317,7.317,0,0,1,2.617,2.618,6.926,6.926,0,0,1,.972,3.589,6.808,6.808,0,0,1-.3,2.113,10.528,10.528,0,0,1-1.159,2.262q-.6.934-2.468,3.627l-2.505,3.59a.935.935,0,0,1-1.5,0Q276.079,650.017,274.546,647.849Z" transform="translate(-270.62 -632.668)" fill="#FFBF38"/>
    </g>
    <path id="Path_613" data-name="Path 613" d="M290.44,652.488a2.979,2.979,0,1,0-2.112.879A2.88,2.88,0,0,0,290.44,652.488Z" transform="translate(-281.148 -643.196)" fill="#fff"/>
  </g>
</svg>
